<svg width="272" height="347" viewBox="0 0 272 347" fill="none" xmlns="http://www.w3.org/2000/svg">
<g filter="url(#filter0_dd_14_699)">
<path d="M248.693 205.177C245.879 186.359 225.037 178.76 208.945 187.061V172.334C208.945 163.375 170.117 154.948 162.545 154.848C166.284 131.473 145.958 135.854 133.812 129.36C125.872 125.114 130.382 120.31 137.422 119.404C158.451 116.697 206.334 130.344 219.04 105.18C229.691 84.0751 210.696 67.3139 189.76 70.0532C185.81 66.055 213.632 34.5275 197.799 29.8185C192.282 28.1766 189.82 29.9896 186.944 34.208C184.218 38.211 171.005 69.9969 170.588 74.426C168.754 93.8654 181.522 84.3216 187.624 88.2923C196.602 94.1406 172.171 97.7882 170.213 97.9366C139.8 100.249 104.431 87.7023 75.2291 102.829C55.2154 113.195 53.8881 137.279 78.6349 142.134C90.4485 144.45 112.002 140.67 117.834 152.033C91.9677 152.787 58.6608 152.631 34.5177 162.574C19.6019 168.721 20.9088 174.195 21.1008 189.089C21.5124 220.632 29.8157 263.266 53.0804 286.186C55.6426 288.71 65.194 294.666 66.2333 296.165C67.773 298.386 68.0358 303.026 70.3436 306.399C82.9096 324.755 150.071 324.869 161.673 305.139C163.22 302.512 163.676 297.653 164.628 296.145C165.103 295.391 174.479 289.399 176.597 287.37C180.135 283.99 186.992 273.752 189.347 272.209C192.286 270.284 202.376 269.092 206.958 267.461C232.721 258.299 252.934 233.554 248.693 205.177ZM143.423 167.57C149.564 165.796 156.984 160.039 162.202 159.955C168.671 159.847 198.459 167.055 202.173 171.908C206.279 177.258 198.527 180.559 194.225 181.472C174.755 172.968 153.166 171.629 132.226 170.337C134.892 167.267 140.033 168.546 143.423 167.57ZM123.874 314.453C108.722 315.291 81.5955 314.951 73.0809 300.496C100.135 310.949 131.003 312.162 157.793 300.094C153.655 311.56 134.561 313.863 123.874 314.453ZM152.99 296.489C130.178 305.966 100.685 306.098 77.9016 296.489C35.7513 278.712 26.3607 223.843 26.7484 183.079C48.2933 193.811 75.055 196.522 99.023 197.447C133.206 198.762 172.705 197.004 204.145 183.086C203.697 224.289 196.224 278.533 152.992 296.489H152.99ZM192.966 265.855C194.585 263.705 196.933 255.321 197.984 254.15C199.259 252.73 208.07 250.542 210.801 249.003C220.807 243.353 231.046 232.099 233.472 220.645C237.514 201.556 223.626 193.87 208.15 204.566L209.345 192.63C224.945 184.226 242.316 190.313 244 209.051C246.574 237.716 219.684 261.884 192.966 265.855Z" fill="#3A0888"/>
<path d="M228.907 216.1C228.136 229.479 213.288 243.816 200.958 247.547C205.776 237.087 203.957 214.394 213.347 207.76C222.291 201.445 229.552 204.946 228.907 216.1Z" fill="#FCC803"/>
<path d="M108.82 21.6748C121.325 18.7477 125.21 49.9508 125.093 58.5109C124.731 85.2945 94.5179 92.4832 84.1361 68.9977C80.7326 61.2992 72.3801 28.2615 84.0532 25.6455C103.45 20.8072 88.6735 67.5425 105.29 61.9311C116.541 58.1315 92.6434 25.4612 108.819 21.6748H108.82Z" fill="#3A0888"/>
<path d="M148.214 44.5787C152.179 43.3581 164.088 43.7614 166.003 47.9499C170.204 61.748 153.579 56.4753 145.809 56.5183C141.297 72.6476 157.131 59.7997 165.837 67.2194C177.886 87.4534 137.996 83.4923 131.813 74.8412C127.699 69.085 130.602 53.1616 131.556 45.9059C133.303 32.62 131.929 20.0257 148.633 19.8534C156.257 19.7756 174.279 20.648 171.862 31.8864C168.965 45.3614 144.735 28.0054 148.213 44.5775L148.214 44.5787Z" fill="#3A0888"/>
<path d="M53.3265 55.1349C51.2935 57.5487 52.6112 61.3543 55.2178 62.7724C75.7811 47.5071 85.7273 65.4183 61.985 74.5732C60.4681 79.0273 74.1538 88.686 67.0253 97.0462C63.9951 100.599 59.286 100.86 55.5382 98.2765C52.8776 96.4431 34.412 60.008 33.9992 56.0408C32.8063 44.5859 56.6195 30.278 64.5784 35.157C77.9604 48.2814 56.8991 50.895 53.3277 55.1361L53.3265 55.1349Z" fill="#3A0888"/>
<path d="M204.145 183.086C203.697 224.289 196.224 278.533 152.992 296.489C130.179 305.966 100.686 306.098 77.9028 296.489C35.7525 278.712 26.3619 223.843 26.7496 183.079C48.2945 193.811 75.0563 196.522 99.0242 197.447C133.207 198.762 172.707 197.004 204.146 183.086H204.145Z" fill="#7670C5"/>
<path d="M113.84 184.667C92.0506 168.02 122.711 163.783 122.705 151.626C122.692 127.713 59.226 150.695 66.0869 119.193C72.4593 89.933 156.71 105.356 177.819 102.329C179.903 102.029 181.963 101.534 183.936 100.796C185.618 100.165 187.241 99.3571 188.718 98.3327C189.958 97.4735 191.101 96.4575 192.029 95.2667C192.805 94.2699 193.435 93.1426 193.768 91.9195C194.061 90.8425 194.109 89.6984 193.834 88.6118C193.551 87.4917 192.935 86.4853 192.125 85.6667C191.122 84.6531 189.857 83.9291 188.539 83.4049C186.767 82.7 184.868 82.3339 182.974 82.1472C182.394 82.0897 181.81 82.0502 181.227 82.0263C180.089 81.9784 178.885 82.2561 178.236 81.051C178.173 80.9325 178.121 80.7853 178.186 80.6656C178.223 80.5974 178.292 80.5531 178.356 80.5113C179.608 79.7166 180.869 78.9459 182.214 78.3165C183.73 77.6056 185.317 77.0444 186.939 76.6219C188.578 76.1947 190.252 75.9099 191.937 75.7591C193.619 75.6083 195.314 75.5916 196.999 75.71C198.683 75.8285 200.301 76.0726 201.915 76.458C203.529 76.8433 205.01 77.3352 206.479 77.9838C207.887 78.6061 209.238 79.3648 210.483 80.2707C211.68 81.1431 212.778 82.1555 213.717 83.302C214.646 84.4377 215.414 85.7026 215.974 87.0585C216.535 88.4144 216.916 89.9916 217.046 91.5234C217.192 93.2455 217.059 94.9843 216.724 96.6777C216.482 97.8995 216.136 99.0998 215.713 100.271C205.29 129.1 140.574 105.213 127.4 118.175C110.349 134.953 153.912 135.311 157.184 145.876C164.378 169.108 108.096 157.199 113.84 184.665V184.667Z" fill="#F7F7F7"/>
<path d="M192.967 265.857C194.585 263.707 196.933 255.322 197.985 254.151C199.259 252.732 208.073 250.543 210.799 249.004C220.808 243.355 231.048 232.101 233.474 220.645C237.516 201.556 223.625 193.872 208.15 204.567L209.344 192.633C224.944 184.228 242.318 190.317 244 209.054C246.572 237.716 219.685 261.885 192.966 265.857H192.967Z" fill="#7670C5"/>
<path d="M112.925 157.251C113.28 157.207 113.641 157.161 114.012 157.113C114.652 157.033 115.334 156.669 115.973 156.743C115.648 157.539 114.618 157.666 113.904 157.969C113.292 158.229 112.671 158.471 112.051 158.712C110.288 159.396 108.8 160.088 107.292 161.226C106.222 162.033 105.213 162.924 104.349 163.95C103.54 164.91 102.875 165.976 102.304 167.09C102.087 167.514 100.708 171.174 100.522 171.173C88.8439 171.098 77.1696 171.958 65.6441 173.673C60.1273 174.494 36.0357 181.392 34.436 181.24C30.4458 180.865 25.4091 175.961 28.3349 172.329C35.0157 164.044 73.2393 160.214 84.2777 159.201C88.5943 158.805 92.9206 158.525 97.2469 158.237C101.459 157.955 105.699 157.462 109.923 157.466C110.978 157.466 111.932 157.371 112.923 157.251H112.925Z" fill="#7670C5"/>
<path d="M132.227 170.335C134.891 167.266 140.034 168.549 143.426 167.57C149.567 165.796 156.987 160.04 162.202 159.954C168.673 159.847 198.46 167.056 202.177 171.907C206.279 177.26 198.53 180.558 194.225 181.472C174.756 172.966 153.168 171.628 132.228 170.335H132.227Z" fill="#7670C5"/>
<path d="M258.302 211.812C258.298 211.749 258.294 211.687 258.29 211.623C258.044 207.955 257.592 204.292 256.777 200.704C256.048 197.5 255.023 194.347 253.559 191.398C252.191 188.644 250.433 186.083 248.274 183.886C246.042 181.614 243.41 179.765 240.558 178.352C237.248 176.713 233.673 175.651 230.046 174.977C228.347 174.661 226.632 174.431 224.911 174.267C224.001 174.18 223.089 174.112 222.176 174.061C221.912 174.046 219.33 174.045 219.307 173.953C214.318 153.901 190.809 150.828 173.807 146.839L172.349 145.097C171.78 143.594 172.449 141.544 172.185 140.097C171.781 137.894 171.127 136.581 170.591 134.53C200.362 135.533 236.023 126.338 232.121 89.9509C230.466 74.5157 217.815 66.4199 205.033 59.9589C204.143 57.3979 211.241 47.981 211.945 43.9863C215.531 23.6637 198.973 14.2504 181.533 22.9912C170.798 7.16464 139.677 5.7585 126.388 18.993C119.445 12.9137 113.245 8.98963 103.665 12.5511C100.713 13.6484 97.8337 17.8896 96.4956 18.1852C94.5707 18.61 89.1824 15.538 84.0892 16.1364C76.1939 17.0627 70.6952 24.8497 68.5362 25.3332C65.6452 25.9818 59.8057 23.1886 53.1068 25.0747C39.87 28.8012 22.6729 41.5857 23.5633 56.8941C24.023 64.802 40.356 96.2971 45.5692 103.434C46.9444 105.318 51.4987 107.281 52.1576 109.637C53.0852 112.954 50.2519 117.739 49.9326 121.404C49.0494 131.543 53.0852 137.403 58.6416 145.188C57.8975 148.307 21.1248 150.975 13.5427 167.147C10.8509 172.881 10.6061 179.731 10.5185 185.949C10.2593 204.324 12.7386 223.559 17.0733 241.405C19.5587 251.637 23.0545 261.672 27.994 270.995C33.2228 280.864 40.35 289.489 47.6273 297.91C52.4456 303.485 57.3503 308.988 62.0354 314.677C81.3267 338.098 146.999 339.214 166.559 317.171C174.251 308.502 186.054 289.799 195.723 283.337C200.565 280.102 216.475 277.572 224.041 273.337C228.091 271.069 231.794 268.188 235.226 265.08C239.095 261.578 242.651 257.722 245.852 253.604C248.994 249.564 251.823 245.246 254.06 240.64C255.949 236.749 257.197 232.774 257.81 228.484C258.076 226.619 258.258 224.743 258.367 222.86C258.58 219.182 258.522 215.483 258.3 211.813L258.302 211.812ZM131.557 45.9059C133.304 32.6199 131.93 20.0257 148.634 19.8534C156.258 19.7756 174.28 20.648 171.863 31.8864C168.966 45.3614 144.736 28.0054 148.214 44.5787C152.179 43.3581 164.088 43.7614 166.003 47.9499C170.204 61.748 153.579 56.4753 145.809 56.5183C141.297 72.6476 157.13 59.7997 165.837 67.2194C177.886 87.4534 137.996 83.4923 131.813 74.8412C127.699 69.085 130.602 53.1616 131.556 45.9059L131.557 45.9059ZM84.0532 25.6455C103.449 20.8072 88.6747 67.5424 105.291 61.9311C116.542 58.1315 92.6446 25.4612 108.82 21.6748C121.325 18.7477 125.21 49.9508 125.093 58.5109C124.731 85.2945 94.5179 92.4832 84.1361 68.9977C80.7326 61.2992 72.3801 28.2615 84.0532 25.6455ZM55.5382 98.2765C52.8776 96.4431 34.412 60.008 33.9992 56.0408C32.8063 44.5859 56.6207 30.278 64.5784 35.157C77.9604 48.2814 56.8991 50.895 53.3277 55.1361C51.2947 57.5499 52.6124 61.3554 55.219 62.7735C75.7823 47.5083 85.7285 65.4195 61.9862 74.5743C60.4693 79.0285 74.155 88.6872 67.0265 97.0474C63.9963 100.6 59.2872 100.861 55.5394 98.2776L55.5382 98.2765ZM206.957 267.463C202.375 269.093 192.287 270.284 189.347 272.209C186.993 273.751 180.136 283.991 176.6 287.373C174.479 289.4 165.103 295.394 164.629 296.145C163.676 297.655 163.22 302.512 161.674 305.142C150.071 324.871 82.912 324.756 70.3471 306.399C68.0394 303.028 67.7742 298.385 66.2357 296.167C65.1952 294.668 55.645 288.712 53.0816 286.186C29.8205 263.267 21.516 220.634 21.1044 189.089C20.91 174.195 19.6055 168.721 34.5212 162.576C58.6632 152.63 91.9725 152.787 117.837 152.033C112.003 140.671 90.4533 144.453 78.6361 142.135C53.8893 137.28 55.2178 113.197 75.2303 102.831C104.432 87.7047 139.8 100.251 170.214 97.9402C172.173 97.7918 196.606 94.1442 187.624 88.2947C181.526 84.324 168.756 93.8678 170.59 74.4283C171.007 70.0005 184.218 38.2146 186.945 34.2116C189.822 29.9908 192.283 28.1777 197.803 29.8196C213.634 34.5287 185.81 66.0573 189.762 70.0567C210.699 67.3151 229.693 84.0751 219.04 105.18C206.338 130.348 158.453 116.7 137.424 119.406C130.382 120.312 125.874 125.116 133.816 129.362C145.962 135.854 166.284 131.474 162.547 154.849C170.12 154.948 208.945 163.377 208.945 172.334V187.061C225.037 178.761 245.88 186.361 248.693 205.179C252.934 233.555 232.721 258.299 206.958 267.464L206.957 267.463Z" fill="#FCC803"/>
<path d="M157.794 300.092C153.655 311.561 134.562 313.863 123.875 314.454C108.721 315.292 81.5979 314.951 73.0797 300.495C100.135 310.949 131.003 312.159 157.794 300.092Z" fill="#7670C5"/>
<path d="M136.978 261.085C136.966 261.318 136.929 261.55 136.908 261.738C136.853 262.236 136.887 262.753 137.031 263.233C137.289 264.093 137.904 264.763 138.65 265.243C140.213 266.25 142.135 266.528 143.919 266.914C144.434 267.025 145.341 267.112 145.693 267.57C149.342 272.329 139.89 269.827 138.639 270.222C138.148 270.376 132.607 275.194 130.359 276.337C120.536 281.334 110.093 281.748 99.7179 277.94C93.8519 275.787 90.9981 270.218 84.6629 273.882C77.268 271.749 86.1354 269.943 87.4471 268.619C88.7179 267.337 90.0296 262.22 91.8549 262.681C94.5467 264.356 91.8429 267.578 92.6146 269.048C94.1723 272.015 109.776 276.259 113.455 276.269C115.072 276.273 116.703 275.983 118.281 275.664C120.46 275.224 122.612 274.633 124.707 273.889C126.795 273.149 128.862 272.258 130.727 271.052C132.18 270.111 133.668 268.898 134.347 267.257C134.639 266.554 134.747 265.789 134.635 265.034C134.575 264.624 134.454 264.226 134.29 263.847C134.022 263.228 133.589 262.713 133.656 261.994C133.697 261.567 133.9 261.179 134.161 260.845C134.729 260.121 135.541 259.683 136.462 260.005C136.93 260.169 137.002 260.631 136.978 261.085Z" fill="#3A0888"/>
<path d="M92.3218 229.129C91.9153 231.779 91.7332 235.339 90.738 238.662C89.852 241.633 87.9162 244.453 84.2084 244.034C80.5553 243.628 79.1535 240.529 78.7712 237.437C78.3403 233.986 78.3767 230.403 78.7712 226.946C79.3719 221.749 81.7689 216.74 87.5946 217.456C93.5841 218.19 91.6361 224.181 92.3218 229.129Z" fill="#3A0888"/>
<path d="M136.098 228.941C136.389 227.031 136.414 224.314 137.281 221.907C138.222 219.293 140.595 217.777 143.453 217.704C146.487 217.626 148.356 219.584 149.297 222.204C150.984 226.885 150.838 231.773 149.624 236.485C148.757 239.856 147.3 243.677 142.98 243.525C138.78 243.379 137.33 239.838 136.687 236.206C136.31 234.059 136.317 231.84 136.098 228.941Z" fill="#3A0888"/>
</g>
<defs>
<filter id="filter0_dd_14_699" x="0" y="0" width="272" height="347" filterUnits="userSpaceOnUse" color-interpolation-filters="sRGB">
<feFlood flood-opacity="0" result="BackgroundImageFix"/>
<feColorMatrix in="SourceAlpha" type="matrix" values="0 0 0 0 0 0 0 0 0 0 0 0 0 0 0 0 0 0 127 0" result="hardAlpha"/>
<feOffset dx="1.5" dy="2"/>
<feGaussianBlur stdDeviation="6"/>
<feComposite in2="hardAlpha" operator="out"/>
<feColorMatrix type="matrix" values="0 0 0 0 0 0 0 0 0 0 0 0 0 0 0 0 0 0 0.24 0"/>
<feBlend mode="normal" in2="BackgroundImageFix" result="effect1_dropShadow_14_699"/>
<feColorMatrix in="SourceAlpha" type="matrix" values="0 0 0 0 0 0 0 0 0 0 0 0 0 0 0 0 0 0 127 0" result="hardAlpha"/>
<feOffset dx="0.75" dy="1"/>
<feGaussianBlur stdDeviation="2"/>
<feComposite in2="hardAlpha" operator="out"/>
<feColorMatrix type="matrix" values="0 0 0 0 0 0 0 0 0 0 0 0 0 0 0 0 0 0 0.48 0"/>
<feBlend mode="normal" in2="effect1_dropShadow_14_699" result="effect2_dropShadow_14_699"/>
<feBlend mode="normal" in="SourceGraphic" in2="effect2_dropShadow_14_699" result="shape"/>
</filter>
</defs>
</svg>
