<svg width="288" height="294" viewBox="0 0 288 294" fill="none" xmlns="http://www.w3.org/2000/svg">
<g filter="url(#filter0_dd_14_1081)">
<path fill-rule="evenodd" clip-rule="evenodd" d="M122.817 278.624C157.036 282.362 189.018 279.425 217.507 257.967C253.234 231.051 278.541 198.79 273.965 148.229C273.965 147.431 273.971 146.443 273.978 145.318C273.995 142.347 274.018 138.418 273.955 134.489C273.201 87.2446 249.904 53.1401 211.078 28.8787C184.232 12.0986 154.573 6.96912 123.222 11.6519C105.015 14.3682 87.2693 19.1896 72.5505 30.224C55.4923 43.0145 41.1942 58.8704 30.1847 77.422C9.73538 111.901 5.5542 148.455 16.0815 186.883C20.4936 203.006 30.2462 216.212 41.1378 228.227C63.3981 252.786 87.1461 274.732 122.817 278.624ZM186.604 92.6648C187.176 95.3661 187.644 98.087 188.068 100.815C200.23 112.145 207.878 128.153 208.055 147.723C208.224 166.431 200.885 182.023 189.436 192.942L189.445 192.881C189.582 191.916 189.715 190.949 189.843 189.983C189.976 188.98 190.103 187.976 190.225 186.97C192.325 169.728 192.883 152.29 191.903 134.944C191.413 126.271 190.538 117.622 189.278 109.031C189.152 108.171 189.027 107.311 188.903 106.451C188.635 104.592 188.366 102.732 188.078 100.876C186.293 99.2085 184.41 97.6422 182.439 96.1804C182.555 96.7579 182.668 97.3353 182.779 97.9125C183.705 102.77 184.508 107.651 185.18 112.552C187.539 129.77 188.323 147.212 187.536 164.578C187.392 167.757 187.196 170.931 186.946 174.102C186.695 177.289 186.391 180.472 186.034 183.648C185.677 186.824 185.267 189.993 184.803 193.156C184.596 194.57 184.378 195.983 184.149 197.394L184.141 197.442C173.384 205.576 159.988 210.127 146.077 210.12L145.996 210.12C145.915 209.935 145.816 209.758 145.717 209.581C145.605 209.379 145.493 209.177 145.405 208.964C145.104 208.223 144.908 207.321 144.743 206.545C144.67 206.204 144.594 205.859 144.519 205.519C144.519 205.517 144.517 205.511 144.517 205.509M186.604 92.6648C186.405 91.7282 186.195 90.7891 185.97 89.8525ZM185.97 89.8525C203.689 102.589 215.186 122.766 215.29 148.357ZM215.29 148.357C215.476 171.884 204.22 191.49 187.687 203.742ZM187.687 203.742C185.964 205.019 184.185 206.215 182.355 207.328ZM182.355 207.328C171.741 213.783 159.434 217.423 146.796 217.491ZM146.796 217.491C135.504 217.55 124.922 215.665 115.439 212.094ZM115.439 212.094C114.757 211.837 114.082 211.572 113.412 211.298C113.322 211.215 113.237 211.126 113.158 211.032C112.572 210.34 112.601 209.627 112.727 208.755C112.802 208.237 112.984 207.78 113.165 207.326C113.324 206.927 113.482 206.53 113.567 206.095C113.724 205.285 113.837 204.455 113.924 203.617C115.308 204.235 116.723 204.812 118.167 205.346C125.302 207.984 133.15 209.574 141.525 210.003C140.903 209.242 140.436 208.624 140.212 207.572C140.062 206.867 139.934 206.159 139.806 205.45C139.729 205.02 139.651 204.591 139.569 204.162C139.083 201.633 138.698 199.083 138.415 196.523C138.389 196.416 138.381 196.299 138.373 196.184C138.37 196.127 138.366 196.07 138.36 196.016C138.108 193.62 137.989 191.222 137.868 188.817L137.866 188.758C137.855 188.544 137.826 188.338 137.797 188.133C137.762 187.882 137.726 187.631 137.724 187.365C137.718 186.754 137.709 186.143 137.696 185.533C137.669 184.311 137.631 183.09 137.579 181.868C137.563 181.487 137.544 181.098 137.411 180.74C137.243 180.287 136.922 179.976 136.592 179.655C136.545 179.609 136.498 179.564 136.452 179.518C136.222 179.289 135.993 179.055 135.764 178.821C135.638 178.693 135.513 178.565 135.388 178.438C134.623 177.666 133.91 176.841 133.243 175.98C130.972 173.044 129.241 169.69 127.92 166.208C123.175 153.704 123.493 138.943 128.769 126.722C130.057 123.741 131.647 120.895 133.509 118.249C134.685 116.577 135.984 114.995 137.376 113.505C138.541 112.255 139.787 111.098 141.039 109.938C141.273 109.72 141.524 109.474 141.567 109.153C141.594 108.944 141.53 108.736 141.467 108.534L141.453 108.489C141.235 107.779 141.148 107.052 141.06 106.322C141.019 105.985 140.978 105.647 140.925 105.311C140.762 104.288 140.586 103.269 140.411 102.25L140.356 101.931C140.318 101.71 140.279 101.488 140.242 101.266L140.198 101.012C139.972 99.6986 139.745 98.3839 139.898 97.0454C140.067 95.5661 140.757 94.0717 142.011 93.3117C143.332 95.0639 144.062 97.2218 144.545 99.3586C144.892 100.895 145.109 102.456 145.317 104.018C145.331 104.122 145.345 104.227 145.359 104.331" fill="#FCC803"/>
<path d="M264.7 148.049C264.7 145.343 264.772 140.311 264.689 135.274C263.992 91.3574 242.332 59.6559 206.245 37.1045C181.292 21.5105 153.721 16.7404 124.582 21.0946C107.662 23.6209 91.1629 28.0983 77.4804 38.3574C61.6227 50.2493 48.3302 64.9857 38.1004 82.228C19.0927 114.279 15.204 148.255 24.9925 183.977C29.0968 198.965 38.162 211.237 48.284 222.41C68.9744 245.238 91.05 265.638 124.207 269.258C156.015 272.735 185.74 270.003 212.222 250.055C245.43 225.039 268.953 195.047 264.7 148.049ZM206.712 245.167C182.102 263.318 154.522 264.817 125.525 261.967C93.9024 258.866 72.9094 239.272 53.3066 217.367C44.4517 207.473 36.1766 196.824 32.452 183.699C22.176 147.541 26.4393 113.395 46.9604 81.5348C55.8255 67.7687 67.2045 56.2003 79.5941 45.8899C93.2253 34.5423 110.227 30.7016 127.47 28.2112C156.451 24.0265 183.333 30.224 207.436 46.3058C237.863 66.6134 255.804 94.8439 257.312 132.245C257.574 138.709 257.348 145.189 257.348 149.528C261.211 194.051 238.31 221.855 206.712 245.167Z" fill="#3A0888"/>
<path fill-rule="evenodd" clip-rule="evenodd" d="M257.387 145.293C257.438 141.455 257.498 136.844 257.312 132.245C255.804 94.8387 237.863 66.6083 207.436 46.3058C183.333 30.224 156.451 24.0316 127.47 28.2112C110.232 30.7016 93.2304 34.5423 79.5941 45.8899C67.2045 56.2054 55.8255 67.7687 46.9604 81.5348C26.4393 113.395 22.1709 147.541 32.452 183.699C36.1817 196.818 44.4517 207.473 53.3066 217.367C72.9042 239.272 93.9024 258.871 125.525 261.967C154.527 264.817 182.107 263.318 206.712 245.167C238.31 221.86 261.222 194.041 257.359 149.518L257.348 149.528C257.348 148.277 257.367 146.848 257.387 145.293ZM186.604 92.6648C187.176 95.3661 187.644 98.087 188.068 100.815C200.23 112.145 207.878 128.153 208.055 147.723C208.224 166.431 200.885 182.023 189.436 192.942L189.445 192.881C189.582 191.916 189.715 190.949 189.843 189.983C189.976 188.98 190.103 187.976 190.225 186.97C192.325 169.728 192.883 152.29 191.903 134.944C191.413 126.271 190.538 117.622 189.278 109.031C189.152 108.171 189.027 107.311 188.903 106.451C188.635 104.592 188.366 102.732 188.078 100.876C186.293 99.2085 184.41 97.6422 182.439 96.1804C182.555 96.7579 182.668 97.3353 182.779 97.9125C183.705 102.77 184.508 107.651 185.18 112.552C187.539 129.77 188.323 147.212 187.536 164.578C187.392 167.757 187.196 170.931 186.946 174.102C186.695 177.289 186.391 180.472 186.034 183.648C185.677 186.824 185.267 189.993 184.803 193.156C184.596 194.57 184.378 195.983 184.149 197.394L184.141 197.442C173.384 205.576 159.988 210.127 146.077 210.12L145.996 210.12C145.915 209.935 145.816 209.758 145.717 209.581C145.605 209.379 145.493 209.177 145.405 208.964C145.104 208.223 144.908 207.321 144.743 206.545C144.67 206.204 144.594 205.859 144.519 205.519C144.519 205.517 144.517 205.511 144.517 205.509M186.604 92.6648C186.405 91.7282 186.195 90.7891 185.97 89.8525ZM185.97 89.8525C203.689 102.589 215.186 122.766 215.29 148.357ZM215.29 148.357C215.476 171.884 204.22 191.49 187.687 203.742ZM187.687 203.742C185.964 205.019 184.185 206.215 182.355 207.328ZM182.355 207.328C171.741 213.783 159.434 217.423 146.796 217.491ZM146.796 217.491C135.504 217.55 124.922 215.665 115.439 212.094ZM115.439 212.094C114.757 211.837 114.082 211.572 113.412 211.298C113.322 211.215 113.237 211.126 113.158 211.032C112.572 210.34 112.601 209.627 112.727 208.755C112.802 208.237 112.984 207.78 113.165 207.326C113.324 206.927 113.482 206.53 113.567 206.095C113.724 205.285 113.837 204.455 113.924 203.617C115.308 204.235 116.723 204.812 118.167 205.346C125.302 207.984 133.15 209.574 141.525 210.003C140.903 209.242 140.436 208.624 140.212 207.572C140.062 206.867 139.934 206.159 139.806 205.45C139.729 205.02 139.651 204.591 139.569 204.162C139.083 201.633 138.698 199.083 138.415 196.523C138.389 196.416 138.381 196.299 138.373 196.184C138.37 196.127 138.366 196.07 138.36 196.016C138.108 193.62 137.989 191.222 137.868 188.817L137.866 188.758C137.855 188.544 137.826 188.338 137.797 188.133C137.762 187.882 137.726 187.631 137.724 187.365C137.718 186.754 137.709 186.143 137.696 185.533C137.669 184.311 137.631 183.09 137.579 181.868C137.563 181.487 137.544 181.098 137.411 180.74C137.243 180.287 136.922 179.976 136.592 179.655C136.545 179.609 136.498 179.564 136.452 179.518C136.222 179.289 135.993 179.055 135.764 178.821C135.638 178.693 135.513 178.565 135.388 178.438C134.623 177.666 133.91 176.841 133.243 175.98C130.972 173.044 129.241 169.69 127.92 166.208C123.175 153.704 123.493 138.943 128.769 126.722C130.057 123.741 131.647 120.895 133.509 118.249C134.685 116.577 135.984 114.995 137.376 113.505C138.541 112.255 139.787 111.098 141.039 109.938C141.273 109.72 141.524 109.474 141.567 109.153C141.594 108.944 141.53 108.736 141.467 108.534L141.453 108.489C141.235 107.779 141.148 107.052 141.06 106.322C141.019 105.985 140.978 105.647 140.925 105.311C140.762 104.288 140.586 103.269 140.411 102.25L140.356 101.931C140.318 101.71 140.279 101.488 140.242 101.266L140.198 101.012C139.972 99.6986 139.745 98.3839 139.898 97.0454C140.067 95.5661 140.757 94.0717 142.011 93.3117C143.332 95.0639 144.062 97.2218 144.545 99.3586C144.892 100.895 145.109 102.456 145.317 104.018C145.331 104.122 145.345 104.227 145.359 104.331" fill="#7670C5"/>
<path fill-rule="evenodd" clip-rule="evenodd" d="M70.3034 149.995C68.7233 116.692 96.8475 72.9444 139.906 74.6697C157.201 75.36 173.201 80.6738 185.97 89.8525C186.195 90.7891 186.405 91.7282 186.604 92.6648C187.176 95.3661 187.644 98.087 188.068 100.815C175.657 89.2539 158.543 82.5656 139.869 81.938C102.007 80.0484 75.8583 120.253 77.5 149.5C79.4936 184.976 105.665 208.146 141.525 210.003C133.15 209.574 125.302 207.984 118.167 205.346C116.723 204.812 115.308 204.235 113.924 203.617C113.837 204.455 113.724 205.285 113.567 206.095C113.482 206.53 113.324 206.927 113.165 207.326C112.984 207.78 112.802 208.237 112.727 208.755C112.601 209.627 112.572 210.34 113.158 211.032C113.237 211.126 113.322 211.215 113.412 211.298C88.5309 201.123 71.6833 179.064 70.3034 149.995Z" fill="#3A0888"/>
<path d="M55.5235 128.949C56.2058 128.913 56.8881 128.789 57.5807 128.815C58.4683 128.841 59.3558 128.964 60.2177 129.18C60.7102 129.303 61.2181 129.472 61.5618 129.842C61.7927 130.089 61.9312 130.402 62.0441 130.72C62.239 131.249 62.3724 131.824 62.2801 132.379C62.0902 133.508 61.0026 134.299 59.8842 134.545C58.7658 134.792 57.6115 134.622 56.4674 134.54C55.3285 134.458 54.1178 134.479 53.1328 135.059C52.5787 135.388 52.0862 136.014 52.2658 136.63C52.3684 136.984 52.6659 137.246 52.9635 137.462C53.4201 137.791 53.9126 138.063 54.4359 138.278C56.2109 138.997 58.2169 138.961 60.0125 139.624C60.5819 139.834 61.177 140.158 61.4079 140.717C61.649 141.303 61.4182 142.006 60.9616 142.443C60.5101 142.884 59.874 143.09 59.2481 143.172C58.6222 143.254 57.986 143.218 57.355 143.238C56.6214 143.264 55.8929 143.372 55.1849 143.557C54.6565 143.695 54.0511 143.968 53.9587 144.507C53.8561 145.102 54.441 145.58 54.9899 145.837C55.8723 146.247 56.9087 146.242 57.7141 146.72C58.3862 147.115 59.0736 147.5 59.679 147.993C61.0591 149.128 61.1206 150.555 60.0843 151.988C59.0531 153.415 57.3499 153.713 55.703 153.523C53.7535 153.302 51.8399 152.578 49.952 152.06C46.9457 151.233 43.8162 150.201 41.7128 147.896C41.0458 147.166 40.4815 146.217 40.6354 145.241C40.815 144.116 41.8975 143.346 42.9799 143.002C44.0676 142.658 45.2321 142.597 46.2941 142.191C46.6481 142.057 46.9918 141.878 47.2432 141.595C47.4638 141.349 47.5921 141.036 47.6793 140.717C47.9307 139.788 47.7973 138.766 47.3253 137.929C46.3762 136.25 44.3497 135.588 42.7388 134.53C42.3335 134.263 41.9334 133.95 41.723 133.508C41.3075 132.646 41.7795 131.573 42.5336 130.987C43.2929 130.407 44.2625 130.202 45.1962 130.012C46.8636 129.673 48.454 129.365 50.1469 129.252C51.7989 129.144 53.4611 128.938 55.1079 128.959C55.2413 128.959 55.3798 128.959 55.5132 128.949H55.5235Z" fill="#3A0888"/>
<path d="M67.8465 98.7258C65.5327 97.9453 63.5165 96.3792 61.7517 94.6643C60.8385 93.776 59.9715 92.8312 59.3097 91.7427C58.1707 89.8685 57.6988 87.6298 57.8116 85.4424C57.8475 84.7749 57.9348 84.1074 58.1143 83.4656C58.5145 82.0433 59.3661 80.8058 60.3306 79.7019C61.3361 78.5517 62.2493 77.5761 63.732 77.0934C64.4656 76.8521 65.2659 76.7289 66.0149 76.9189C66.764 77.114 67.4514 77.6736 67.631 78.4284C67.7387 78.8751 67.6618 79.3475 67.5181 79.7788C67.1282 80.9752 66.2817 81.9611 65.5378 82.9727C64.7939 83.9893 64.1065 85.1446 64.1321 86.4026C64.1321 86.6645 64.1783 86.9366 64.3219 87.1574C64.5682 87.5271 65.0504 87.6606 65.4917 87.6452C66.1124 87.6247 66.7229 87.3525 67.159 86.9006C67.5335 86.5104 67.7695 86.0123 68.0568 85.5502C68.4877 84.857 69.0623 84.2307 69.7908 83.861C70.5193 83.4913 71.4171 83.4039 72.1559 83.7531C73.1255 84.2101 73.6591 85.4321 73.3359 86.4591C73.1255 87.1266 72.6176 87.6554 72.0994 88.1278C71.5813 88.6002 71.0272 89.0572 70.6732 89.6631C70.3192 90.269 70.2115 91.0803 70.6117 91.6553C71.0118 92.2356 71.8122 92.4153 72.5099 92.3075C73.1101 92.215 73.6796 91.9429 74.1259 91.5373C74.6389 91.0751 74.9827 90.4538 75.4136 89.9147C75.8446 89.3704 76.414 88.8724 77.1066 88.8159C77.5581 88.78 78.0095 88.9391 78.3994 89.1702C78.7688 89.3858 79.1023 89.6785 79.3024 90.0533C79.995 91.3781 78.8919 93.1341 78.1737 94.2278C77.594 95.1059 77.1271 96.1071 76.3422 96.8106C75.6547 97.4267 75.0648 98.0275 74.2183 98.4434C72.5714 99.2547 70.6117 99.4087 68.8315 98.998C68.498 98.9209 68.1645 98.8285 67.8413 98.7155L67.8465 98.7258Z" fill="#3A0888"/>
<path d="M64.4296 167.089C64.4552 166.642 64.4758 167.731 64.3167 168.793C63.9371 171.386 63.2086 174.046 60.0021 173.933C58.9915 173.897 58.0988 173.492 57.632 172.562C57.0471 171.397 57.2267 170.241 57.714 169.06C58.068 168.198 58.5298 167.381 58.8171 166.493C59.1044 165.605 59.2018 164.614 58.8273 163.761C58.6785 163.428 58.4477 163.114 58.1142 162.955C57.8115 162.812 57.4575 162.817 57.1292 162.883C56.2468 163.058 55.4619 163.674 55.0822 164.491C54.8514 164.989 54.7641 165.538 54.6821 166.077C54.5589 166.904 54.4307 167.731 54.287 168.552C53.9484 170.478 52.907 172.413 51.1678 173.425C49.3466 174.483 47.2175 173.928 45.4629 173.004C42.0359 171.202 39.9479 166.801 40.266 163.007C40.3275 162.267 40.5225 161.589 40.6815 160.876C40.8662 160.059 40.9842 159.171 41.5434 158.509C42.0923 157.862 43.0004 157.564 43.8418 157.703C44.678 157.841 45.4219 158.396 45.858 159.125C46.2684 159.813 46.412 160.624 46.7045 161.374C46.9918 162.124 47.5099 162.868 48.2897 163.058C48.8848 163.202 49.5261 162.976 50.0032 162.596C50.4804 162.216 50.8189 161.682 51.1165 161.143C51.804 159.885 52.3016 158.519 53.0917 157.328C53.8817 156.136 55.0617 155.084 56.4828 154.914C56.6983 154.889 56.9189 154.884 57.1343 154.93C57.396 154.981 57.6422 155.11 57.8833 155.233C58.1091 155.233 58.54 155.572 58.7504 155.674C59.089 155.849 59.4327 156.018 59.7713 156.198C60.1766 156.414 60.5562 156.67 60.9153 156.953C61.5874 157.482 62.1774 158.103 62.6648 158.812C63.7267 160.367 64.1987 162.231 64.368 164.09C64.4604 165.091 64.4655 166.098 64.4296 167.104V167.089Z" fill="#3A0888"/>
<path d="M67.8303 103.835C68.1074 104.159 68.2972 104.549 68.41 104.96C68.7948 106.356 68.3228 107.835 67.7995 109.19C67.3635 110.32 66.6452 111.501 66.3733 112.677C66.1938 113.463 66.1373 114.171 65.768 114.921C64.9882 116.497 63.5465 117 61.8587 116.738C59.8014 116.415 57.8006 115.747 55.9794 114.731C55.1278 114.258 54.3736 113.735 53.5015 113.298C52.5883 112.836 51.711 112.307 50.8799 111.717C50.1411 111.198 49.428 110.628 48.8842 109.904C48.3404 109.185 47.9813 108.292 48.0326 107.393C48.0839 106.49 48.5969 105.591 49.4178 105.221C49.9462 104.98 50.5515 104.97 51.1261 105.042C52.2548 105.18 53.3219 105.617 54.3736 106.048C55.0508 106.325 55.728 106.603 56.4103 106.88C57.9289 107.501 59.8938 108.405 61.479 107.409C62.6436 106.68 62.9412 105.119 63.8441 104.087C64.311 103.558 64.9471 103.173 65.6448 103.065C66.3425 102.957 67.0864 103.142 67.6149 103.609C67.6969 103.681 67.7636 103.753 67.8303 103.835Z" fill="#3A0888"/>
<path d="M61.428 127.033C60.3045 127.336 59.1194 127.239 58.0215 126.859C54.0507 125.493 49.5771 123.809 45.7396 121C43.6157 119.444 44.4211 117.164 46.9042 116.163C49.6489 115.054 61.6281 119.573 63.1928 122.309C63.6494 123.11 63.7623 124.389 63.4801 125.272C63.1774 126.212 62.49 126.751 61.428 127.033Z" fill="#3A0888"/>
<path d="M232.42 90.9569C232.087 94.4793 230.06 96.4665 226.869 96.4254C223.796 96.3843 221.18 94.6077 221.251 91.2137C221.318 87.9891 223.658 85.925 226.813 85.7864C230.163 85.6374 231.835 87.9583 232.42 90.9569Z" fill="#F7F7F7"/>
<path d="M65.5835 200.136C64.819 203.098 63.48 205.558 60.012 205.332C56.5439 205.106 55.0612 202.698 55.5076 199.53C55.9539 196.387 58.0522 194.498 61.4125 194.996C64.2085 195.412 65.5527 197.332 65.5835 200.136Z" fill="#F7F7F7"/>
<path d="M202.762 227.319C202.742 230.22 201.731 232.448 198.73 232.792C195.401 233.172 193.179 231.544 192.943 228.089C192.753 225.316 194.103 223.036 196.919 222.605C200.331 222.086 202.09 224.258 202.762 227.319Z" fill="#F7F7F7"/>
<path d="M91.0811 68.9755C88.2646 68.5442 86.5511 66.9884 86.6127 64.0925C86.664 61.6946 88.1517 60.1388 90.5168 59.9334C93.4154 59.6818 95.2674 61.3043 95.4778 64.1335C95.6984 67.05 93.8823 68.575 91.0811 68.9755Z" fill="#F7F7F7"/>
<path d="M160.673 57.438C160.688 58.1209 160.791 58.809 160.75 59.5021C160.699 60.3904 160.55 61.2736 160.314 62.1311C160.175 62.6189 159.996 63.1221 159.616 63.461C159.365 63.6818 159.047 63.8152 158.729 63.9231C158.195 64.1028 157.62 64.2209 157.066 64.1131C155.943 63.8923 155.184 62.7781 154.968 61.6536C154.753 60.5291 154.958 59.3738 155.071 58.239C155.184 57.0991 155.199 55.8873 154.645 54.8861C154.332 54.3213 153.721 53.8129 153.096 53.9772C152.742 54.0696 152.47 54.3572 152.244 54.6499C151.9 55.0966 151.613 55.5844 151.392 56.0978C150.623 57.8539 150.602 59.8616 149.894 61.6433C149.669 62.2081 149.33 62.7935 148.76 63.0092C148.17 63.2351 147.473 62.9834 147.047 62.5162C146.621 62.0489 146.431 61.4122 146.37 60.7807C146.308 60.1542 146.36 59.5176 146.354 58.886C146.349 58.1517 146.262 57.4175 146.098 56.7038C145.975 56.1698 145.723 55.5587 145.185 55.4509C144.595 55.3328 144.097 55.9027 143.825 56.4419C143.389 57.3096 143.369 58.352 142.866 59.1427C142.45 59.8 142.05 60.4829 141.537 61.0734C140.362 62.4238 138.941 62.4443 137.535 61.366C136.14 60.298 135.889 58.583 136.125 56.9399C136.396 54.9939 137.176 53.1043 137.746 51.225C138.654 48.2367 139.772 45.1405 142.132 43.102C142.881 42.455 143.841 41.9159 144.815 42.0956C145.934 42.3062 146.672 43.4101 146.985 44.5038C147.298 45.5975 147.329 46.7682 147.704 47.8465C147.827 48.2007 147.996 48.555 148.273 48.8118C148.514 49.0377 148.822 49.1763 149.14 49.2739C150.058 49.5512 151.084 49.4485 151.936 49.0018C153.639 48.098 154.352 46.0904 155.461 44.5089C155.738 44.1084 156.066 43.7233 156.507 43.523C157.379 43.1328 158.441 43.6309 159.001 44.4062C159.56 45.1816 159.739 46.1572 159.903 47.0968C160.196 48.7758 160.457 50.3778 160.524 52.0671C160.586 53.7256 160.74 55.3893 160.678 57.0375C160.673 57.171 160.668 57.3045 160.673 57.438Z" fill="#3A0888"/>
<path d="M190.516 70.6134C191.363 68.3182 192.979 66.3464 194.744 64.6315C195.657 63.7432 196.627 62.9011 197.73 62.2695C199.633 61.181 201.885 60.7702 204.065 60.9448C204.732 60.9961 205.394 61.1039 206.03 61.3042C207.441 61.7458 208.652 62.6289 209.729 63.6251C210.853 64.6623 211.797 65.6071 212.243 67.1013C212.464 67.8458 212.566 68.6468 212.351 69.3913C212.135 70.1358 211.556 70.8085 210.801 70.9625C210.355 71.055 209.883 70.9625 209.452 70.8136C208.267 70.3926 207.308 69.5197 206.318 68.7443C205.327 67.969 204.189 67.2502 202.926 67.2399C202.665 67.2399 202.388 67.2707 202.167 67.4093C201.793 67.6404 201.644 68.123 201.649 68.5646C201.649 69.1859 201.911 69.8072 202.342 70.254C202.721 70.6391 203.214 70.8906 203.665 71.1884C204.348 71.6403 204.958 72.2308 205.307 72.9702C205.656 73.7095 205.717 74.6082 205.348 75.3373C204.861 76.2923 203.624 76.7955 202.614 76.4412C201.952 76.2101 201.439 75.6864 200.982 75.1575C200.526 74.6287 200.084 74.0587 199.489 73.689C198.894 73.3193 198.089 73.191 197.504 73.5709C196.914 73.956 196.709 74.7519 196.796 75.4554C196.873 76.0561 197.124 76.6363 197.519 77.0933C197.966 77.6222 198.576 77.9816 199.104 78.4283C199.633 78.875 200.115 79.4604 200.156 80.1536C200.182 80.6055 200.007 81.0522 199.766 81.4373C199.541 81.7967 199.243 82.1304 198.858 82.3153C197.514 82.9725 195.79 81.8172 194.723 81.0675C193.861 80.4668 192.876 79.9687 192.194 79.1677C191.599 78.4643 191.014 77.8533 190.624 77.0009C189.865 75.327 189.762 73.3656 190.219 71.5992C190.306 71.2655 190.409 70.9368 190.527 70.6185L190.516 70.6134Z" fill="#3A0888"/>
<path d="M122.33 65.2839C122.776 65.3198 121.688 65.3096 120.632 65.1247C118.056 64.6729 115.419 63.8667 115.619 60.6678C115.681 59.6563 116.112 58.7782 117.056 58.3367C118.236 57.7821 119.385 57.9978 120.549 58.5164C121.401 58.8964 122.207 59.379 123.084 59.6922C123.961 60.0054 124.951 60.1338 125.813 59.7795C126.152 59.6409 126.47 59.415 126.639 59.0915C126.788 58.7937 126.793 58.4394 126.742 58.1108C126.593 57.2225 125.998 56.4215 125.198 56.0158C124.71 55.7694 124.161 55.6718 123.623 55.5743C122.802 55.4254 121.981 55.2764 121.16 55.1121C119.246 54.7219 117.343 53.6231 116.384 51.8516C115.378 50.0031 115.994 47.8825 116.963 46.1572C118.856 42.7786 123.31 40.8172 127.096 41.2382C127.829 41.3204 128.501 41.5309 129.215 41.7157C130.025 41.9211 130.908 42.0649 131.559 42.6451C132.19 43.21 132.462 44.1291 132.298 44.966C132.134 45.803 131.564 46.5269 130.825 46.9429C130.128 47.3331 129.312 47.4563 128.558 47.7233C127.804 47.9903 127.044 48.4884 126.834 49.2637C126.675 49.8542 126.88 50.5012 127.25 50.9941C127.619 51.487 128.137 51.8362 128.671 52.1494C129.907 52.8734 131.256 53.4074 132.426 54.2289C133.596 55.0556 134.612 56.2623 134.74 57.6898C134.76 57.9054 134.755 58.1261 134.709 58.3367C134.647 58.5985 134.519 58.8399 134.386 59.0761C134.381 59.302 134.032 59.7231 133.919 59.9285C133.734 60.2622 133.555 60.6062 133.365 60.9348C133.139 61.3353 132.872 61.705 132.58 62.0593C132.031 62.7165 131.395 63.2916 130.677 63.7538C129.097 64.7756 127.219 65.1915 125.362 65.3096C124.361 65.3712 123.351 65.3506 122.35 65.2839H122.33Z" fill="#3A0888"/>
<path d="M185.411 70.4543C185.083 70.7214 184.683 70.901 184.272 70.9986C182.867 71.3426 181.399 70.8292 180.065 70.2695C178.947 69.8023 177.788 69.0525 176.623 68.7496C175.843 68.5494 175.14 68.4724 174.402 68.0821C172.852 67.2555 172.385 65.8023 172.698 64.1181C173.078 62.0694 173.801 60.0874 174.863 58.2954C175.361 57.4585 175.9 56.7139 176.367 55.8564C176.854 54.9579 177.408 54.0952 178.018 53.2737C178.557 52.5497 179.147 51.8514 179.881 51.3277C180.614 50.804 181.512 50.4702 182.415 50.5421C183.313 50.6191 184.195 51.1531 184.544 51.9849C184.77 52.5189 184.765 53.1248 184.678 53.6999C184.508 54.8244 184.041 55.877 183.585 56.9194C183.287 57.592 182.99 58.2595 182.697 58.9321C182.035 60.4366 181.076 62.3775 182.025 63.9898C182.723 65.1707 184.272 65.5148 185.278 66.4493C185.796 66.9268 186.16 67.5789 186.247 68.2773C186.335 68.9756 186.129 69.7201 185.647 70.2335C185.575 70.3106 185.493 70.3876 185.411 70.4543Z" fill="#3A0888"/>
<path d="M162.417 63.3992C162.151 62.2696 162.279 61.0835 162.684 59.9949C164.156 56.0566 165.967 51.6305 168.876 47.8668C170.487 45.7873 172.745 46.655 173.673 49.171C174.704 51.9488 169.861 63.8048 167.081 65.2939C166.27 65.7303 164.988 65.8073 164.115 65.4993C163.187 65.1706 162.674 64.4723 162.417 63.3992Z" fill="#3A0888"/>
<path d="M231.804 162.432C231.122 162.427 230.429 162.504 229.742 162.442C228.854 162.36 227.982 162.185 227.131 161.918C226.648 161.764 226.151 161.569 225.828 161.179C225.612 160.922 225.494 160.599 225.397 160.275C225.238 159.736 225.135 159.156 225.263 158.606C225.52 157.492 226.659 156.768 227.787 156.588C228.916 156.409 230.065 156.65 231.194 156.804C232.323 156.958 233.533 157.009 234.554 156.491C235.129 156.198 235.657 155.603 235.514 154.971C235.432 154.612 235.154 154.334 234.867 154.098C234.431 153.744 233.954 153.436 233.451 153.194C231.722 152.368 229.722 152.28 227.967 151.515C227.408 151.274 226.838 150.915 226.643 150.34C226.438 149.744 226.715 149.051 227.192 148.64C227.669 148.229 228.316 148.06 228.947 148.019C229.578 147.978 230.209 148.049 230.84 148.065C231.574 148.08 232.307 148.019 233.025 147.88C233.564 147.777 234.18 147.541 234.308 147.007C234.447 146.417 233.892 145.908 233.359 145.616C232.507 145.148 231.466 145.092 230.691 144.568C230.045 144.132 229.378 143.706 228.808 143.177C227.5 141.96 227.526 140.532 228.649 139.161C229.763 137.801 231.481 137.611 233.118 137.893C235.052 138.232 236.914 139.069 238.771 139.706C241.726 140.712 244.784 141.934 246.739 144.363C247.359 145.133 247.867 146.114 247.652 147.079C247.406 148.193 246.277 148.892 245.174 149.174C244.071 149.451 242.901 149.441 241.814 149.78C241.454 149.893 241.095 150.047 240.829 150.314C240.598 150.545 240.444 150.853 240.341 151.166C240.033 152.075 240.1 153.107 240.521 153.97C241.362 155.705 243.348 156.486 244.892 157.641C245.282 157.934 245.656 158.273 245.841 158.719C246.2 159.602 245.666 160.65 244.876 161.184C244.086 161.718 243.101 161.867 242.157 161.995C240.469 162.231 238.864 162.442 237.171 162.452C235.514 162.462 233.846 162.56 232.205 162.442C232.071 162.432 231.938 162.432 231.804 162.432Z" fill="#3A0888"/>
<path d="M217.66 191.848C219.923 192.767 221.841 194.451 223.493 196.274C224.35 197.214 225.161 198.215 225.751 199.34C226.772 201.281 227.11 203.545 226.864 205.722C226.787 206.384 226.664 207.047 226.443 207.678C225.956 209.075 225.032 210.256 224.006 211.303C222.934 212.392 221.959 213.306 220.451 213.701C219.702 213.896 218.897 213.974 218.163 213.737C217.429 213.501 216.778 212.895 216.644 212.135C216.568 211.683 216.67 211.216 216.839 210.79C217.301 209.619 218.204 208.69 219.01 207.719C219.815 206.754 220.569 205.64 220.626 204.382C220.636 204.12 220.615 203.843 220.482 203.617C220.261 203.237 219.784 203.073 219.343 203.062C218.722 203.047 218.096 203.278 217.635 203.699C217.234 204.064 216.973 204.551 216.66 204.988C216.188 205.655 215.577 206.246 214.828 206.569C214.079 206.893 213.176 206.924 212.458 206.533C211.519 206.015 211.063 204.762 211.447 203.761C211.699 203.108 212.238 202.61 212.786 202.169C213.33 201.727 213.91 201.306 214.3 200.721C214.69 200.136 214.844 199.335 214.485 198.734C214.12 198.128 213.33 197.902 212.627 197.964C212.022 198.02 211.437 198.256 210.965 198.631C210.421 199.062 210.042 199.658 209.58 200.177C209.118 200.695 208.518 201.157 207.826 201.168C207.374 201.178 206.933 200.988 206.558 200.736C206.204 200.5 205.886 200.187 205.712 199.797C205.101 198.431 206.312 196.747 207.092 195.699C207.723 194.857 208.251 193.887 209.077 193.234C209.801 192.659 210.427 192.095 211.294 191.735C212.987 191.027 214.951 190.991 216.701 191.509C217.029 191.607 217.352 191.72 217.671 191.848H217.66Z" fill="#3A0888"/>
<path d="M225.238 123.819C225.187 124.266 225.238 123.177 225.453 122.124C225.992 119.562 226.88 116.949 230.071 117.262C231.076 117.359 231.943 117.822 232.354 118.777C232.867 119.978 232.615 121.118 232.056 122.268C231.651 123.105 231.138 123.896 230.799 124.764C230.455 125.631 230.296 126.617 230.625 127.49C230.753 127.834 230.963 128.163 231.287 128.337C231.579 128.497 231.933 128.517 232.261 128.471C233.154 128.348 233.975 127.783 234.401 126.992C234.662 126.509 234.78 125.97 234.893 125.431C235.068 124.615 235.242 123.798 235.437 122.982C235.888 121.082 237.048 119.213 238.849 118.309C240.731 117.365 242.825 118.047 244.518 119.074C247.827 121.082 249.643 125.601 249.099 129.369C248.991 130.104 248.76 130.766 248.555 131.469C248.319 132.276 248.15 133.154 247.55 133.78C246.965 134.396 246.036 134.632 245.21 134.442C244.384 134.252 243.676 133.657 243.281 132.902C242.912 132.188 242.819 131.372 242.573 130.607C242.332 129.842 241.86 129.066 241.096 128.83C240.511 128.651 239.854 128.83 239.357 129.19C238.854 129.544 238.484 130.052 238.156 130.571C237.392 131.783 236.817 133.118 235.955 134.258C235.093 135.403 233.852 136.378 232.42 136.455C232.205 136.466 231.984 136.455 231.774 136.404C231.512 136.332 231.276 136.193 231.045 136.06C230.82 136.045 230.409 135.685 230.209 135.562C229.881 135.367 229.547 135.177 229.219 134.976C228.829 134.735 228.465 134.458 228.121 134.15C227.485 133.58 226.931 132.923 226.49 132.188C225.52 130.571 225.171 128.681 225.115 126.818C225.084 125.811 225.135 124.805 225.238 123.809V123.819Z" fill="#3A0888"/>
<path d="M217.988 186.744C217.732 186.405 217.568 186 217.48 185.584C217.183 184.167 217.742 182.719 218.347 181.399C218.85 180.3 219.64 179.166 219.979 178.005C220.205 177.23 220.307 176.531 220.723 175.802C221.595 174.277 223.067 173.861 224.735 174.226C226.766 174.673 228.726 175.463 230.481 176.588C231.301 177.112 232.025 177.676 232.866 178.169C233.749 178.683 234.59 179.268 235.39 179.905C236.093 180.47 236.775 181.081 237.273 181.836C237.771 182.59 238.079 183.499 237.971 184.393C237.868 185.291 237.299 186.154 236.457 186.477C235.914 186.683 235.308 186.657 234.739 186.554C233.62 186.344 232.584 185.846 231.563 185.353C230.901 185.034 230.245 184.716 229.583 184.398C228.105 183.684 226.197 182.662 224.555 183.561C223.349 184.218 222.96 185.758 221.99 186.734C221.492 187.232 220.831 187.581 220.133 187.643C219.43 187.71 218.696 187.473 218.199 186.98C218.122 186.903 218.055 186.832 217.988 186.744Z" fill="#3A0888"/>
<path d="M225.792 163.977C226.931 163.746 228.111 163.916 229.183 164.357C233.067 165.959 237.428 167.916 241.085 170.955C243.112 172.634 242.168 174.863 239.628 175.71C236.822 176.65 225.141 171.412 223.745 168.583C223.335 167.756 223.304 166.473 223.643 165.61C224.002 164.691 224.715 164.193 225.792 163.977Z" fill="#3A0888"/>
<path d="M126.726 233.044C126.696 232.361 126.578 231.673 126.603 230.985C126.639 230.096 126.762 229.208 126.988 228.351C127.116 227.858 127.286 227.354 127.655 227.01C127.901 226.784 128.219 226.646 128.532 226.533C129.066 226.343 129.635 226.215 130.189 226.312C131.313 226.507 132.098 227.606 132.339 228.725C132.58 229.845 132.4 231.005 132.308 232.145C132.216 233.285 132.231 234.497 132.801 235.488C133.124 236.047 133.745 236.54 134.365 236.366C134.719 236.268 134.981 235.97 135.202 235.673C135.535 235.221 135.812 234.728 136.028 234.209C136.761 232.438 136.741 230.43 137.408 228.633C137.618 228.063 137.946 227.472 138.511 227.247C139.095 227.01 139.798 227.247 140.234 227.704C140.67 228.161 140.876 228.797 140.947 229.424C141.024 230.05 140.983 230.687 141.004 231.318C141.024 232.053 141.127 232.782 141.307 233.496C141.44 234.024 141.707 234.63 142.245 234.728C142.841 234.836 143.323 234.25 143.584 233.706C144.005 232.828 144.005 231.786 144.487 230.985C144.888 230.317 145.277 229.629 145.775 229.028C146.919 227.652 148.345 227.601 149.772 228.648C151.188 229.691 151.475 231.395 151.275 233.044C151.044 234.995 150.305 236.905 149.772 238.789C148.925 241.793 147.873 244.915 145.554 247.005C144.821 247.667 143.872 248.227 142.897 248.068C141.773 247.883 141.014 246.794 140.676 245.706C140.337 244.617 140.286 243.452 139.891 242.384C139.757 242.029 139.583 241.68 139.301 241.429C139.054 241.208 138.741 241.074 138.423 240.987C137.5 240.73 136.474 240.854 135.638 241.321C133.955 242.255 133.278 244.283 132.211 245.885C131.939 246.291 131.626 246.686 131.185 246.892C130.323 247.303 129.25 246.825 128.671 246.06C128.091 245.295 127.896 244.325 127.711 243.385C127.383 241.711 127.085 240.119 126.988 238.425C126.891 236.766 126.701 235.108 126.731 233.46C126.731 233.326 126.731 233.187 126.726 233.054V233.044Z" fill="#3A0888"/>
<path d="M96.6119 220.5C95.8167 222.81 94.2366 224.818 92.5077 226.569C91.615 227.473 90.6608 228.34 89.5732 228.992C87.6955 230.117 85.4536 230.579 83.2681 230.451C82.6011 230.41 81.9342 230.322 81.298 230.132C79.8769 229.722 78.6457 228.859 77.5529 227.888C76.4089 226.877 75.4444 225.953 74.9673 224.464C74.7313 223.724 74.6133 222.928 74.8082 222.179C75.0032 221.429 75.5726 220.746 76.3268 220.577C76.7731 220.474 77.2451 220.556 77.676 220.7C78.8714 221.095 79.8462 221.948 80.8568 222.702C81.8675 223.457 83.0167 224.15 84.2736 224.135C84.5352 224.135 84.8123 224.094 85.0329 223.95C85.4022 223.709 85.5408 223.226 85.5254 222.785C85.51 222.163 85.2381 221.547 84.7969 221.111C84.4121 220.731 83.9145 220.495 83.4579 220.202C82.7653 219.765 82.1445 219.185 81.7803 218.456C81.416 217.722 81.3339 216.823 81.693 216.089C82.1599 215.124 83.386 214.595 84.4018 214.928C85.0688 215.144 85.5921 215.658 86.064 216.176C86.5309 216.7 86.9875 217.255 87.5877 217.614C88.188 217.973 88.9986 218.086 89.5783 217.691C90.1632 217.291 90.3478 216.495 90.2452 215.796C90.158 215.196 89.8912 214.626 89.4911 214.174C89.0294 213.655 88.4189 213.306 87.875 212.875C87.3312 212.443 86.8387 211.863 86.7874 211.175C86.7515 210.723 86.9157 210.277 87.1517 209.886C87.3723 209.522 87.6647 209.183 88.0392 208.988C89.368 208.305 91.1174 209.424 92.1999 210.148C93.072 210.734 94.0724 211.206 94.7701 211.997C95.3806 212.69 95.9758 213.286 96.3862 214.133C97.1814 215.786 97.325 217.748 96.9043 219.524C96.8274 219.858 96.7299 220.186 96.617 220.51L96.6119 220.5Z" fill="#3A0888"/>
<path d="M164.896 224.402C164.449 224.371 165.537 224.361 166.599 224.525C169.184 224.926 171.837 225.67 171.703 228.88C171.662 229.891 171.247 230.779 170.318 231.241C169.149 231.822 167.999 231.632 166.819 231.134C165.963 230.774 165.147 230.302 164.265 230.009C163.382 229.716 162.387 229.609 161.535 229.978C161.202 230.122 160.884 230.353 160.725 230.682C160.581 230.985 160.581 231.334 160.643 231.662C160.812 232.546 161.422 233.336 162.233 233.721C162.725 233.958 163.274 234.045 163.813 234.132C164.639 234.266 165.465 234.394 166.286 234.543C168.205 234.892 170.134 235.95 171.134 237.701C172.181 239.529 171.606 241.66 170.672 243.406C168.851 246.82 164.439 248.879 160.648 248.54C159.914 248.473 159.237 248.273 158.519 248.109C157.703 247.919 156.815 247.791 156.159 247.226C155.512 246.671 155.225 245.757 155.369 244.92C155.512 244.083 156.071 243.344 156.8 242.913C157.493 242.507 158.303 242.368 159.052 242.081C159.801 241.798 160.55 241.285 160.745 240.504C160.894 239.909 160.673 239.267 160.294 238.784C159.914 238.302 159.386 237.958 158.852 237.66C157.6 236.961 156.241 236.458 155.051 235.657C153.86 234.856 152.824 233.67 152.665 232.243C152.639 232.027 152.639 231.806 152.686 231.596C152.742 231.334 152.865 231.087 152.993 230.851C152.993 230.625 153.337 230.194 153.445 229.989C153.624 229.65 153.794 229.306 153.978 228.967C154.199 228.561 154.455 228.186 154.743 227.827C155.276 227.159 155.902 226.569 156.61 226.091C158.17 225.039 160.037 224.582 161.894 224.428C162.895 224.346 163.9 224.34 164.906 224.387L164.896 224.402Z" fill="#3A0888"/>
<path d="M101.721 220.551C102.044 220.279 102.439 220.089 102.85 219.981C104.25 219.606 105.722 220.089 107.072 220.623C108.195 221.07 109.37 221.794 110.545 222.071C111.33 222.256 112.033 222.317 112.782 222.692C114.352 223.483 114.844 224.931 114.567 226.62C114.234 228.674 113.546 230.672 112.52 232.489C112.043 233.336 111.515 234.091 111.068 234.959C110.601 235.868 110.063 236.741 109.473 237.573C108.949 238.307 108.375 239.02 107.651 239.56C106.928 240.099 106.035 240.453 105.138 240.397C104.235 240.34 103.342 239.822 102.978 238.995C102.742 238.466 102.737 237.86 102.809 237.285C102.957 236.155 103.398 235.092 103.835 234.045L104.681 232.012C105.312 230.497 106.23 228.536 105.245 226.939C104.527 225.768 102.968 225.46 101.941 224.551C101.418 224.084 101.033 223.442 100.931 222.744C100.828 222.045 101.018 221.301 101.49 220.772C101.562 220.695 101.644 220.618 101.721 220.551Z" fill="#3A0888"/>
<path d="M124.853 227.123C125.146 228.248 125.038 229.439 124.653 230.533C123.263 234.502 121.544 238.964 118.712 242.784C117.148 244.9 114.87 244.073 113.89 241.583C112.802 238.825 117.399 226.872 120.144 225.326C120.949 224.874 122.227 224.772 123.104 225.059C124.038 225.367 124.576 226.055 124.853 227.123Z" fill="#3A0888"/>
<path fill-rule="evenodd" clip-rule="evenodd" d="M77.4447 149.5C78.8796 175.034 92.8406 194.192 113.924 203.617C115.308 204.235 116.723 204.812 118.167 205.346C125.302 207.984 133.15 209.574 141.525 210.003C140.903 209.242 140.436 208.624 140.212 207.572C140.062 206.867 139.934 206.159 139.806 205.45C139.729 205.02 139.651 204.591 139.569 204.162C139.083 201.633 138.698 199.083 138.415 196.523C138.389 196.416 138.381 196.299 138.373 196.184C138.37 196.127 138.366 196.07 138.36 196.016C138.108 193.62 137.989 191.222 137.868 188.817L137.866 188.758C137.855 188.544 137.826 188.338 137.797 188.133C137.762 187.882 137.726 187.631 137.724 187.365C137.718 186.754 137.709 186.143 137.696 185.533C137.669 184.311 137.631 183.09 137.579 181.868C137.563 181.487 137.544 181.098 137.411 180.74C137.243 180.287 136.922 179.976 136.592 179.655C136.545 179.609 136.498 179.564 136.452 179.518C136.222 179.289 135.993 179.055 135.764 178.821C135.638 178.693 135.513 178.565 135.388 178.438C134.623 177.666 133.91 176.841 133.243 175.98C130.972 173.044 129.241 169.69 127.92 166.208C123.175 153.704 123.493 138.943 128.769 126.722C130.057 123.741 131.647 120.895 133.509 118.249C134.685 116.577 135.984 114.995 137.376 113.505C138.541 112.255 139.787 111.098 141.039 109.938C141.273 109.72 141.524 109.474 141.567 109.153C141.594 108.944 141.53 108.736 141.467 108.534L141.453 108.489C141.235 107.779 141.148 107.052 141.06 106.322C141.019 105.985 140.978 105.647 140.925 105.311C140.762 104.288 140.586 103.269 140.411 102.25L140.356 101.931C140.318 101.71 140.279 101.488 140.242 101.266L140.198 101.012C139.972 99.6986 139.745 98.3839 139.898 97.0454C140.067 95.5661 140.757 94.0717 142.011 93.3117C143.332 95.0639 144.062 97.2218 144.545 99.3586C144.915 100.997 145.137 102.665 145.359 104.331L145.424 104.819L145.469 105.151C145.519 105.52 145.622 105.957 145.968 106.077C146.241 106.17 146.53 106.012 146.778 105.861C149.366 104.285 152.191 102.84 155.118 102.059C156.555 101.675 158.059 101.494 159.533 101.688C159.786 101.722 160.05 101.773 160.243 101.942C160.478 102.147 160.556 102.495 160.509 102.807C160.462 103.119 160.309 103.404 160.144 103.671C159.546 104.638 158.758 105.481 157.84 106.134C156.853 106.837 155.774 107.222 154.682 107.612C154.172 107.794 153.66 107.977 153.152 108.194C151.528 108.889 149.942 109.718 148.434 110.649C145.363 112.541 142.573 114.903 140.144 117.596C137.637 120.374 135.512 123.509 133.832 126.874C133.481 127.579 133.149 128.292 132.838 129.014C128.143 139.89 127.861 153.023 132.083 164.148C133.789 168.642 136.952 174.62 142.339 177.584C145.872 179.528 149.926 179.881 153.848 179.311C156.72 178.893 159.52 178.037 162.238 177.02C163.665 176.487 165.075 175.903 166.472 175.295C166.918 175.102 167.371 174.92 167.825 174.737C168.357 174.524 168.889 174.31 169.408 174.078C169.707 173.944 170.005 173.801 170.293 173.652C171.273 173.143 172.477 173.11 173.482 173.564C173.553 173.596 173.624 173.632 173.673 173.692C173.741 173.777 173.751 173.891 173.76 174C173.823 174.841 173.878 175.736 173.494 176.483C173.223 177.011 172.761 177.405 172.312 177.785C171.577 178.405 170.963 178.854 170.093 179.246C169.245 179.629 168.394 180.006 167.539 180.371C162.114 182.689 156.328 184.725 150.379 184.725C148.881 184.725 147.383 184.584 145.916 184.281C145.177 184.127 144.446 183.933 143.727 183.698C143.373 183.581 143.266 183.503 143.025 183.268C142.978 183.223 142.308 182.852 142.309 183.06C142.313 183.583 142.327 184.108 142.341 184.636C142.356 185.182 142.371 185.737 142.374 186.285C142.382 187.452 142.411 188.618 142.461 189.784C142.563 192.139 142.755 194.49 143.037 196.829C143.307 199.079 143.661 201.32 144.099 203.542C144.229 204.199 144.373 204.855 144.517 205.509C144.593 205.853 144.669 206.2 144.743 206.545C144.908 207.321 145.104 208.223 145.405 208.964C145.493 209.177 145.605 209.379 145.717 209.581C145.816 209.758 145.915 209.935 145.996 210.12L146.077 210.12C159.995 210.115 173.395 205.548 184.149 197.394C184.378 195.983 184.596 194.57 184.803 193.156C185.267 189.993 185.677 186.824 186.034 183.648C186.391 180.472 186.695 177.289 186.946 174.102C187.196 170.931 187.392 167.757 187.536 164.578C188.323 147.212 187.539 129.77 185.18 112.552C184.508 107.651 183.705 102.77 182.779 97.9125C182.668 97.3353 182.555 96.7579 182.439 96.1804C170.701 87.4736 155.831 82.4763 139.813 81.938C137.315 81.8133 134.867 81.8719 132.475 82.0987C130.099 82.3238 127.779 82.7147 125.518 83.2564C95.554 90.4351 76.0189 124.1 77.4447 149.5ZM189.445 192.881C200.857 181.965 208.168 166.396 208 147.723C207.823 128.188 200.202 112.202 188.078 100.876C188.366 102.732 188.635 104.592 188.903 106.451C189.027 107.311 189.152 108.171 189.278 109.031C190.538 117.622 191.413 126.271 191.903 134.944C192.883 152.29 192.325 169.728 190.225 186.97C190.103 187.976 189.976 188.98 189.843 189.983C189.715 190.949 189.582 191.916 189.445 192.881Z" fill="#FCC803"/>
<path fill-rule="evenodd" clip-rule="evenodd" d="M130.894 98.87C130.938 98.9454 130.981 99.0223 131.022 99.0992C131.183 99.4038 131.317 99.7477 131.254 100.087C131.188 100.443 130.909 100.728 130.588 100.883C130.268 101.04 129.91 101.087 129.557 101.123C128.842 101.195 128.125 101.227 127.408 101.259C126.953 101.279 126.498 101.299 126.044 101.33C124.882 101.406 123.738 101.598 122.598 101.848C120.448 102.322 118.354 103.055 116.362 104.006C114.344 104.968 112.429 106.153 110.647 107.517C108.84 108.901 107.169 110.472 105.661 112.19C104.133 113.93 102.773 115.824 101.607 117.836C100.426 119.87 99.4447 122.025 98.6906 124.261C98.1061 125.995 97.6575 127.776 97.3564 129.584C96.9801 131.848 96.8414 134.15 96.9285 136.444C97.1956 143.513 99.5716 150.542 103.699 156.228C105.643 158.907 107.994 161.297 110.709 163.155C112.715 164.527 115.09 165.974 117.476 166.374C118.127 166.483 118.778 166.592 119.428 166.701C120.079 166.81 120.73 166.919 121.381 167.029C122.007 167.133 122.755 167.345 122.917 167.971C123.093 168.644 122.17 169.254 121.336 169.805C120.874 170.111 120.439 170.398 120.233 170.669C119.399 171.765 119.124 173.204 119.074 174.592C118.972 177.442 119.047 180.296 119.121 183.151C119.189 185.758 119.257 188.367 119.191 190.974C119.099 194.585 118.894 198.194 118.575 201.792C118.47 202.98 118.328 204.164 118.167 205.346C116.723 204.812 115.308 204.235 113.924 203.617C114.041 202.49 114.111 201.35 114.18 200.223C114.214 199.663 114.249 199.105 114.288 198.556C114.656 193.454 114.78 188.336 114.675 183.223C114.655 182.234 114.656 181.238 114.657 180.24C114.66 177.895 114.663 175.536 114.387 173.232C114.321 172.679 114.228 172.11 113.938 171.637C113.716 171.27 113.388 170.985 113.062 170.712C111.825 169.676 110.504 168.792 109.186 167.909C107.449 166.747 105.718 165.587 104.191 164.088C101.22 161.172 98.7806 157.706 96.9004 153.967C93.0132 146.237 91.4651 137.212 92.8966 128.618C95.6371 112.166 108.716 98.7735 123.615 96.4105C123.183 95.1031 122.975 93.654 123.004 92.1068C123.047 89.9097 123.617 87.9463 124.366 85.903C124.673 85.0646 125.029 84.196 125.436 83.4089C125.463 83.3577 125.49 83.3068 125.518 83.2564C127.779 82.7147 130.099 82.3238 132.475 82.0987C132.295 82.547 132.05 82.9685 131.729 83.3244C131.513 83.5637 131.267 83.77 131.02 83.9762C130.769 84.1858 130.519 84.3953 130.301 84.6394C129.883 85.1068 129.606 85.6798 129.356 86.2529C129.21 86.5903 129.055 86.9228 128.9 87.255C128.795 87.4795 128.69 87.7043 128.589 87.9297C128.003 89.2251 127.573 90.6576 127.548 92.0917V92.2274C127.548 93.0387 127.635 93.8952 127.908 94.6613C128.174 95.4062 128.645 96.0562 129.144 96.6533C129.292 96.8309 129.444 97.006 129.596 97.1811C130.064 97.7194 130.532 98.2579 130.894 98.87Z" fill="#3A0888"/>
<path d="M162.922 147.535C162.593 146.734 161.75 146.391 161.041 146.758C160.332 147.129 160.025 148.078 160.354 148.877C161.474 151.599 160.299 155.301 157.838 156.798C155.411 158.275 152.052 157.601 150.025 155.227C148.06 152.929 147.384 149.206 148.344 145.961C148.59 145.125 148.19 144.221 147.448 143.943C146.704 143.663 145.904 144.118 145.658 144.953C144.375 149.295 145.311 154.313 147.985 157.442C149.822 159.593 152.449 160.749 155.02 160.749C156.475 160.749 157.914 160.378 159.18 159.608C162.956 157.31 164.669 151.781 162.922 147.535Z" fill="#3A0888"/>
<path d="M149.03 139.605C150.203 139.605 151.154 138.533 151.154 137.212C151.154 135.89 150.203 134.818 149.03 134.818C147.857 134.818 146.906 135.89 146.906 137.212C146.906 138.533 147.857 139.605 149.03 139.605Z" fill="#3A0888"/>
<path d="M161.062 141.2C162.235 141.2 163.186 140.128 163.186 138.807C163.186 137.486 162.235 136.414 161.062 136.414C159.889 136.414 158.938 137.486 158.938 138.807C158.938 140.128 159.889 141.2 161.062 141.2Z" fill="#3A0888"/>
<path d="M120.481 131.554C120.152 130.753 119.309 130.409 118.601 130.777C117.891 131.148 117.584 132.097 117.913 132.896C119.033 135.618 117.858 139.32 115.397 140.817C112.97 142.293 109.611 141.619 107.584 139.246C105.619 136.948 104.944 133.224 105.903 129.979C106.149 129.144 105.749 128.239 105.007 127.962C104.263 127.681 103.463 128.137 103.217 128.972C101.934 133.313 102.87 138.332 105.544 141.461C107.382 143.611 110.008 144.768 112.579 144.768C114.034 144.768 115.473 144.397 116.74 143.626C120.515 141.328 122.228 135.8 120.481 131.554Z" fill="#3A0888"/>
<path d="M106.588 123.623C107.76 123.623 108.711 122.552 108.711 121.23C108.711 119.908 107.76 118.837 106.588 118.837C105.415 118.837 104.464 119.908 104.464 121.23C104.464 122.552 105.415 123.623 106.588 123.623Z" fill="#3A0888"/>
<path d="M118.62 125.219C119.793 125.219 120.743 124.147 120.743 122.826C120.743 121.505 119.793 120.432 118.62 120.432C117.446 120.432 116.496 121.505 116.496 122.826C116.496 124.147 117.446 125.219 118.62 125.219Z" fill="#3A0888"/>
<path fill-rule="evenodd" clip-rule="evenodd" d="M144.519 205.519C144.519 205.517 144.517 205.511 144.517 205.509Z" fill="#3A0888"/>
<path fill-rule="evenodd" clip-rule="evenodd" d="M186.604 92.6648C187.176 95.3661 187.644 98.087 188.068 100.815C200.23 112.145 207.878 128.153 208.055 147.723C208.224 166.431 200.885 182.023 189.436 192.942L189.445 192.881C189.582 191.916 189.715 190.949 189.843 189.983C189.976 188.98 190.103 187.976 190.225 186.97C192.325 169.728 192.883 152.29 191.903 134.944C191.413 126.271 190.538 117.622 189.278 109.031C189.152 108.171 189.027 107.311 188.903 106.451C188.635 104.592 188.366 102.732 188.078 100.876C186.293 99.2085 184.41 97.6422 182.439 96.1804C182.555 96.7579 182.668 97.3353 182.779 97.9125C183.705 102.77 184.508 107.651 185.18 112.552C187.539 129.77 188.323 147.212 187.536 164.578C187.392 167.757 187.196 170.931 186.946 174.102C186.695 177.289 186.391 180.472 186.034 183.648C185.677 186.824 185.267 189.993 184.803 193.156C184.596 194.57 184.378 195.983 184.149 197.394L184.141 197.442C173.384 205.576 159.988 210.127 146.077 210.12L145.996 210.12C145.915 209.935 145.816 209.758 145.717 209.581C145.605 209.379 145.493 209.177 145.405 208.964C145.104 208.223 144.908 207.321 144.743 206.545C144.67 206.204 144.594 205.859 144.519 205.519L144.517 205.509C144.373 204.855 144.229 204.199 144.099 203.542C143.661 201.32 143.307 199.079 143.037 196.829C142.755 194.49 142.563 192.139 142.461 189.784C142.411 188.618 142.382 187.452 142.374 186.285C142.371 185.737 142.356 185.182 142.341 184.636C142.327 184.108 142.313 183.583 142.309 183.06C142.308 182.852 142.978 183.223 143.025 183.268C143.266 183.503 143.373 183.581 143.727 183.698C144.446 183.933 145.177 184.127 145.916 184.281C147.383 184.584 148.881 184.725 150.379 184.725C156.328 184.725 162.114 182.689 167.539 180.371C168.394 180.006 169.245 179.629 170.093 179.246C170.963 178.854 171.577 178.405 172.312 177.785C172.761 177.405 173.223 177.011 173.494 176.483C173.878 175.736 173.823 174.841 173.76 174C173.751 173.891 173.741 173.777 173.673 173.692C173.624 173.632 173.553 173.596 173.482 173.564C172.477 173.11 171.273 173.143 170.293 173.652C170.005 173.801 169.707 173.944 169.408 174.078C168.889 174.31 168.357 174.524 167.825 174.737C167.371 174.92 166.918 175.102 166.472 175.295C165.075 175.903 163.665 176.487 162.238 177.02C159.52 178.037 156.72 178.893 153.848 179.311C149.926 179.881 145.872 179.528 142.339 177.584C136.952 174.62 133.789 168.642 132.083 164.148C127.861 153.023 128.143 139.89 132.838 129.014C133.149 128.292 133.481 127.579 133.832 126.874C135.512 123.509 137.637 120.374 140.144 117.596C142.573 114.903 145.363 112.541 148.434 110.649C149.942 109.718 151.528 108.889 153.152 108.194C153.66 107.977 154.172 107.794 154.682 107.612C155.774 107.222 156.853 106.837 157.84 106.134C158.758 105.481 159.546 104.638 160.144 103.671C160.309 103.404 160.462 103.119 160.509 102.807C160.556 102.495 160.478 102.147 160.243 101.942C160.05 101.773 159.786 101.722 159.533 101.688C158.059 101.494 156.555 101.675 155.118 102.059C152.191 102.84 149.366 104.285 146.778 105.861C146.53 106.012 146.241 106.17 145.968 106.077C145.622 105.957 145.519 105.52 145.469 105.151L145.424 104.819L145.359 104.331C145.137 102.665 144.915 100.997 144.545 99.3586C144.062 97.2218 143.332 95.0639 142.011 93.3117C140.757 94.0717 140.067 95.5661 139.898 97.0454C139.745 98.3839 139.972 99.6986 140.198 101.012L140.242 101.266C140.279 101.488 140.318 101.71 140.356 101.931L140.411 102.25C140.586 103.269 140.762 104.288 140.925 105.311C140.978 105.647 141.019 105.985 141.06 106.322C141.148 107.052 141.235 107.779 141.453 108.489L141.467 108.534C141.53 108.736 141.594 108.944 141.567 109.153C141.524 109.474 141.273 109.72 141.039 109.938C139.787 111.098 138.541 112.255 137.376 113.505C135.984 114.995 134.685 116.577 133.509 118.249C131.647 120.895 130.057 123.741 128.769 126.722C123.493 138.943 123.175 153.704 127.92 166.208C129.241 169.69 130.972 173.044 133.243 175.98C133.91 176.841 134.623 177.666 135.388 178.438C135.513 178.565 135.638 178.693 135.764 178.821C135.993 179.055 136.222 179.289 136.452 179.518C136.498 179.564 136.545 179.609 136.592 179.655C136.922 179.976 137.243 180.287 137.411 180.74C137.544 181.098 137.563 181.487 137.579 181.868C137.631 183.09 137.669 184.311 137.696 185.533C137.709 186.143 137.718 186.754 137.724 187.365C137.726 187.631 137.762 187.882 137.797 188.133C137.826 188.338 137.855 188.544 137.866 188.758L137.868 188.817C137.989 191.222 138.108 193.62 138.36 196.016C138.366 196.07 138.37 196.127 138.373 196.184C138.381 196.299 138.389 196.416 138.415 196.523C138.698 199.083 139.083 201.633 139.569 204.162C139.651 204.591 139.729 205.02 139.806 205.45C139.934 206.159 140.062 206.867 140.212 207.572C140.436 208.624 140.903 209.242 141.525 210.003C133.15 209.574 125.302 207.984 118.167 205.346C116.723 204.812 115.308 204.235 113.924 203.617C113.837 204.455 113.724 205.285 113.567 206.095C113.482 206.53 113.324 206.927 113.165 207.326C112.984 207.78 112.802 208.237 112.727 208.755C112.601 209.627 112.572 210.34 113.158 211.032C113.237 211.126 113.322 211.215 113.412 211.298C114.082 211.572 114.757 211.837 115.439 212.094C124.922 215.665 135.504 217.55 146.796 217.491C159.434 217.423 171.741 213.783 182.355 207.328C184.185 206.215 185.964 205.019 187.687 203.742C204.22 191.49 215.476 171.884 215.29 148.357C215.186 122.766 203.689 102.589 185.97 89.8525C186.195 90.7891 186.405 91.7282 186.604 92.6648Z" fill="#3A0888"/>
</g>
<defs>
<filter id="filter0_dd_14_1081" x="0" y="0" width="288" height="294" filterUnits="userSpaceOnUse" color-interpolation-filters="sRGB">
<feFlood flood-opacity="0" result="BackgroundImageFix"/>
<feColorMatrix in="SourceAlpha" type="matrix" values="0 0 0 0 0 0 0 0 0 0 0 0 0 0 0 0 0 0 127 0" result="hardAlpha"/>
<feOffset dx="1.5" dy="2"/>
<feGaussianBlur stdDeviation="6"/>
<feComposite in2="hardAlpha" operator="out"/>
<feColorMatrix type="matrix" values="0 0 0 0 0 0 0 0 0 0 0 0 0 0 0 0 0 0 0.24 0"/>
<feBlend mode="normal" in2="BackgroundImageFix" result="effect1_dropShadow_14_1081"/>
<feColorMatrix in="SourceAlpha" type="matrix" values="0 0 0 0 0 0 0 0 0 0 0 0 0 0 0 0 0 0 127 0" result="hardAlpha"/>
<feOffset dx="0.75" dy="1"/>
<feGaussianBlur stdDeviation="2"/>
<feComposite in2="hardAlpha" operator="out"/>
<feColorMatrix type="matrix" values="0 0 0 0 0 0 0 0 0 0 0 0 0 0 0 0 0 0 0.48 0"/>
<feBlend mode="normal" in2="effect1_dropShadow_14_1081" result="effect2_dropShadow_14_1081"/>
<feBlend mode="normal" in="SourceGraphic" in2="effect2_dropShadow_14_1081" result="shape"/>
</filter>
</defs>
</svg>
