<svg width="384" height="248" viewBox="0 0 384 248" fill="none" xmlns="http://www.w3.org/2000/svg">
<g filter="url(#filter0_dd_3_280)">
<path d="M66.7896 234C54.9017 234 44.9832 233.107 35.568 231.184C22.8266 228.588 15.1949 220.886 12.8862 208.286C10.8402 197.133 9.13877 183.871 12.0711 170.149C16.0538 151.502 26.1364 142.852 44.7644 142.118C48.5447 141.965 52.5711 141.899 57.4346 141.899C59.9567 141.899 62.4951 141.915 64.9843 141.943V141.652H89.4933C85.237 135.61 81.4677 128.533 79.1919 120.239C75.5429 106.949 72.0799 86.867 84.0335 65.9521C93.5745 49.2607 106.666 36.1629 122.942 27.0201C136.936 19.1592 153.414 14.0099 173.3 11.2874C179.531 10.4328 185.872 10 192.147 10C213.045 10 234.578 14.8317 256.149 24.3689C272.474 31.5833 284.296 41.9257 292.3 55.9877C298.061 66.1055 304.341 78.3761 307.175 92.6189C310.818 110.932 307.355 127.979 296.895 143.471C297.158 143.471 297.42 143.471 297.678 143.465C298.805 143.455 299.932 143.449 301.059 143.449C315.452 143.449 328.369 144.189 340.536 145.706C360.821 148.237 370.898 159.828 370.488 180.151C370.302 189.272 369.766 199.072 367.118 208.949C365.586 214.685 362.971 221.91 356.33 226.879C349.995 231.623 342.357 232.4 336.416 232.554C334.282 232.609 332.034 232.636 329.742 232.636C321.525 232.636 313.308 232.291 305.359 231.957C300.703 231.76 295.889 231.557 291.2 231.431C275.423 231.004 259.3 230.971 243.703 230.943C223.877 230.905 203.378 230.861 183.125 230.018C177.846 229.798 172.255 229.689 166.505 229.689C147.598 229.689 128.27 230.883 109.576 232.033C102.328 232.483 94.8328 232.943 87.4308 233.332C80.8987 233.677 73.8797 234 66.7951 234H66.7896Z" fill="#FCC803"/>
<path d="M358.638 179.911C358.463 188.648 357.943 197.391 355.667 205.871C352.669 217.09 348.014 220.393 336.109 220.694C321.218 221.072 306.37 219.971 291.512 219.571C255.558 218.601 219.538 219.659 183.617 218.163C151.181 216.816 119.057 219.785 86.8066 221.488C70.5038 222.354 54.1735 222.874 37.9363 219.566C30.0748 217.966 25.9827 214 24.5439 206.15C22.4924 194.975 21.2669 183.833 23.6631 172.636C26.4915 159.395 31.9951 154.504 45.2343 153.978C55.7546 153.556 66.3022 153.89 76.8389 153.89V153.518C87.3756 153.518 97.9123 153.545 108.449 153.485C110.096 153.474 112.432 154.312 113.148 152.274C113.838 150.329 111.748 149.097 110.511 147.875C101.61 139.072 94.0007 129.409 90.6252 117.094C86.3744 101.608 85.7726 86.8123 94.3234 71.8465C112.317 40.3645 141.252 27.6501 174.908 23.0376C201.435 19.4003 226.858 24.3852 251.362 35.2152C264.491 41.0163 274.913 49.3922 281.998 61.8546C287.939 72.2847 293.158 82.9283 295.549 94.9306C299.614 115.385 292.945 132.104 279.093 146.659C277.342 148.5 275.324 150.067 273.513 151.852C273.048 152.312 272.719 153.079 272.654 153.742C272.495 155.413 273.956 155.243 274.875 155.254C282.501 155.336 290.133 155.386 297.765 155.325C311.573 155.216 325.359 155.769 339.063 157.478C353.364 159.264 358.917 165.75 358.632 179.911H358.638Z" fill="#7670C5"/>
<path d="M339.069 157.478C325.365 155.769 311.584 155.216 297.77 155.325C290.138 155.386 282.507 155.336 274.88 155.254C273.967 155.243 272.506 155.418 272.659 153.742C272.725 153.085 273.053 152.312 273.518 151.852C275.329 150.067 277.348 148.5 279.098 146.659C292.95 132.104 299.619 115.38 295.554 94.9306C293.164 82.9229 287.945 72.2847 282.003 61.8546C274.913 49.3977 264.497 41.0218 251.367 35.2152C226.863 24.3852 201.441 19.4003 174.913 23.0376C141.252 27.6501 112.322 40.3591 94.3288 71.8465C85.7725 86.8068 86.3798 101.608 90.6306 117.094C94.006 129.409 101.621 139.072 110.517 147.875C111.753 149.102 113.843 150.329 113.154 152.274C112.432 154.306 110.101 153.474 108.454 153.485C97.9176 153.545 87.3809 153.518 76.8443 153.518V153.89C66.3076 153.89 55.76 153.556 45.2397 153.978C32.0004 154.498 26.4969 159.395 23.6685 172.636C21.2778 183.833 22.4977 194.975 24.5493 206.15C25.9881 214 30.0747 217.96 37.9417 219.566C54.1844 222.88 70.5091 222.354 86.812 221.488C119.062 219.79 151.186 216.816 183.623 218.163C219.544 219.659 255.563 218.601 291.517 219.571C306.375 219.971 321.223 221.072 336.115 220.694C348.019 220.393 352.675 217.09 355.672 205.871C357.948 197.391 358.463 188.648 358.643 179.911C358.928 165.75 353.375 159.264 339.074 157.478H339.069ZM352.861 181.658C352.133 189.234 352.554 196.963 350.218 204.375C347.527 212.904 345.409 214.159 336.213 214.745C309.997 216.416 283.956 212.033 257.773 212.806C249.419 213.052 241.055 212.844 232.695 212.844C199.263 213.452 165.826 210.856 132.4 212.806C108.832 214.175 85.3458 216.739 61.6848 216.64C54.3485 216.613 47.2256 215.326 40.037 214.323C34.3419 213.523 30.9063 210.609 29.9763 204.66C28.346 194.219 26.8962 183.772 29.1721 173.277C31.2455 163.712 35.1078 160.365 44.8403 159.878C66.986 158.776 89.1371 158.952 111.305 159.335C115.025 159.401 119.981 161.581 122.268 157.117C124.872 152.033 120.134 149.179 117.065 146.358C103.728 134.131 94.9032 119.609 92.9775 101.263C92.0694 92.6299 93.8365 84.8402 97.9395 77.171C115.123 45.0701 143.795 32.7447 178.07 28.6198C203.52 25.5576 227.049 30.9972 250.059 40.9945C259.256 44.9934 267.084 50.5152 273.048 58.6993C279.968 68.2036 285.34 78.5405 288.601 89.743C295.056 111.923 288.749 130.603 271.757 145.87C267.971 149.267 263.911 152.356 260.055 155.676C258.966 156.613 258.069 157.834 258.813 159.478C259.529 161.061 260.974 161.417 262.429 161.242C276.926 159.461 291.435 160.464 305.932 160.984C316.42 161.357 326.946 161.57 337.378 162.611C349.512 163.833 354.037 169.469 352.871 181.669L352.861 181.658Z" fill="#3A0888"/>
<path d="M266.784 68.3352C260.033 61.1864 251.821 55.8453 242.838 51.6601C228.133 44.8182 212.246 42.9885 196.55 40.3262C191.905 39.5374 187.113 39.532 182.452 40.518C172.523 42.627 162.549 44.5716 152.735 47.1353C140.912 50.2194 130.573 56.3329 122.099 65.1141C114.757 72.712 107.907 81.0277 105.894 91.7481C101.704 114.164 115.501 138.453 136.82 147.432C156.537 155.725 177.249 158.629 198.749 159.505C204.592 159.039 210.741 158.552 216.885 158.064C239.731 156.251 257.347 145.35 270.515 126.9C282.676 109.853 281.144 83.5256 266.784 68.3297V68.3352ZM154.321 52.7667C159.787 50.9918 165.421 49.7264 170.509 48.3624C171.724 48.6582 172.709 48.5926 173.02 49.0253C173.792 50.0881 172.9 50.8933 172.09 51.474C166.625 55.4346 163.813 61.3945 160.651 67.0149C158.971 69.9949 157.232 71.6877 153.889 69.8362C148.894 67.0698 140.322 65.1963 140.376 60.4633C140.442 54.9689 149.031 54.4868 154.327 52.7722L154.321 52.7667ZM188.092 94.0214C188.793 97.834 186.183 99.0666 182.786 99.0556C179.153 99.0392 175.52 99.0556 171.882 99.0556V99.105C171.155 99.105 170.416 99.1981 169.705 99.0885C165.865 98.5133 160.345 101.104 158.485 97.4725C155.952 92.5369 159.01 86.9109 160.788 81.7945C161.455 79.8772 163.211 78.8638 165.148 79.5376C171.406 81.7233 178.114 81.3124 184.421 83.0106C190.915 84.7635 187.387 90.2306 188.092 94.0323V94.0214ZM111.846 91.4468C115.276 80.8085 121.874 72.345 130.474 65.3386C132.597 63.6131 134.309 64.2322 136.235 65.7167C141.115 69.491 146.361 72.6847 152.029 75.1607C152.68 75.4511 153.616 75.7359 153.845 76.2728C156.761 83.2353 151.963 89.3103 151.394 95.9058C151.094 99.4336 147.844 98.7489 145.382 98.6612C142.849 98.5681 140.322 98.3763 137.8 98.2229C137.8 98.3325 137.789 98.4311 137.778 98.5352C130.567 98.0148 123.357 97.3575 116.141 97.0233C112.191 96.8425 110.769 94.7938 111.852 91.4468H111.846ZM134.227 136.257C132.548 137.374 131.016 138.048 129.375 136.591C120.802 128.982 113.745 120.365 111.617 108.664C110.834 104.342 113.033 102.688 117.148 102.94C121.502 103.213 125.857 103.405 130.212 103.63C132.028 103.641 133.844 103.619 135.655 103.641C151.624 103.86 152.779 105.076 152.932 121.154C152.948 123.186 152.407 124.632 150.705 125.706C145.196 129.201 139.66 132.647 134.227 136.257ZM165.848 150.099C156.871 148.889 148.386 145.991 140.081 142.485C138.981 142.014 138.407 140.869 139.403 140.113C143.965 136.656 148.309 132.822 153.78 130.746C154.967 130.477 155.908 131.014 156.477 131.929C159.901 137.396 162.976 143.088 167.577 147.777C168.759 148.982 167.927 150.384 165.848 150.105V150.099ZM188.339 145.953C188.152 152.34 187.08 153.26 181.73 150.664C173.009 146.435 166.877 139.505 162.599 130.888C161.307 128.292 162.582 126.462 164.962 126.084C171.341 125.071 177.774 124.397 184.203 123.75C186.79 123.493 188.235 124.983 188.284 127.585C188.349 131.184 188.3 134.783 188.3 138.387H188.349C188.349 140.913 188.41 143.438 188.339 145.953ZM182.698 118.218C176.221 118.749 169.694 118.815 163.343 120.496C159.568 121.493 158.014 119.56 157.735 116.048C157.615 114.602 157.451 113.161 157.259 111.726C156.679 107.338 158.03 104.747 163.014 105.043C166.259 105.235 169.519 105.081 172.774 105.081C176.029 105.081 179.29 105.262 182.529 105.027C186.533 104.736 188.519 105.969 188.568 110.368C188.634 116.558 188.098 117.779 182.698 118.223V118.218ZM188.339 62.4409C188.171 72.9842 183.121 77.3026 173.19 75.3963C171.417 75.0511 169.601 74.832 167.878 74.3061C165.225 73.5064 164.727 71.7588 165.947 69.3102C168.047 65.0702 170.312 60.8797 173.759 57.6257C177.435 54.1472 182.146 49.0417 186.495 50.5974C190.855 52.1587 187.277 58.935 188.344 62.4354L188.339 62.4409ZM258.966 68.253C266.215 74.4047 270.334 82.2492 272.162 91.4193C273.278 97.0233 272.681 97.9326 267.189 98.1955C262.123 98.4366 257.04 98.2504 251.969 98.2504V98.6064C250.88 98.6064 249.792 98.6392 248.703 98.6064C243.675 98.4201 237.822 100.551 233.844 97.6861C229.528 94.5801 232.756 88.0285 230.841 83.3887C228.778 78.3873 231.164 76.2016 235.447 74.35C239.419 72.6354 243.582 70.7838 246.761 67.9736C251.323 63.9473 254.819 64.7416 258.971 68.2639L258.966 68.253ZM215.594 50.7399C217.908 47.9516 222.777 50.7947 226.42 52.0273C231.853 53.8679 237.291 55.7029 242.674 57.6859C243.954 58.157 245.027 59.2089 246.361 60.1018C245.645 61.2029 245.267 62.2437 244.523 62.8188C243.123 63.9254 241.547 64.8128 239.993 65.7058C232.316 70.0808 226.322 68.4666 222.011 60.8632C221.655 60.2387 221.229 59.6416 220.95 58.9843C219.571 55.7413 213.865 52.8106 215.583 50.7399H215.594ZM217.219 104.315C226.672 104.446 228.319 106.615 226.317 115.906C225.622 119.121 224.495 121.504 220.616 120.223C213.657 117.922 206.441 117.916 199.253 117.801C194.471 117.725 194.356 114.619 194.422 111.173C194.477 107.93 193.979 104.32 198.864 104.243C202.82 104.177 206.78 104.227 210.741 104.227V104.32C212.902 104.32 215.058 104.293 217.213 104.32L217.219 104.315ZM196.381 47.7325C199.997 46.1932 203.35 50.5755 206.644 52.6243C208.755 53.9335 210.714 55.6153 212.415 57.434C216.376 61.6629 221.535 67.0424 219.899 72.1259C218.236 77.2917 210.408 74.843 205.44 76.3494C204.1 76.7548 202.579 76.585 201.135 76.6178C194.559 76.7712 194.307 76.5521 194.012 70.4387C193.941 68.998 194.061 67.5518 194.072 66.1056C194.083 64.6649 194.072 63.2241 194.072 61.7779H194.22C194.22 60.6988 194.088 59.5923 194.247 58.535C194.805 54.8045 192.277 49.4745 196.375 47.727L196.381 47.7325ZM194.854 84.5554C195.905 82.3368 198.465 82.304 200.588 82.0958C205.287 81.6247 209.997 81.1372 214.719 81.0605C217.788 81.0112 220.84 77.8504 223.887 80.7592C225.534 82.3314 226.639 94.6623 225.501 96.7439C224.741 98.1463 223.433 98.6393 221.923 98.6448C217.924 98.6667 213.931 98.6502 209.932 98.6502V98.716C207.382 98.716 204.833 98.8694 202.3 98.6777C199.603 98.475 195.921 99.9869 194.767 96.2509C193.596 92.4766 193.065 88.3462 194.86 84.5554H194.854ZM201.129 152.608C195.576 153.803 194.674 153.408 194.329 147.941C194.127 144.709 194.291 141.455 194.291 138.207H194.209V136.043C194.236 121.899 194.499 121.68 208.985 123.75C224.85 126.018 225.742 127.925 216.059 140.836C212.202 145.974 208.088 151.113 201.129 152.603V152.608ZM233.779 148.883C228.718 151.091 223.319 151.852 216.879 151.929C217.175 151.989 216.239 152.077 215.895 151.661C215.041 150.653 215.796 149.705 216.546 148.982C221.07 144.6 223.92 139.078 226.678 133.561C228.499 129.908 230.567 128.664 234.331 130.894C239.02 133.671 245.968 136.344 245.935 141.22C245.913 145.125 238.374 146.889 233.779 148.889V148.883ZM271.308 112.055C269.153 121.74 262.604 128.555 255.93 135.238C254.13 137.04 252.051 136.777 250.076 135.276C246.908 132.866 243.637 130.576 240.568 128.05C237.822 125.788 232.794 125.777 232.099 121.937C231.284 117.418 232.05 112.597 232.247 107.908C232.367 105.109 234.479 104.336 236.755 104.287C242.176 104.167 247.609 104.249 253.03 104.249V103.63C257.018 103.63 260.996 103.559 264.978 103.646C272.304 103.805 272.955 104.665 271.308 112.06V112.055Z" fill="#F7F7F7"/>
<path d="M87.7691 182.403C85.3839 189.557 81.9865 195.917 77.8123 201.844C76.6088 203.553 74.7432 203.515 73.1293 202.074C72.5987 201.603 72.172 200.995 71.7562 200.409C69.7977 197.648 70.0055 191.896 66.7723 192.126C63.7908 192.34 63.4899 198.037 61.4547 201.006C58.9163 204.704 56.066 204.758 54.2005 200.672C51.7988 195.424 50.0154 189.891 48.0623 184.452C47.4004 182.605 47.5864 180.77 49.802 180.086C51.5034 179.56 52.3733 180.776 52.9696 182.178C53.2541 182.841 53.4729 183.553 53.8559 184.156C55.5299 186.791 54.9227 191.272 58.5771 191.858C59.5236 192.011 61.2742 187.218 62.6255 184.682C63.1343 183.723 63.4899 182.688 64.0096 181.734C65.0217 179.877 65.7821 177.456 68.5394 177.944C70.5745 178.305 70.859 180.447 71.6522 182.025C73.3372 185.361 71.7398 191.458 76.1984 191.787C79.2074 192.011 79.7271 186.106 81.4887 183.022C82.0193 182.09 82.4679 180.946 83.2831 180.398C84.0545 179.877 85.4495 179.609 86.2263 179.97C86.9813 180.321 87.2986 181.614 87.7582 182.403H87.7691Z" fill="#3A0888"/>
<path d="M301.812 187.295H301.588C301.588 181.515 301.648 175.725 301.55 169.946C301.523 168.39 300.499 167.07 298.88 167.262C298.147 167.349 297.299 168.62 296.965 169.53C296.478 170.866 296.276 172.351 296.189 173.786C295.948 177.774 294.695 179.477 290.094 178.349C284.711 177.029 280.137 178.984 277.561 184.375C272.943 193.989 278.463 202.622 289.547 202.775C292.206 202.819 294.465 201.011 297.299 203.926C300.33 207.037 301.709 206.029 301.791 201.411C301.878 196.706 301.812 192.006 301.812 187.3V187.295ZM289.377 196.837C285.728 197.434 282.112 194.372 281.915 191.036C281.669 186.741 283.956 184.073 287.971 183.975C292.66 183.86 295.713 186.615 295.663 190.872C295.614 195.024 292.611 196.306 289.377 196.837Z" fill="#3A0888"/>
<path d="M247.411 182.836C245.666 188.927 243.757 194.794 240.124 199.817C237.925 202.852 234.632 202.589 232.465 198.481C229.921 193.66 228.597 192.734 226.174 198.322C225.118 200.754 224.97 204.654 221.086 204.282C218.187 204.003 217.727 200.803 216.731 198.552C214.685 193.929 212.732 189.261 210.839 184.572C210.145 182.847 209.866 180.776 211.835 179.834C213.903 178.848 215.183 180.529 215.933 182.217C217.103 184.862 217.908 187.673 219.155 190.275C220.348 192.767 221.956 193.523 223.548 190.45C223.882 189.809 224.221 189.168 224.587 188.544C226.371 185.531 226.726 180.327 230.676 180.327C235.677 180.321 233.412 186.09 235.135 188.933C235.682 189.836 236.317 190.691 236.913 191.568C237.586 190.877 238.461 190.297 238.904 189.48C240.278 186.944 241.404 184.276 242.8 181.756C243.292 180.863 244.315 179.888 245.458 180.507C246.268 180.946 246.744 181.997 247.417 182.836H247.411Z" fill="#3A0888"/>
<path d="M339.529 196.766C338.571 194.707 336.656 194.668 335.026 195.89C331.689 198.388 328.215 198.092 324.725 196.597C323.86 196.224 322.843 195.117 322.772 194.279C322.657 193.014 324.096 193.063 325.042 193.063C327.586 193.058 330.13 193.304 332.657 193.151C334.638 193.025 335.825 191.705 336.306 189.711C337.483 184.786 334.802 178.799 330.436 176.744C326.114 174.718 321.333 176.065 317.946 180.464C314.653 184.753 313.067 189.766 315.096 194.822C317.503 200.826 323.133 202.798 329.101 203.696C332.63 204.2 335.601 203.083 338.041 200.606C339.042 199.582 340.223 198.262 339.534 196.777L339.529 196.766ZM321.896 185.69C322.126 182.819 324.413 181.74 327.203 182.014C328.806 182.173 329.911 183.247 329.911 184.737C329.911 188.297 327.055 186.824 325.381 187.136C323.855 187.163 321.765 187.3 321.896 185.69Z" fill="#3A0888"/>
<path d="M199.367 188.494C199.263 188.494 199.159 188.489 199.05 188.489C199.05 182.688 199.132 176.881 198.962 171.08C198.94 170.258 197.983 169.031 196.637 169.398C196.03 169.568 195.291 170.056 195.051 170.598C194.619 171.557 194.252 172.685 194.318 173.715C194.662 179.083 193.59 181.242 187.042 180.239C181.106 179.335 176.729 185.498 176.839 191.869C176.948 198.075 180.077 201.148 187.189 201.899C189.87 202.178 193.136 200.628 194.427 204.715C194.887 206.166 196.325 207.235 197.808 206.495C199.115 205.843 199.373 204.178 199.373 202.671C199.362 197.949 199.373 193.222 199.373 188.5L199.367 188.494ZM193.683 192.466C193.016 196.12 189.635 195.846 187.047 196.574C184.18 196.114 182.151 194.586 182.293 191.688C182.435 188.615 183.983 186.161 187.545 186.112C190.264 186.073 194.137 189.979 193.683 192.466Z" fill="#3A0888"/>
<path d="M110.719 177.96C102.731 177.779 96.2922 184.211 96.3743 192.296C96.4509 199.478 102.512 205.947 109.045 205.799C116.567 205.63 122.623 198.169 122.579 189.119C122.546 182.408 117.989 178.119 110.719 177.96ZM116.605 190.176C116.299 196.016 112.956 200.097 108.547 199.653C104.29 199.231 102.326 196.24 101.927 192.411C101.407 187.393 105.111 184.32 110.981 184.446C115.216 184.035 116.819 186.166 116.605 190.182V190.176Z" fill="#3A0888"/>
<path d="M130.89 189.415C130.89 187.235 130.83 185.049 130.901 182.874C131.093 176.985 131.224 176.816 136.563 180.157C139.321 181.877 141.416 179.938 143.752 179.615C148.003 179.029 150.027 180.354 149.496 184.824C149.283 186.627 149.201 188.451 148.993 190.253C148.791 192.044 148.632 194.241 146.318 194.241C144.119 194.241 143.517 192.307 143.561 190.357C143.61 188.418 143.446 186.424 140.973 186.638C139.206 186.791 137.236 187.947 136.886 189.777C136.208 193.31 136.159 196.964 135.683 200.546C135.546 201.565 134.955 202.71 133.653 202.765C131.968 202.836 130.792 201.757 130.704 200.25C130.507 196.651 130.639 193.036 130.639 189.426H130.879L130.89 189.415Z" fill="#3A0888"/>
<path d="M158.452 187.388C158.452 183.066 158.348 178.733 158.55 174.422C158.589 173.649 159.77 172.488 160.607 172.285C162.161 171.913 163.54 173.085 163.649 174.504C164.3 183.137 164.574 191.781 163.447 200.404C163.239 201.981 162.227 203.258 160.733 203.258C159.223 203.258 158.14 201.932 158.107 200.36C158.009 196.038 158.074 191.71 158.074 187.388C158.2 187.388 158.331 187.388 158.457 187.388H158.452Z" fill="#3A0888"/>
<path d="M266.598 194.263C266.619 194.624 266.669 194.986 266.658 195.348C266.57 198.388 268.337 203.159 263.983 203.389C259.59 203.619 260.799 198.705 260.64 195.725C260.41 191.392 260.432 187.043 260.58 182.704C260.607 181.883 261.554 180.699 262.358 180.371C264.054 179.68 265.224 181.05 265.449 182.414C266.089 186.325 266.384 190.291 266.816 194.235C266.74 194.241 266.669 194.252 266.592 194.257L266.598 194.263Z" fill="#3A0888"/>
<path d="M266.297 169.995C266.368 172.509 265.564 173.764 264.01 174.005C261.926 174.328 260.585 173.123 260.492 171.03C260.416 169.245 261.953 168.45 263.348 168.423C264.705 168.396 266.198 168.993 266.297 169.99V169.995Z" fill="#3A0888"/>
</g>
<defs>
<filter id="filter0_dd_3_280" x="0" y="0" width="384" height="248" filterUnits="userSpaceOnUse" color-interpolation-filters="sRGB">
<feFlood flood-opacity="0" result="BackgroundImageFix"/>
<feColorMatrix in="SourceAlpha" type="matrix" values="0 0 0 0 0 0 0 0 0 0 0 0 0 0 0 0 0 0 127 0" result="hardAlpha"/>
<feOffset dx="1.5" dy="2"/>
<feGaussianBlur stdDeviation="6"/>
<feComposite in2="hardAlpha" operator="out"/>
<feColorMatrix type="matrix" values="0 0 0 0 0 0 0 0 0 0 0 0 0 0 0 0 0 0 0.24 0"/>
<feBlend mode="normal" in2="BackgroundImageFix" result="effect1_dropShadow_3_280"/>
<feColorMatrix in="SourceAlpha" type="matrix" values="0 0 0 0 0 0 0 0 0 0 0 0 0 0 0 0 0 0 127 0" result="hardAlpha"/>
<feOffset dx="0.75" dy="1"/>
<feGaussianBlur stdDeviation="2"/>
<feComposite in2="hardAlpha" operator="out"/>
<feColorMatrix type="matrix" values="0 0 0 0 0 0 0 0 0 0 0 0 0 0 0 0 0 0 0.48 0"/>
<feBlend mode="normal" in2="effect1_dropShadow_3_280" result="effect2_dropShadow_3_280"/>
<feBlend mode="normal" in="SourceGraphic" in2="effect2_dropShadow_3_280" result="shape"/>
</filter>
</defs>
</svg>
