<svg width="746" height="286" viewBox="0 0 746 286" fill="none" xmlns="http://www.w3.org/2000/svg">
<path d="M288.177 63.911C287.231 62.453 285.812 61.7004 283.896 61.7004C282.194 61.7004 280.893 62.4294 279.947 63.911C279.001 65.3926 278.527 67.6973 278.527 70.8487V214.822C278.527 218.185 279.001 220.607 279.947 222.065C280.893 223.547 282.217 224.276 283.896 224.276C285.789 224.276 287.231 223.547 288.177 222.065C289.123 220.607 289.596 218.185 289.596 214.822V170.727H332.051V208.849C332.051 225.452 327.605 237.775 318.735 245.865C309.866 253.955 298.348 258 284.204 258C270.06 258 258.494 253.955 249.507 245.865C240.519 237.775 236.049 225.452 236.049 208.849V76.8221C236.049 60.0307 240.496 47.684 249.365 39.8057C258.234 31.9274 269.753 28 283.896 28C298.04 28 309.89 31.9274 318.759 39.8057C327.628 47.684 332.075 60.0307 332.075 76.8221V114.944H289.62V70.8487C289.62 67.6973 289.147 65.3926 288.201 63.911H288.177Z" fill="#7670C5"/>
<path d="M436.284 208.849C436.284 225.029 432.003 237.258 423.465 245.559C414.903 253.861 403.243 258 388.461 258C373.678 258 361.687 253.861 353.125 245.559C344.563 237.258 340.282 225.029 340.282 208.849V76.8221C340.282 60.8538 344.563 48.7423 353.125 40.4407C361.687 32.1391 373.442 28 388.461 28C403.48 28 415.187 32.092 423.631 40.2761C432.074 48.4601 436.308 60.6421 436.308 76.8221V208.825L436.284 208.849ZM392.411 63.7699C391.464 62.4059 390.045 61.7239 388.13 61.7239C386.214 61.7239 384.842 62.4059 384.014 63.7699C383.163 65.1339 382.737 67.5092 382.737 70.8487V214.822C382.737 218.185 383.163 220.607 384.014 222.065C384.866 223.547 386.237 224.276 388.13 224.276C390.022 224.276 391.464 223.547 392.411 222.065C393.357 220.607 393.83 218.185 393.83 214.822V70.8487C393.83 67.4857 393.357 65.1339 392.411 63.7699Z" fill="#7670C5"/>
<path d="M540.541 208.849C540.541 225.029 536.26 237.258 527.722 245.559C519.16 253.861 507.5 258 492.717 258C477.935 258 465.944 253.861 457.382 245.559C448.82 237.258 444.539 225.029 444.539 208.849V76.8221C444.539 60.8538 448.82 48.7423 457.382 40.4407C465.944 32.1391 477.699 28 492.717 28C507.736 28 519.444 32.092 527.888 40.2761C536.331 48.4601 540.565 60.6421 540.565 76.8221V208.825L540.541 208.849ZM496.644 63.7699C495.698 62.4059 494.278 61.7239 492.363 61.7239C490.447 61.7239 489.075 62.4059 488.247 63.7699C487.396 65.1339 486.97 67.5092 486.97 70.8487V214.822C486.97 218.185 487.396 220.607 488.247 222.065C489.099 223.547 490.471 224.276 492.363 224.276C494.255 224.276 495.698 223.547 496.644 222.065C497.59 220.607 498.063 218.185 498.063 214.822V70.8487C498.063 67.4857 497.59 65.1339 496.644 63.7699Z" fill="#7670C5"/>
<path d="M591.227 32.727V219.549H617.527V253.249H549.079V32.727H591.227Z" fill="#7670C5"/>
<path d="M717.976 208.849C717.976 225.029 713.695 237.258 705.157 245.559C696.595 253.861 684.935 258 670.153 258C655.37 258 643.379 253.861 634.817 245.559C626.255 237.258 621.974 225.029 621.974 208.849V76.8221C621.974 60.8538 626.255 48.7423 634.817 40.4407C643.379 32.1391 655.134 28 670.153 28C685.171 28 696.879 32.092 705.323 40.2761C713.766 48.4601 718 60.6421 718 76.8221V208.825L717.976 208.849ZM674.079 63.7699C673.133 62.4059 671.714 61.7239 669.798 61.7239C667.882 61.7239 666.51 62.4059 665.682 63.7699C664.831 65.1339 664.405 67.5092 664.405 70.8487V214.822C664.405 218.185 664.831 220.607 665.682 222.065C666.534 223.547 667.906 224.276 669.798 224.276C671.69 224.276 673.133 223.547 674.079 222.065C675.025 220.607 675.498 218.185 675.498 214.822V70.8487C675.498 67.4857 675.025 65.1339 674.079 63.7699Z" fill="#7670C5"/>
<path d="M180.517 40.9002C172.149 32.7497 160.535 28.6699 145.684 28.6699C130.833 28.6699 119.173 32.7957 110.704 41.0565C110.704 41.0565 110.695 41.0657 110.686 41.0749C110.631 41.0106 110.576 40.9554 110.52 40.9002C102.153 32.7497 90.5386 28.6699 75.6971 28.6699C60.8555 28.6699 49.1864 32.7957 40.7082 41.0565C32.2391 49.3173 28 61.3916 28 77.27V208.635C28 224.734 32.2391 236.909 40.7082 245.16C49.1864 253.412 60.8372 257.547 75.6971 257.547C90.557 257.547 101.895 253.412 110.364 245.16C110.419 245.105 110.484 245.05 110.539 244.986C110.594 245.05 110.649 245.105 110.704 245.16C119.183 253.412 130.833 257.547 145.684 257.547C160.535 257.547 171.891 253.412 180.36 245.16C188.829 236.909 193.068 224.734 193.068 208.635V77.27C193.068 61.1802 188.884 49.0508 180.526 40.9002H180.517ZM81.0213 214.589C81.0213 217.934 80.5523 220.341 79.6052 221.802C78.6672 223.263 77.2511 223.989 75.366 223.989C73.481 223.989 72.12 223.263 71.2924 221.802C70.4556 220.341 70.0326 217.934 70.0326 214.589V71.3156C70.0326 67.9708 70.4464 65.6184 71.2924 64.2585C72.1292 62.8985 73.4902 62.2186 75.366 62.2186C77.2419 62.2186 78.658 62.8985 79.6052 64.2585C80.5431 65.6184 81.0213 67.9708 81.0213 71.3156V214.589ZM151.027 214.589C151.027 217.934 150.558 220.341 149.611 221.802C148.673 223.263 147.256 223.989 145.371 223.989C143.486 223.989 142.125 223.263 141.289 221.802C140.452 220.341 140.038 217.934 140.038 214.589V71.3156C140.038 67.9708 140.452 65.6184 141.289 64.2585C142.125 62.8985 143.486 62.2186 145.371 62.2186C147.256 62.2186 148.663 62.8985 149.611 64.2585C150.548 65.6184 151.027 67.9708 151.027 71.3156V214.589Z" fill="#7670C5"/>
<path d="M332.075 76.8221C332.075 60.0307 327.628 47.684 318.759 39.8057C310.167 32.1737 298.778 28.2496 285.216 28.0117L283.896 28C269.753 28 258.234 31.9274 249.365 39.8057L248.952 40.1787C240.358 48.0714 236.049 60.2933 236.049 76.8221V208.849C236.049 225.452 240.519 237.775 249.507 245.865C258.214 253.702 269.34 257.743 282.886 257.988L284.204 258C297.906 258 309.144 254.204 317.896 246.611L318.735 245.865C327.328 238.028 331.769 226.218 332.038 210.393L332.051 208.849V170.727H289.596V214.822L289.591 215.441C289.535 218.484 289.064 220.698 288.177 222.065C287.231 223.547 285.789 224.276 283.896 224.276L283.586 224.268C282.053 224.182 280.834 223.454 279.947 222.065C279.06 220.698 278.589 218.484 278.533 215.441L278.527 214.822V70.8487C278.527 67.6973 279.001 65.3926 279.947 63.911C280.893 62.4294 282.194 61.7004 283.896 61.7004C285.692 61.7004 287.052 62.3617 287.994 63.6455L288.177 63.911H288.201C289.147 65.3926 289.62 67.6973 289.62 70.8487V114.944H332.075V76.8221ZM549.079 32.727V253.249H617.527V219.549H591.227V32.727H549.079ZM151.027 214.589C151.027 217.934 150.558 220.341 149.611 221.802C148.673 223.263 147.256 223.989 145.371 223.989L145.024 223.98C143.432 223.901 142.241 223.266 141.451 222.067L141.289 221.802C140.504 220.432 140.091 218.231 140.043 215.205L140.038 214.589V71.3156C140.038 67.9708 140.452 65.6184 141.289 64.2585C142.125 62.8985 143.486 62.2186 145.371 62.2186C147.256 62.2186 148.663 62.8985 149.611 64.2585C150.548 65.6184 151.027 67.9708 151.027 71.3156V214.589ZM81.0213 214.589L81.0156 215.205C80.9606 218.231 80.4929 220.432 79.6052 221.802C78.6672 223.263 77.2511 223.989 75.366 223.989L75.0186 223.98C73.3128 223.895 72.0683 223.172 71.2924 221.802C70.4556 220.341 70.0326 217.934 70.0326 214.589V71.3156C70.0327 68.1802 70.3963 65.9167 71.1387 64.5254L71.2924 64.2585C72.1292 62.8985 73.4902 62.2186 75.366 62.2186C77.2419 62.2186 78.658 62.8985 79.6052 64.2585C80.5431 65.6184 81.0213 67.9708 81.0213 71.3156V214.589ZM675.498 214.822L675.492 215.441C675.437 218.484 674.966 220.698 674.079 222.065C673.133 223.547 671.69 224.276 669.798 224.276L669.449 224.268C667.736 224.182 666.481 223.454 665.682 222.065C664.884 220.698 664.46 218.484 664.41 215.441L664.405 214.822V70.8487C664.405 67.7178 664.779 65.4342 665.527 64.0371L665.682 63.7699C666.51 62.4059 667.882 61.7239 669.798 61.7239C671.714 61.7239 673.133 62.4059 674.079 63.7699C675.025 65.1339 675.498 67.4857 675.498 70.8487V214.822ZM498.063 214.822L498.058 215.441C498.002 218.484 497.531 220.698 496.644 222.065C495.698 223.547 494.255 224.276 492.363 224.276L492.014 224.268C490.301 224.182 489.045 223.454 488.247 222.065C487.449 220.698 487.024 218.484 486.975 215.441L486.97 214.822V70.8487C486.97 67.5092 487.396 65.1339 488.247 63.7699C489.075 62.4059 490.447 61.7239 492.363 61.7239C494.278 61.7239 495.698 62.4059 496.644 63.7699C497.59 65.1339 498.063 67.4857 498.063 70.8487V214.822ZM393.83 214.822L393.824 215.441C393.769 218.484 393.297 220.698 392.411 222.065C391.464 223.547 390.022 224.276 388.13 224.276L387.781 224.268C386.068 224.182 384.812 223.455 384.014 222.065C383.216 220.698 382.792 218.484 382.742 215.441L382.737 214.822V70.8487C382.737 67.5092 383.163 65.1339 384.014 63.7699C384.842 62.4059 386.214 61.7239 388.13 61.7239C390.045 61.7239 391.464 62.4059 392.411 63.7699C393.357 65.1339 393.83 67.4857 393.83 70.8487V214.822ZM718 76.8221C718 60.8952 713.898 48.8422 705.716 40.6631L705.323 40.2761C696.879 32.092 685.171 28 670.153 28C655.134 28 643.379 32.1391 634.817 40.4407L634.419 40.833C626.123 49.1221 621.974 61.1033 621.974 76.8221V208.849C621.974 225.029 626.255 237.258 634.817 245.559C643.379 253.861 655.37 258 670.153 258C684.704 258 696.229 253.989 704.753 245.945L705.157 245.559C713.429 237.517 717.705 225.789 717.964 210.354L717.976 208.849L718 208.825V76.8221ZM28 208.635L28.0127 210.133C28.2694 225.491 32.504 237.167 40.7082 245.16C48.9215 253.154 60.1121 257.285 74.3135 257.535L75.6971 257.547C90.557 257.547 101.895 253.412 110.364 245.16C110.419 245.105 110.484 245.05 110.539 244.986C110.594 245.05 110.649 245.105 110.704 245.16C119.183 253.412 130.833 257.547 145.684 257.547C160.071 257.547 171.178 253.666 179.558 245.922L180.36 245.16C188.564 237.167 192.799 225.491 193.056 210.133L193.068 208.635V77.27C193.068 61.1802 188.884 49.0508 180.526 40.9002H180.517L180.122 40.5215C172.05 32.874 161.029 28.9246 147.066 28.6816L145.684 28.6699C130.833 28.6699 119.173 32.7957 110.704 41.0565C110.703 41.0579 110.694 41.0665 110.686 41.0749C110.631 41.0106 110.576 40.9554 110.52 40.9002C102.414 33.0044 91.2614 28.9287 77.0791 28.6816L75.6971 28.6699C60.8555 28.6699 49.1864 32.7957 40.7082 41.0565C32.2391 49.3173 28 61.3916 28 77.27V208.635ZM340.282 208.849L340.295 210.354C340.554 225.789 344.831 237.517 353.125 245.559C361.419 253.601 372.932 257.738 387.083 257.988L388.461 258C403.012 258 414.538 253.989 423.062 245.945L423.465 245.559C432.003 237.258 436.284 225.029 436.284 208.849L436.308 208.825V76.8221C436.308 60.8951 432.206 48.8422 424.023 40.6631L423.631 40.2761C415.451 32.3478 404.208 28.2595 389.859 28.0117L388.461 28C373.442 28 361.687 32.1391 353.125 40.4407C344.563 48.7423 340.282 60.8538 340.282 76.8221V208.849ZM444.539 208.849C444.539 225.029 448.82 237.258 457.382 245.559C465.676 253.601 477.189 257.738 491.34 257.988L492.717 258C507.5 258 519.16 253.861 527.722 245.559C536.26 237.258 540.541 225.029 540.541 208.849L540.565 208.825V76.8221C540.565 60.6421 536.331 48.4601 527.888 40.2761C519.708 32.3479 508.465 28.2596 494.116 28.0117L492.717 28C477.699 28 465.944 32.1391 457.382 40.4407L456.983 40.833C448.687 49.1221 444.539 61.1035 444.539 76.8221V208.849ZM746 208.825C746 209.254 745.988 209.681 745.969 210.107C745.746 230.644 740.03 250.706 724.676 265.635C724.667 265.644 724.658 265.652 724.648 265.661C709.67 280.184 690.361 286 670.152 286C656.779 286 643.534 283.45 631.714 277.392C627.553 279.842 622.705 281.249 617.527 281.249H549.079C543.127 281.249 537.61 279.39 533.073 276.224C520.884 283.082 507.027 286 492.718 286C473.808 286 455.155 280.904 440.424 267.995C425.832 280.809 407.549 286 388.461 286C369.51 286 350.816 280.882 336.07 267.91C321.404 280.558 303.33 286 284.204 286C264.389 286 245.76 280.165 230.774 266.676C223.392 260.03 218.116 252.225 214.519 243.749C211.178 251.59 206.415 258.868 199.9 265.215C185.064 279.671 166.072 285.547 145.684 285.547C133.402 285.547 121.44 283.413 110.591 278.478C99.8864 283.389 88.0557 285.547 75.6973 285.547C55.4772 285.547 36.1239 279.771 21.1787 265.226C21.1752 265.222 21.1715 265.218 21.168 265.215C5.56682 250.014 3.80271e-05 229.483 0 208.635V77.2695C8.28565e-05 56.5109 5.63615 36.1522 21.1572 21.0127C21.1609 21.0092 21.1643 21.0055 21.168 21.002C36.1285 6.4251 55.5162 0.669922 75.6973 0.669922C87.9145 0.669943 99.8714 2.76393 110.721 7.6748C121.545 2.77846 133.467 0.669974 145.684 0.669922C165.523 0.669922 184.672 6.18479 199.508 20.3193C199.698 20.4949 199.887 20.6722 200.073 20.8535C206.456 27.0773 211.135 34.2079 214.436 41.8848C218.021 33.3509 223.31 25.4986 230.771 18.8721C245.732 5.58244 264.314 0 283.896 0C302.824 5.60903e-06 321.362 5.22001 336.26 17.9229C350.915 5.10765 369.305 0 388.461 0C407.551 4.28919e-05 425.973 5.0327 440.598 17.8506C455.24 5.08787 473.598 0 492.718 0C507.033 4.82471e-05 520.973 2.83086 533.219 9.65137C537.728 6.54633 543.191 4.72664 549.079 4.72656H591.227C601.981 4.72656 611.317 10.7917 616.008 19.6865C630.963 5.57306 650.14 4.53243e-05 670.152 0C690.355 0 709.813 5.63372 724.811 20.1699C740.477 35.3547 746 55.9686 746 76.8223V208.825Z" fill="#FCC803"/>
<path d="M188.068 77.2695C188.068 62.0801 184.147 51.4832 177.137 44.582C177.101 44.5489 177.064 44.5167 177.028 44.4824C169.829 37.4698 159.6 33.6699 145.684 33.6699C131.786 33.67 121.506 37.5048 114.195 44.6357C113.213 45.6041 111.874 46.1242 110.494 46.0713C109.161 46.0201 107.908 45.4379 107.008 44.46C99.8091 37.4615 89.5889 33.67 75.6973 33.6699C61.8092 33.6699 51.518 37.5047 44.1973 44.6377C36.9889 51.6701 33.0001 62.2643 33 77.2695V208.635C33 223.884 37.0013 234.566 44.1953 241.577C51.5188 248.705 61.7945 252.547 75.6973 252.547C89.1333 252.547 98.9148 248.959 106.18 242.239L106.875 241.579C106.89 241.564 106.904 241.55 106.917 241.538C107.858 240.549 109.167 239.986 110.539 239.986C111.939 239.986 113.27 240.574 114.215 241.6C121.537 248.713 131.805 252.547 145.684 252.547C159.545 252.547 169.539 248.723 176.871 241.579C184.066 234.568 188.068 223.885 188.068 208.635V77.2695ZM554.079 248.249H612.527V224.549H591.227C588.465 224.549 586.227 222.31 586.227 219.549V37.7266H554.079V248.249ZM388.829 70.8486C388.829 69.378 388.724 68.2988 388.572 67.543C388.488 67.1232 388.402 66.8682 388.348 66.7324C388.296 66.7276 388.23 66.7242 388.149 66.7236C388.099 66.8892 388.037 67.1272 387.978 67.4551C387.833 68.2556 387.737 69.3699 387.737 70.8486V214.822C387.737 217.392 388.03 218.72 388.219 219.271C388.231 219.271 388.242 219.27 388.253 219.27C388.274 219.226 388.303 219.162 388.336 219.073C388.408 218.877 388.491 218.591 388.568 218.197C388.725 217.397 388.829 216.29 388.829 214.822V70.8486ZM493.062 70.8486C493.062 69.378 492.957 68.2988 492.806 67.543C492.721 67.1229 492.634 66.8681 492.58 66.7324C492.528 66.7276 492.462 66.7241 492.382 66.7236C492.332 66.8893 492.269 67.1273 492.21 67.4551C492.066 68.2556 491.97 69.37 491.97 70.8486V214.822C491.97 217.392 492.263 218.72 492.452 219.271C492.464 219.271 492.476 219.27 492.486 219.27C492.507 219.226 492.537 219.162 492.569 219.073C492.641 218.877 492.724 218.591 492.801 218.197C492.957 217.397 493.062 216.29 493.062 214.822V70.8486ZM670.498 70.8486C670.498 69.378 670.393 68.2988 670.241 67.543C670.157 67.123 670.069 66.8681 670.016 66.7324C669.964 66.7276 669.898 66.7242 669.817 66.7236C669.767 66.8893 669.705 67.1272 669.646 67.4551C669.501 68.2556 669.405 69.37 669.405 70.8486V214.822C669.405 217.393 669.699 218.72 669.888 219.271C669.9 219.271 669.911 219.27 669.922 219.27C669.943 219.226 669.971 219.162 670.004 219.073C670.076 218.877 670.159 218.591 670.236 218.197C670.393 217.397 670.498 216.29 670.498 214.822V70.8486ZM76.0215 71.3154C76.0215 69.8587 75.9156 68.784 75.7637 68.0293C75.6813 67.62 75.5966 67.3657 75.542 67.2256C75.5099 67.223 75.4726 67.2218 75.4297 67.2207C75.3823 67.3824 75.3225 67.6094 75.2676 67.918C75.126 68.7141 75.0322 69.827 75.0322 71.3154V214.589C75.0322 216.992 75.2887 218.314 75.4795 218.931C75.4942 218.896 75.5138 218.856 75.5312 218.809C75.6026 218.614 75.6852 218.331 75.7617 217.94C75.9173 217.147 76.0215 216.048 76.0215 214.589V71.3154ZM146.026 71.3154C146.026 69.8587 145.92 68.784 145.769 68.0293C145.686 67.6199 145.602 67.3657 145.547 67.2256C145.514 67.223 145.476 67.2217 145.432 67.2207C145.385 67.3838 145.327 67.6102 145.273 67.9141C145.132 68.7132 145.038 69.8277 145.038 71.3154V214.589C145.038 217.014 145.293 218.334 145.48 218.942C145.496 218.905 145.518 218.862 145.537 218.809C145.608 218.614 145.69 218.331 145.767 217.94C145.922 217.147 146.026 216.048 146.026 214.589V71.3154ZM713 76.8223C713 61.4769 708.997 50.8001 701.843 43.8662C694.569 36.8165 684.245 33 670.152 33C656.08 33 645.701 36.8525 638.298 44.0303C631.001 51.1053 626.974 61.734 626.974 76.8223V208.849C626.974 224.172 631.014 234.907 638.298 241.97C645.694 249.141 656.304 253 670.152 253C683.966 253 694.261 249.16 701.677 241.97C708.939 234.906 712.977 224.169 712.977 208.849C712.977 208.687 712.984 208.525 713 208.365V76.8223ZM198.068 208.635C198.068 225.582 193.592 239.249 183.85 248.741C174.243 258.101 161.523 262.547 145.684 262.547C131.626 262.547 119.769 259.044 110.541 251.676C101.39 259.032 89.7887 262.547 75.6973 262.547C59.8802 262.547 46.8538 258.119 37.2207 248.743L37.2188 248.741C27.4763 239.249 23 225.582 23 208.635V77.2695C23.0001 60.52 27.4887 46.9666 37.2168 37.4775L37.2188 37.4756C46.8546 28.0869 59.9022 23.6699 75.6973 23.6699C89.7217 23.67 101.552 27.1161 110.705 34.4062C119.907 27.1209 131.715 23.67 145.684 23.6699C161.36 23.6699 174.289 27.971 183.807 37.1279C183.878 37.1901 183.948 37.2539 184.017 37.3203C193.659 46.7227 198.068 60.354 198.068 77.2695V208.635ZM284.62 70.8486C284.62 68.4064 284.277 67.2257 284.073 66.7715C283.869 67.226 283.527 68.4072 283.527 70.8486V214.822C283.527 216.29 283.632 217.397 283.789 218.197C283.866 218.591 283.95 218.877 284.021 219.073C284.035 219.11 284.05 219.142 284.062 219.171C284.073 219.142 284.089 219.11 284.103 219.073C284.174 218.877 284.258 218.591 284.335 218.197C284.492 217.397 284.597 216.29 284.597 214.822V170.727C284.597 167.965 286.835 165.727 289.597 165.727H332.052C333.284 165.727 334.411 166.174 335.282 166.913V118.778C334.414 119.505 333.296 119.943 332.075 119.943H289.62C286.859 119.943 284.62 117.705 284.62 114.943V70.8486ZM345.282 208.849C345.282 224.172 349.321 234.907 356.605 241.97C364.001 249.141 374.612 253 388.461 253C402.274 253 412.568 249.16 419.984 241.97C427.247 234.906 431.284 224.169 431.284 208.849C431.284 208.687 431.292 208.527 431.308 208.367V76.8223C431.308 61.4769 427.304 50.8001 420.15 43.8662C412.877 36.8167 402.554 33 388.461 33C374.388 33 364.008 36.8523 356.605 44.0303C349.309 51.1053 345.282 61.734 345.282 76.8223V208.849ZM449.539 208.849C449.539 224.172 453.578 234.907 460.862 241.97C468.258 249.141 478.869 253 492.718 253C506.531 253 516.825 249.16 524.241 241.97C531.503 234.906 535.541 224.169 535.541 208.849C535.541 208.687 535.549 208.525 535.564 208.365V76.8223C535.564 61.4769 531.561 50.8001 524.407 43.8662C517.134 36.8167 506.81 33.0001 492.718 33C478.645 33 468.265 36.8524 460.862 44.0303C453.565 51.1053 449.539 61.734 449.539 76.8223V208.849ZM723 208.825C723 209 722.99 209.174 722.972 209.347C722.884 226.152 718.358 239.698 708.643 249.145L708.638 249.149C698.93 258.562 685.904 263 670.152 263C654.437 263 641.064 258.582 631.336 249.149C627.678 245.603 624.756 241.478 622.527 236.82V253.249C622.527 256.01 620.289 258.249 617.527 258.249H549.079C546.318 258.249 544.079 256.01 544.079 253.249V224.389C542.039 234.367 537.827 242.708 531.207 249.145L531.202 249.149C521.495 258.562 508.469 263 492.718 263C477.002 263 463.629 258.581 453.901 249.149C446.539 242.011 442.153 232.529 440.411 221.071C438.671 232.528 434.291 242.007 426.95 249.145L426.945 249.149C417.238 258.562 404.212 263 388.461 263C372.745 263 359.372 258.582 349.645 249.149C342.304 242.032 337.923 232.585 336.171 221.173C334.38 232.925 329.815 242.527 322.104 249.56C312.153 258.637 299.357 263 284.204 263C269.048 263 256.221 258.635 246.162 249.581C235.77 240.226 231.049 226.315 231.049 208.849V76.8223C231.049 59.2113 235.723 45.2353 246.044 36.0674C256.001 27.2227 268.781 23 283.896 23C298.978 23 312.102 27.2041 322.08 36.0674C329.849 42.9679 334.417 52.5924 336.202 64.4404C337.976 53.2271 342.354 43.9195 349.645 36.8506C359.365 27.4254 372.496 23 388.461 23C404.405 23 417.496 27.3674 427.11 36.6855C434.383 43.7349 438.713 53.1597 440.438 64.5723C442.198 53.3 446.582 43.9472 453.901 36.8506C463.622 27.4255 476.753 23 492.718 23C508.662 23.0001 521.753 27.3674 531.367 36.6855C537.89 43.0083 542.047 51.2417 544.079 61.1064V32.7266C544.079 29.9655 546.318 27.7268 549.079 27.7266H591.227C593.988 27.7266 596.226 29.9653 596.227 32.7266V214.549H617.155C617.036 212.693 616.974 210.792 616.974 208.849V76.8223C616.974 59.974 621.509 46.3789 631.336 36.8506C641.057 27.4253 654.187 23 670.152 23C686.097 23 699.189 27.3672 708.803 36.6855C718.536 46.1197 723 59.8077 723 76.8223V208.825ZM86.0215 214.589C86.0215 218.142 85.5717 221.791 83.8008 224.522L83.7998 224.521C81.8436 227.555 78.7571 228.989 75.3662 228.989C71.9639 228.989 68.7892 227.527 66.9424 224.267C65.4333 221.617 65.0322 218.099 65.0322 214.589V71.3154C65.0322 67.979 65.3785 64.4885 66.8965 61.8682L67.0469 61.6172C68.9697 58.5093 72.1233 57.2188 75.3662 57.2188C78.5205 57.2188 81.497 58.4229 83.5156 61.1338L83.708 61.4014L83.7207 61.4199C85.575 64.1086 86.0215 67.7956 86.0215 71.3154V214.589ZM156.026 214.589C156.026 218.133 155.578 221.772 153.817 224.502L153.818 224.503C151.863 227.549 148.769 228.989 145.371 228.989C141.963 228.989 138.804 227.524 136.95 224.287C135.427 221.627 135.038 218.092 135.038 214.589V71.3154C135.038 67.8664 135.409 64.2742 137.03 61.6387L137.214 61.3506C139.152 58.4317 142.219 57.2188 145.371 57.2188C148.539 57.2188 151.506 58.4261 153.521 61.1338L153.714 61.4014L153.727 61.4199C155.581 64.1086 156.026 67.7956 156.026 71.3154V214.589ZM294.62 109.943H327.075V76.8223C327.075 60.8506 322.856 50.1327 315.438 43.5439C307.678 36.6506 297.103 33 283.896 33C270.724 33 260.467 36.632 252.686 43.5439C245.268 50.1327 241.049 60.8506 241.049 76.8223V208.849C241.049 224.589 245.269 235.323 252.852 242.148C260.768 249.274 271.073 253 284.204 253C297.338 253 307.579 249.274 315.366 242.171C322.85 235.345 327.052 224.597 327.052 208.849V175.727H294.597V214.822C294.597 218.391 294.144 222.056 292.372 224.787L292.371 224.786C290.398 227.853 287.276 229.276 283.896 229.276C280.468 229.276 277.588 227.641 275.752 224.786C273.981 222.056 273.527 218.39 273.527 214.822V70.8486C273.527 67.3943 274.009 63.9179 275.732 61.2197C277.559 58.3588 280.418 56.7002 283.896 56.7002C287.172 56.7002 290.085 58.0345 292.035 60.7021C292.172 60.8653 292.299 61.0378 292.415 61.2197C294.138 63.9179 294.62 67.3943 294.62 70.8486V109.943ZM398.829 214.822C398.829 218.377 398.379 222.028 396.624 224.755L396.625 224.756C394.654 227.843 391.52 229.276 388.13 229.276C384.718 229.276 381.564 227.812 379.696 224.586C379.693 224.58 379.689 224.574 379.686 224.567C379.683 224.564 379.681 224.56 379.679 224.557C378.135 221.89 377.737 218.335 377.737 214.822V70.8486C377.737 67.4172 378.116 63.817 379.739 61.1758C381.668 57.998 384.877 56.7236 388.13 56.7236C391.406 56.7237 394.49 57.9956 396.519 60.9199C398.393 63.6221 398.829 67.3242 398.829 70.8486V214.822ZM503.062 214.822C503.062 218.391 502.61 222.056 500.838 224.787L500.837 224.786C498.864 227.853 495.741 229.276 492.362 229.276C488.95 229.276 485.797 227.811 483.93 224.586C483.926 224.58 483.923 224.574 483.919 224.567C483.917 224.564 483.914 224.56 483.912 224.557C482.368 221.891 481.97 218.335 481.97 214.822V70.8486C481.97 67.417 482.349 63.8169 483.973 61.1758C485.901 57.9981 489.109 56.7237 492.362 56.7236C495.639 56.7236 498.723 57.9954 500.752 60.9199C502.626 63.6221 503.062 67.324 503.062 70.8486V214.822ZM680.498 214.822C680.498 218.391 680.045 222.056 678.273 224.787L678.272 224.786C676.3 227.853 673.177 229.276 669.798 229.276C666.386 229.276 663.233 227.811 661.365 224.586L661.364 224.587C659.805 221.917 659.405 218.348 659.405 214.822V70.8486C659.405 67.3985 659.789 63.7787 661.435 61.1338C663.366 57.9872 666.559 56.7236 669.798 56.7236C672.972 56.7236 675.966 57.9175 677.994 60.6514L678.188 60.9199L678.358 61.1768C680.088 63.8539 680.498 67.4341 680.498 70.8486V214.822Z" fill="#F7F7F7"/>
<path d="M193.068 77.27C193.068 61.1802 188.884 49.0508 180.526 40.9002H180.517L180.122 40.5215C172.05 32.874 161.029 28.9246 147.066 28.6816L145.684 28.6699C130.833 28.6699 119.173 32.7957 110.704 41.0565C110.703 41.0579 110.694 41.0665 110.686 41.0749C110.631 41.0106 110.576 40.9554 110.52 40.9002C102.414 33.0044 91.2614 28.9287 77.0791 28.6816L75.6971 28.6699C60.8555 28.6699 49.1864 32.7957 40.7082 41.0565C32.2391 49.3173 28 61.3916 28 77.27V208.635L28.0127 210.133C28.2694 225.491 32.504 237.167 40.7082 245.16C48.9215 253.154 60.1121 257.285 74.3135 257.535L75.6971 257.547C90.557 257.547 101.895 253.412 110.364 245.16C110.419 245.105 110.484 245.05 110.539 244.986C110.594 245.05 110.649 245.105 110.704 245.16C119.183 253.412 130.833 257.547 145.684 257.547C160.071 257.547 171.178 253.666 179.558 245.922L180.36 245.16C188.564 237.167 192.799 225.491 193.056 210.133L193.068 208.635V77.27ZM288.527 160.727H330.282V124.943H288.527V160.727ZM151.027 214.589C151.027 217.934 150.558 220.341 149.611 221.802C148.673 223.263 147.256 223.989 145.371 223.989L145.024 223.98C143.432 223.901 142.241 223.266 141.451 222.067L141.289 221.802C140.504 220.432 140.091 218.231 140.043 215.205L140.038 214.589V71.3156C140.038 67.9708 140.452 65.6184 141.289 64.2585C142.125 62.8985 143.486 62.2186 145.371 62.2186C147.256 62.2186 148.663 62.8985 149.611 64.2585C150.548 65.6184 151.027 67.9708 151.027 71.3156V214.589ZM81.0213 214.589L81.0156 215.205C80.9606 218.231 80.4929 220.432 79.6052 221.802C78.6672 223.263 77.2511 223.989 75.366 223.989L75.0186 223.98C73.3128 223.895 72.0683 223.172 71.2924 221.802C70.4556 220.341 70.0326 217.934 70.0326 214.589V71.3156C70.0327 68.1802 70.3963 65.9167 71.1387 64.5254L71.2924 64.2585C72.1292 62.8985 73.4902 62.2186 75.366 62.2186C77.2419 62.2186 78.658 62.8985 79.6052 64.2585C80.5431 65.6184 81.0213 67.9708 81.0213 71.3156V214.589ZM675.498 214.822L675.492 215.441C675.437 218.484 674.966 220.698 674.079 222.065C673.133 223.547 671.69 224.276 669.798 224.276L669.449 224.268C667.736 224.182 666.481 223.454 665.682 222.065C664.884 220.698 664.46 218.484 664.41 215.441L664.405 214.822V70.8487C664.405 67.7178 664.779 65.4342 665.527 64.0371L665.682 63.7699C666.51 62.4059 667.882 61.7239 669.798 61.7239C671.714 61.7239 673.133 62.4059 674.079 63.7699C675.025 65.1339 675.498 67.4857 675.498 70.8487V214.822ZM498.063 214.822L498.058 215.441C498.002 218.484 497.531 220.698 496.644 222.065C495.698 223.547 494.255 224.276 492.363 224.276L492.014 224.268C490.301 224.182 489.045 223.454 488.247 222.065C487.449 220.698 487.024 218.484 486.975 215.441L486.97 214.822V70.8487C486.97 67.5092 487.396 65.1339 488.247 63.7699C489.075 62.4059 490.447 61.7239 492.363 61.7239C494.278 61.7239 495.698 62.4059 496.644 63.7699C497.59 65.1339 498.063 67.4857 498.063 70.8487V214.822ZM393.83 214.822L393.824 215.441C393.769 218.484 393.297 220.698 392.411 222.065C391.464 223.547 390.022 224.276 388.13 224.276L387.781 224.268C386.068 224.182 384.812 223.455 384.014 222.065C383.216 220.698 382.792 218.484 382.742 215.441L382.737 214.822V70.8487C382.737 67.5092 383.163 65.1339 384.014 63.7699C384.842 62.4059 386.214 61.7239 388.13 61.7239C390.045 61.7239 391.464 62.4059 392.411 63.7699C393.357 65.1339 393.83 67.4857 393.83 70.8487V214.822ZM718 76.8221C718 60.8952 713.898 48.8422 705.716 40.6631L705.323 40.2761C696.879 32.092 685.171 28 670.153 28C655.134 28 643.379 32.1391 634.817 40.4407L634.419 40.833C626.123 49.1221 621.974 61.1033 621.974 76.8221V208.849C621.974 225.029 626.255 237.258 634.817 245.559C643.379 253.861 655.37 258 670.153 258C684.704 258 696.229 253.989 704.753 245.945L705.157 245.559C713.429 237.517 717.705 225.789 717.964 210.354L717.976 208.849L718 208.825V76.8221ZM203.068 208.635C203.068 226.43 198.355 241.59 187.339 252.323C176.596 262.791 162.512 267.547 145.684 267.547C132.237 267.547 120.312 264.509 110.552 257.89C100.904 264.49 89.1928 267.547 75.6973 267.547C58.923 267.547 44.5213 262.826 33.7334 252.326L33.7295 252.323C22.7132 241.59 18 226.43 18 208.635V77.2695C18.0001 59.6485 22.7382 44.6158 33.7256 33.8984L33.7295 33.8945C44.5228 23.378 58.9488 18.6699 75.6973 18.6699C89.0968 18.6699 101.001 21.6545 110.711 28.2119C120.444 21.6636 132.32 18.67 145.684 18.6699C160.802 18.6699 174.013 22.4646 184.319 30.9004H184.595L187.507 33.7402C198.433 44.3944 203.068 59.528 203.068 77.2695V208.635ZM236.049 208.849C236.049 225.452 240.519 237.775 249.507 245.865C258.214 253.702 269.34 257.743 282.886 257.988L284.204 258C297.906 258 309.144 254.204 317.896 246.611L318.735 245.865C327.328 238.028 331.769 226.218 332.038 210.393L332.051 208.849V170.727H289.596V214.822L289.591 215.441C289.535 218.484 289.064 220.698 288.177 222.065C287.231 223.547 285.789 224.276 283.896 224.276L283.586 224.268C282.053 224.182 280.834 223.454 279.947 222.065C279.06 220.698 278.589 218.484 278.533 215.441L278.527 214.822V70.8487C278.527 67.6973 279.001 65.3926 279.947 63.911C280.893 62.4294 282.194 61.7004 283.896 61.7004C285.692 61.7004 287.052 62.3617 287.994 63.6455L288.177 63.911H288.201C289.147 65.3926 289.62 67.6973 289.62 70.8487V114.944H332.075V76.8221C332.075 60.0307 327.628 47.684 318.759 39.8057C310.167 32.1737 298.778 28.2496 285.216 28.0117L283.896 28C269.753 28 258.234 31.9274 249.365 39.8057L248.952 40.1787C240.358 48.0714 236.049 60.2933 236.049 76.8221V208.849ZM340.282 208.849L340.295 210.354C340.554 225.789 344.831 237.517 353.125 245.559C361.419 253.601 372.932 257.738 387.083 257.988L388.461 258C403.012 258 414.538 253.989 423.062 245.945L423.465 245.559C432.003 237.258 436.284 225.029 436.284 208.849L436.308 208.825V76.8221C436.308 60.8951 432.206 48.8422 424.023 40.6631L423.631 40.2761C415.451 32.3478 404.208 28.2595 389.859 28.0117L388.461 28C373.442 28 361.687 32.1391 353.125 40.4407C344.563 48.7423 340.282 60.8538 340.282 76.8221V208.849ZM444.539 208.849C444.539 225.029 448.82 237.258 457.382 245.559C465.676 253.601 477.189 257.738 491.34 257.988L492.717 258C507.269 258 518.795 253.989 527.318 245.945L527.722 245.559C536.26 237.258 540.541 225.029 540.541 208.849L540.565 208.825V76.8221C540.565 60.8951 536.462 48.8422 528.28 40.6631L527.888 40.2761C519.708 32.3479 508.465 28.2596 494.116 28.0117L492.717 28C477.699 28 465.944 32.1391 457.382 40.4407L456.983 40.833C448.687 49.1221 444.539 61.1035 444.539 76.8221V208.849ZM549.079 32.727V253.249H617.527V219.549H591.227V32.727H549.079ZM601.227 209.549H611.979C611.978 209.316 611.974 209.082 611.974 208.849V76.8223C611.974 59.0942 616.764 44.0166 627.855 33.2617C638.735 22.7128 653.241 18 670.152 18C687.023 18 701.498 22.643 712.282 33.0957C723.305 43.78 728 58.9731 728 76.8223V212.988L727.879 213.107C727.166 229.156 722.322 242.818 712.128 252.729L712.118 252.738C701.265 263.262 686.873 268 670.152 268C653.503 268 638.749 263.301 627.855 252.738C627.745 252.631 627.636 252.523 627.527 252.415V263.249H539.079V247.817C537.744 249.542 536.285 251.182 534.693 252.729L534.683 252.738C523.829 263.262 509.438 268 492.718 268C476.068 268 461.315 263.301 450.421 252.738C446.197 248.643 442.891 243.906 440.414 238.626C437.942 243.902 434.646 248.636 430.437 252.729L430.426 252.738C419.572 263.262 405.181 268 388.461 268C371.811 268 357.058 263.301 346.164 252.738C341.949 248.652 338.648 243.927 336.173 238.661C333.564 244.189 330.034 249.094 325.475 253.253C314.44 263.317 300.367 268 284.204 268C268.035 268 253.946 263.316 242.816 253.298C231.019 242.679 226.049 227.178 226.049 208.849V76.8223C226.049 58.3915 230.951 42.7866 242.724 32.3291C253.769 22.5182 267.81 18 283.896 18C299.915 18 314.313 22.481 325.4 32.3291C330.068 36.4755 333.655 41.4317 336.285 47.0518C338.749 41.9088 342.016 37.2833 346.164 33.2617C357.044 22.7127 371.55 18 388.461 18C405.331 18 419.807 22.6431 430.591 33.0957C434.78 37.156 438.054 41.8679 440.505 47.1289C442.973 41.955 446.253 37.3034 450.421 33.2617C461.301 22.7127 475.807 18 492.718 18C509.588 18.0001 524.063 22.6431 534.848 33.0957C536.379 34.5799 537.788 36.1514 539.079 37.8047V22.7266H601.227V209.549Z" fill="#3A0888"/>
</svg>
