<svg width="272" height="330" viewBox="0 0 272 330" fill="none" xmlns="http://www.w3.org/2000/svg">
<g filter="url(#filter0_dd_14_457)">
<path d="M219.429 264.418C228.79 267.238 248.997 260.212 254.79 269.939C257.143 273.891 257.358 299.212 256.491 304.513C253.968 319.921 235.293 314.127 224.789 314.048C221.87 314.028 219.533 315.795 216.547 315.828C212.835 315.869 208.805 313.206 205.791 313.248C202.777 313.289 198.561 315.84 194.255 315.84C190.791 315.84 187.298 314.098 184.3 314.094C132.737 314.053 80.4687 316.678 28.3528 315.832C11.0318 315.558 10.1977 301.348 10.557 287.201C10.9533 271.569 14.0625 264.339 31.2555 264.43C28.5675 244.227 24.9382 218.097 36.0245 200.126C29.8104 191.793 27.6096 186.621 26.3173 176.219C22.1883 142.951 21.09 66.0706 27.1967 33.8851C32.0689 8.23212 62.2889 11.994 82.8057 11.0027C102.794 10.0405 124.744 9.78333 144.765 10.1774C174.993 10.7746 218.211 8.45609 236.292 37.589C239.55 42.8357 239.752 48.8663 242.201 53.1923C244.917 57.9952 252.164 61.3673 254.827 67.8541C260.001 80.4629 258.944 129.297 256.322 143.693C254.187 155.402 249.034 160.176 241.742 168.766C253.44 181.528 253.237 204.369 251.598 220.934C249.55 241.652 231.391 249.926 219.433 264.422L219.429 264.418ZM225.214 177.476C229.735 172.942 228.918 166.82 230.594 162.594C232.7 157.277 242.952 153.519 245.475 144.403C248.365 133.955 248.976 81.0684 245.186 71.7321C242.87 66.0292 232.518 61.052 231.424 58.2151C227.807 48.829 232.77 46.4317 222.299 36.7304C203.999 19.7708 180.823 21.6828 157.148 20.9446C125.565 19.9616 85.1262 19.4514 53.9731 22.6534C43.6466 23.7152 38.4853 27.1826 37.0443 37.9622C32.7791 69.8989 31.7262 148.347 37.1104 179.471C39.5382 193.51 51.9458 193.009 63.4409 193.224C57.4786 199.952 43.5392 204.083 40.7026 213.046C38.729 219.292 38.6505 250.884 40.7356 256.981C42.8208 263.078 48.1554 264.476 53.9153 265.289L204.041 264.277C211.642 254.791 237.597 237.293 240.661 226.521C242.671 219.45 242.18 193.166 240.326 185.908C238.584 179.068 231.577 176.746 225.21 177.472L225.214 177.476ZM38.3904 277.968C35.3927 275.148 24.4592 273.526 22.2254 276.492C22.3906 288.288 14.6281 307.163 33.1177 303.153C43.2708 300.95 44.7985 283.991 38.3904 277.968ZM51.8839 302.522V277.267C49.8854 274.484 47.3255 274.43 45.2816 277.267V301.282L51.8839 302.522ZM63.6556 296.512C61.6613 294.244 62.0246 286.293 63.2303 283.675C65.8357 278.022 71.9424 282.236 74.2133 280.623L73.3421 275.608C46.5905 269.308 51.0663 314.525 76.5256 301.158C76.7444 291.917 79.1888 282.439 66.038 286.902L66.2775 290.988C74.4446 291.589 69.1388 302.738 63.6597 296.512H63.6556ZM87.3765 276.023L80.7743 277.263V302.107H87.3765V276.023ZM97.2778 280.992V302.107H103.88V280.992C106.869 281.651 112.262 281.096 110.119 276.869C108.591 273.858 95.6757 275.347 92.3271 275.612C87.9009 280.303 92.451 281.73 97.2778 280.996V280.992ZM118.497 275.347C116.209 276.131 108.979 299.996 109.747 301.975C110.131 302.962 110.726 303.323 111.754 303.393L114.619 302.945C117.795 301.228 113.872 295.923 120.813 296.666C125.941 297.217 124.1 305.795 129.756 303.252C132.618 301.966 126.944 282.452 125.503 279.582C123.976 276.542 122.617 273.933 118.497 275.347ZM141.02 297.553V277.263C139.022 274.48 136.462 274.426 134.418 277.263V301.278C137.535 304.7 154.637 305.496 149.959 297.682L141.02 297.553ZM170.736 297.553V277.263C168.738 274.48 166.178 274.426 164.134 277.263V302.518C168.651 303.182 183.454 306.35 179.036 297.914L170.736 297.553ZM190.324 275.393C178.078 277.89 178.127 306.923 196.542 303.144C208.504 300.689 208.587 271.664 190.324 275.393ZM216.143 295.89L211.952 276.496C210.721 274.352 206.758 274.812 205.771 276.861C207.513 281.855 212.195 315.778 220.899 299.436C222.254 296.894 228.385 276.21 226.758 275.293C218.492 270.627 219.054 292.365 216.147 295.89H216.143ZM244.604 275.194C241.994 274.347 235.4 275.816 232.225 275.194C230.792 275.194 229.009 300.49 232.225 303.348H244.604L245.702 297.682C239.434 296.753 235.375 300.585 236.759 291.751H243.778L245.355 286.687C239.864 284.563 235.367 289.047 236.759 280.988L246.301 279.337C247.362 277.956 245.661 275.542 244.604 275.198V275.194Z" fill="#FCC803"/>
<path d="M225.214 177.476C231.581 176.75 238.588 179.068 240.33 185.912C242.18 193.17 242.675 219.454 240.665 226.525C237.601 237.297 211.642 254.796 204.045 264.281L53.9194 265.293C48.1595 264.48 42.8001 263.004 40.7398 256.985C38.6794 250.967 38.729 219.296 40.7067 213.05C43.5433 204.083 57.4827 199.952 63.445 193.228C51.9499 193.013 39.5424 193.514 37.1145 179.475C31.7303 148.351 32.7874 69.903 37.0485 37.9664C38.4895 27.1826 43.6507 23.7193 53.9772 22.6575C85.1304 19.4556 125.57 19.9657 157.152 20.9487C180.823 21.687 204.003 19.7749 222.303 36.7345C232.774 46.4358 227.811 48.8332 231.428 58.2192C232.522 61.0603 242.874 66.0333 245.19 71.7363C248.98 81.0726 248.369 133.959 245.479 144.407C242.956 153.523 232.704 157.281 230.598 162.598C228.926 166.825 229.744 172.946 225.218 177.48L225.214 177.476ZM106.196 26.1913C96.0019 26.3572 54.6296 26.2784 47.9655 29.0449C46.4749 29.6629 43.3121 32.9892 42.7423 34.5695C40.8554 39.8245 40.5251 66.8711 40.3021 74.3534C39.4267 103.544 38.956 139.019 41.1774 167.94C41.8174 176.302 41.6234 185.763 51.5535 187.339C63.1972 189.184 84.9693 188.786 97.6618 189.106C125.347 189.802 155.93 189.665 183.557 188.276C191.976 187.853 205.296 189.827 207.063 178.737C212.311 145.784 210.482 83.6897 207.905 49.5092C207.17 39.7789 208.872 29.2688 196.732 27.5973C171.992 24.1922 132.056 25.7682 106.196 26.1872V26.1913ZM212.014 180.794C228.034 172.561 226.271 155.46 226.89 139.832C227.658 120.45 227.609 97.8829 226.903 78.4845C226.329 62.7028 228.835 43.5864 212.014 35.8801C215.565 84.0962 214.991 132.561 212.014 180.794ZM232.617 154.286C233.307 151.01 237.94 148.052 239.125 145.485C243.237 136.593 243.588 84.5939 240.681 74.5899C239.793 71.5289 235.194 67.6799 232.233 66.4978L232.617 154.282V154.286ZM230.156 182.453C217.584 178.687 211.981 189.732 202.302 192.175C195.287 193.946 187.678 192.577 180.596 193.597L179.816 205.626C185.444 204.137 200.267 207.637 204.557 206.028C206.192 205.414 231.515 183.552 230.156 182.453ZM208.702 252C210.152 253.518 233.48 229.827 234.711 227.177C236.982 222.274 237.795 187.04 234.698 186.609L208.004 210.387L208.706 252H208.702ZM81.596 193.212C70.9721 191.71 63.8868 201.378 55.1829 205.634H81.596V193.212ZM174.861 194.041H87.3765V205.634H174.861V194.041ZM50.8475 210.802C48.9812 211.2 47.2346 211.818 46.19 213.581C43.3906 218.309 43.2956 255.924 47.5154 258.462C85.8777 260.051 124.504 261.22 162.937 260.328C172.037 260.117 191.687 260.818 199.156 259.404C205.102 258.28 204.445 248.798 204.615 243.352C204.767 238.429 204.598 212.9 200.696 211.594L50.8475 210.802Z" fill="#3A0888"/>
<path d="M38.3904 277.968C44.7944 283.991 43.2667 300.954 33.1177 303.153C14.6281 307.163 22.3947 288.288 22.2254 276.492C24.4633 273.526 35.3927 275.148 38.3904 277.968ZM27.9482 297.553L33.7783 296.363C36.6067 290.54 37.2012 279.233 27.9482 280.992V297.553Z" fill="#F7F7F7"/>
<path d="M190.324 275.393C208.583 271.668 208.504 300.693 196.542 303.144C178.131 306.923 178.078 277.89 190.324 275.393ZM189.911 282.016C187.033 284.799 187.55 298.64 193.309 298.196C202.166 297.512 198.029 274.169 189.911 282.016Z" fill="#F7F7F7"/>
<path d="M63.6556 296.512C69.1347 302.738 74.4404 291.589 66.2733 290.988L66.0339 286.902C79.1846 282.439 76.7403 291.917 76.5214 301.158C51.0581 314.525 46.5864 269.308 73.338 275.608L74.2092 280.623C71.9383 282.24 65.8315 278.026 63.2261 283.675C62.0205 286.293 61.6571 294.244 63.6514 296.512H63.6556Z" fill="#F7F7F7"/>
<path d="M118.497 275.347C122.617 273.933 123.976 276.542 125.503 279.582C126.944 282.452 132.618 301.962 129.756 303.252C124.104 305.795 125.941 297.213 120.813 296.666C113.876 295.919 117.799 301.228 114.619 302.945L111.754 303.393C110.726 303.323 110.131 302.962 109.747 301.975C108.979 299.996 116.209 276.135 118.497 275.347ZM121.209 282.643C118.236 282.29 119.727 288.827 118.075 290.706C118.183 293.634 120.867 291.477 122.857 291.743L121.209 282.643Z" fill="#F7F7F7"/>
<path d="M244.604 275.194C245.661 275.538 247.362 277.952 246.301 279.333L236.759 280.984C235.367 289.042 239.868 284.559 245.355 286.682L243.778 291.751H236.759C235.375 300.581 239.434 296.753 245.702 297.678L244.604 303.343H232.225C229.009 300.486 230.792 275.189 232.225 275.189C235.4 275.812 241.994 274.343 244.604 275.189V275.194Z" fill="#F7F7F7"/>
<path d="M216.143 295.89C219.049 292.365 218.488 270.627 226.754 275.293C228.381 276.21 222.249 296.894 220.895 299.436C212.191 315.778 207.509 281.855 205.767 276.861C206.753 274.812 210.717 274.352 211.948 276.496L216.139 295.89L216.143 295.89Z" fill="#F7F7F7"/>
<path d="M97.2778 280.992C92.451 281.726 87.9009 280.303 92.3271 275.608C95.6757 275.343 108.591 273.854 110.119 276.865C112.262 281.096 106.869 281.651 103.88 280.988V302.103H97.2778V280.988V280.992Z" fill="#F7F7F7"/>
<path d="M141.02 297.553L149.959 297.682C154.637 305.496 137.535 304.7 134.418 301.278V277.263C136.462 274.426 139.022 274.48 141.02 277.263V297.553Z" fill="#F7F7F7"/>
<path d="M170.736 297.553L179.036 297.914C183.454 306.355 168.651 303.182 164.134 302.518V277.263C166.178 274.426 168.738 274.48 170.736 277.263V297.553Z" fill="#F7F7F7"/>
<path d="M87.3765 276.023V302.107H80.7701V277.263L87.3765 276.023Z" fill="#F7F7F7"/>
<path d="M51.8839 302.522L45.2816 301.282V277.267C47.3255 274.43 49.8854 274.484 51.8839 277.267V302.522Z" fill="#F7F7F7"/>
<path d="M106.196 26.1913C132.056 25.7682 171.992 24.1963 196.732 27.6015C208.876 29.273 207.175 39.783 207.905 49.5134C210.482 83.6939 212.311 145.788 207.063 178.741C205.296 189.827 191.972 187.857 183.557 188.28C155.93 189.67 125.347 189.802 97.6618 189.11C84.9693 188.79 63.1972 189.193 51.5535 187.343C41.6192 185.767 41.8174 176.306 41.1774 167.944C38.9602 139.023 39.4309 103.549 40.3021 74.3576C40.5251 66.8794 40.8595 39.8328 42.7423 34.5736C43.308 32.9934 46.4749 29.667 47.9655 29.049C54.6296 26.2826 96.0019 26.3614 106.196 26.1954V26.1913ZM102.067 41.9232C95.461 42.1887 64.9108 43.6196 61.0378 46.3031C57.1648 48.9866 55.6082 75.0212 55.2035 81.027C53.808 101.831 53.9318 125.68 56.0252 146.414C56.7106 153.196 56.5083 165.817 64.0313 168.193C79.4737 173.071 127.097 172.399 144.765 171.715C152.222 171.424 181.075 170.114 186.398 167.94C189.948 166.489 190.58 161.893 191.237 158.716C196.096 135.245 195.3 95.2408 193.004 71.0851C192.219 62.8438 193.281 47.5764 184.122 45.2164C164.853 40.2434 122.861 41.0978 102.063 41.9274L102.067 41.9232ZM174.981 180.673L187.475 181.445C196.344 174.133 176.979 173.179 174.973 177.185L174.981 180.673Z" fill="#7670C5"/>
<path d="M50.8475 210.802L200.696 211.594C204.598 212.9 204.767 238.429 204.615 243.352C204.445 248.798 205.098 258.28 199.156 259.404C191.683 260.818 172.033 260.117 162.937 260.328C124.504 261.22 85.8777 260.051 47.5154 258.462C43.2956 255.924 43.3906 218.309 46.19 213.581C47.2346 211.818 48.9812 211.2 50.8475 210.802ZM151.338 221.37C148.725 222.125 137.746 221.37 134.005 221.37C131.61 221.37 131.61 227.168 134.005 227.168H150.513C151.487 227.168 158.457 232.855 168.697 232.162C176.802 231.615 177.475 228.437 181.224 227.342C184.3 226.447 195.725 228.778 196.27 224.995C193.879 218.583 184.824 222.668 180.415 221.37C179.382 221.067 179.601 218.715 175.278 218.048C172.611 217.637 157.829 217.558 155.488 218.085C153.147 218.612 152.16 221.133 151.334 221.37H151.338ZM62.4251 220.785C43.0479 219.927 53.9855 232.432 67.607 227.62C74.4157 225.215 67.9786 221.03 62.4251 220.785Z" fill="#7670C5"/>
<path d="M212.014 180.794C214.991 132.561 215.565 84.092 212.014 35.8801C228.831 43.5864 226.325 62.7028 226.903 78.4845C227.609 97.8829 227.663 120.454 226.89 139.832C226.271 155.46 228.034 172.557 212.014 180.794Z" fill="#7670C5"/>
<path d="M208.702 252L208 210.387L234.694 186.609C237.791 187.044 236.977 222.278 234.707 227.177C233.48 229.831 210.147 253.518 208.698 252L208.702 252Z" fill="#7670C5"/>
<path d="M174.861 194.041H87.3765V205.634H174.861V194.041Z" fill="#7670C5"/>
<path d="M232.617 154.286L232.233 66.502C235.198 67.6841 239.793 71.5331 240.681 74.594C243.588 84.5981 243.237 136.597 239.125 145.489C237.94 148.052 233.307 151.014 232.617 154.29V154.286Z" fill="#7670C5"/>
<path d="M230.156 182.453C231.515 183.548 206.192 205.414 204.557 206.028C200.267 207.637 185.444 204.141 179.816 205.626L180.596 193.597C187.678 192.577 195.287 193.946 202.302 192.175C211.977 189.732 217.584 178.687 230.156 182.453Z" fill="#7670C5"/>
<path d="M81.596 193.212V205.634H55.1829C63.8868 201.378 70.9721 191.71 81.596 193.212Z" fill="#7670C5"/>
<path d="M27.9482 297.553V280.992C37.2012 279.229 36.6067 290.54 33.7783 296.363L27.9482 297.553Z" fill="#FCC803"/>
<path d="M193.309 298.196C202.166 297.512 198.029 274.169 189.911 282.016C187.038 284.799 187.55 298.64 193.309 298.196Z" fill="#FCC803"/>
<path d="M121.209 282.643L122.857 291.743C120.867 291.477 118.183 293.634 118.075 290.706C119.727 288.827 118.236 282.29 121.209 282.643Z" fill="#FCC803"/>
<path d="M102.067 41.9232C122.861 41.0937 164.857 40.2393 184.127 45.2123C193.281 47.5764 192.224 62.8397 193.008 71.081C195.304 95.2367 196.101 135.24 191.241 158.712C190.584 161.885 189.953 166.484 186.402 167.936C181.079 170.11 152.226 171.42 144.769 171.71C127.101 172.395 79.4778 173.067 64.0354 168.189C56.5124 165.813 56.7148 153.191 56.0293 146.41C53.936 125.676 53.8121 101.827 55.2077 81.0228C55.6123 75.0171 57.1153 49.0198 61.0419 46.299C64.9686 43.5781 95.4652 42.1845 102.072 41.9191L102.067 41.9232ZM63.6308 162.382C103.455 168.513 144.505 168.164 184.436 162.665C190.378 125.751 190.857 87.0617 184.787 50.347C144.79 45.4777 104.177 45.6022 64.2171 50.3263C59.539 53.4329 58.1888 150.466 63.6308 162.387V162.382Z" fill="#3A0888"/>
<path d="M174.981 180.673L174.973 177.185C176.979 173.179 196.344 174.133 187.475 181.445L174.981 180.673Z" fill="#3A0888"/>
<path d="M151.338 221.37C152.16 221.129 153.151 218.608 155.492 218.085C157.833 217.562 172.615 217.637 175.282 218.048C179.61 218.715 179.387 221.067 180.419 221.37C184.829 222.668 193.879 218.583 196.274 224.995C195.729 228.778 184.304 226.447 181.228 227.342C177.475 228.437 176.806 231.615 168.701 232.162C158.457 232.855 151.491 227.168 150.517 227.168H134.009C131.614 227.168 131.614 221.37 134.009 221.37C137.75 221.37 148.729 222.125 151.343 221.37H151.338Z" fill="#3A0888"/>
<path d="M67.607 227.62C74.4157 225.215 67.9786 221.03 62.4251 220.785C43.0479 219.927 53.9855 232.432 67.607 227.62Z" fill="#3A0888"/>
<path d="M113.785 74.7972C113.893 77.2692 113.707 79.7827 113.781 82.2547C116.246 82.3293 118.753 82.1427 121.213 82.2505C121.28 83.7395 120.743 89.2973 121.697 89.7204L128.646 89.7079C128.72 87.2359 128.534 84.7225 128.641 82.2505C131.106 82.1468 133.609 82.3293 136.074 82.2547L136.065 74.7931C143.208 74.8677 150.389 74.706 157.528 74.7972C157.635 77.2692 157.449 79.7827 157.524 82.2547C159.989 82.3293 162.495 82.1427 164.956 82.2505C165.27 89.8655 165.257 98.646 164.956 106.265C162.495 106.373 159.989 106.186 157.524 106.261C157.449 108.733 157.635 111.247 157.528 113.718C155.067 113.826 152.561 113.64 150.096 113.714L150.104 121.176L142.668 121.168C143.27 128.679 143.155 130.313 135.248 128.629V136.082L127.812 136.074L127.82 143.536C119.57 144.249 121.114 143.498 121.218 136.074L113.781 136.082L113.79 128.621L106.353 128.629C107.039 121.3 106.192 120.496 98.9253 121.176L98.9335 113.714C96.4685 113.64 93.9622 113.826 91.5014 113.718C91.3486 111.255 91.6128 108.729 91.5055 106.261C89.0364 106.224 86.5425 106.319 84.0733 106.265C84.1229 98.2064 84.1229 90.3093 84.0733 82.2505C86.5342 82.1468 89.0364 82.3003 91.5014 82.2505C91.4146 86.7009 89.0075 92.296 92.3024 96.763C100.792 100.131 98.7064 91.6449 99.8336 90.6163C100.189 90.2927 105.755 90.3093 106.254 89.6084C106.721 88.9489 106.642 82.574 105.585 81.7943C104.396 80.915 94.148 82.2007 91.5014 82.2588C91.5509 79.7868 91.3734 77.2692 91.5014 74.8055C98.5908 74.5235 106.696 74.5235 113.785 74.8055V74.7972Z" fill="#7670C5"/>
<path d="M63.6308 162.382C58.1888 150.462 59.539 53.4287 64.2171 50.3221C104.177 45.598 144.794 45.4736 184.787 50.3429C190.857 87.0576 190.378 125.747 184.436 162.66C144.505 168.164 103.455 168.513 63.6308 162.378V162.382ZM91.5014 74.7972C89.0364 74.8968 86.5342 74.7226 84.0692 74.7931C84.0816 77.2692 84.0568 79.7702 84.0733 82.2505C82.591 82.3127 77.0541 81.7818 76.6288 82.7358L76.6494 107.091C79.2094 106.668 81.4225 106.211 84.0733 106.265C84.0568 108.745 84.0816 111.247 84.0692 113.723C86.5342 113.797 89.0405 113.611 91.5014 113.718C91.5963 115.257 91.2041 121.711 91.4972 122.005C91.8482 122.358 97.7567 121.64 98.1077 121.997C99.3588 123.258 94.6229 131.893 105.536 129.45L105.527 136.912C117.609 134.423 112.402 142.972 113.781 144.365C114.132 144.718 120.045 144.004 120.392 144.357C121.449 145.427 117.212 155.576 128.307 151.026L128.778 144.486L136.078 144.365L136.069 136.904C143.336 137.584 144.183 136.779 143.497 129.45C154.737 132.03 149.534 122.561 150.926 121.168C151.281 120.811 157.189 121.528 157.536 121.176C157.796 120.91 157.47 115.125 157.532 113.718C159.993 113.611 162.499 113.797 164.964 113.723C165.034 111.251 164.861 108.737 164.96 106.265C166.446 106.199 171.979 106.738 172.404 105.78L172.392 82.2464C169.927 82.1717 167.421 82.3583 164.96 82.2505C164.861 79.82 165.204 77.3439 164.836 74.9258C162.26 72.9184 159.576 74.8221 157.532 74.7972C157.425 72.3253 157.61 69.8118 157.536 67.3398H135.244C137.49 79.2974 130.31 73.1009 128.641 74.7931C128.381 75.0585 128.708 80.8445 128.646 82.2505C126.218 82.3542 123.645 82.3542 121.218 82.2505C121.11 79.7785 121.296 77.2651 121.222 74.7931C118.757 74.7226 116.255 74.8968 113.79 74.7972C113.682 72.3253 113.868 69.8118 113.794 67.3398L91.9886 67.3274C91.0265 67.7587 91.5839 73.2999 91.5055 74.7972H91.5014Z" fill="#FCC803"/>
<path d="M164.956 106.265C164.857 108.737 165.03 111.251 164.96 113.723C162.495 113.797 159.989 113.611 157.528 113.718C157.635 111.247 157.449 108.733 157.524 106.261C159.989 106.186 162.495 106.373 164.956 106.265Z" fill="#3A0888"/>
<path d="M84.0733 106.265C86.5425 106.319 89.0364 106.224 91.5055 106.261C91.6128 108.729 91.3486 111.255 91.5014 113.718C89.0405 113.611 86.5342 113.797 84.0692 113.723C84.0816 111.247 84.0568 108.745 84.0733 106.265Z" fill="#3A0888"/>
<path d="M164.956 82.2505C167.417 82.3583 169.923 82.1717 172.388 82.2464L172.4 105.78C171.975 106.738 166.442 106.199 164.956 106.265C165.257 98.646 165.27 89.8655 164.956 82.2505Z" fill="#3A0888"/>
<path d="M128.641 82.2505C128.534 84.7225 128.72 87.2359 128.646 89.7079L121.697 89.7204C120.743 89.2973 121.28 83.7395 121.213 82.2505C123.641 82.3542 126.214 82.3542 128.641 82.2505Z" fill="#3A0888"/>
<path d="M84.0733 82.2505C84.1229 90.3093 84.1229 98.2064 84.0733 106.265C81.4225 106.211 79.2135 106.668 76.6494 107.091L76.6288 82.7358C77.0541 81.7818 82.591 82.3127 84.0733 82.2505Z" fill="#3A0888"/>
<path d="M113.785 74.7972C116.25 74.8968 118.753 74.7226 121.218 74.7931C121.292 77.2651 121.106 79.7785 121.213 82.2505C118.753 82.1427 116.246 82.3293 113.781 82.2547C113.707 79.7827 113.893 77.2692 113.785 74.7972Z" fill="#3A0888"/>
<path d="M91.5014 74.7972C91.3734 77.2609 91.5509 79.7785 91.5014 82.2505C89.0364 82.3003 86.5342 82.1468 84.0733 82.2505C84.0568 79.7702 84.0816 77.2692 84.0692 74.7931C86.5342 74.7226 89.0364 74.8968 91.5014 74.7972Z" fill="#3A0888"/>
<path d="M91.5014 113.718C93.9622 113.826 96.4685 113.64 98.9335 113.714L98.9253 121.176C106.192 120.496 107.039 121.3 106.353 128.629L113.79 128.621L113.781 136.082L121.218 136.074C121.114 143.498 119.57 144.249 127.82 143.536L127.812 136.074L135.248 136.082V128.629C143.155 130.313 143.266 128.679 142.668 121.168L150.104 121.176L150.096 113.714C152.561 113.64 155.067 113.826 157.528 113.718C157.466 115.125 157.792 120.91 157.532 121.176C157.185 121.528 151.276 120.811 150.921 121.168C149.53 122.561 154.732 132.03 143.493 129.45C144.179 136.779 143.332 137.584 136.065 136.904L136.074 144.365L128.774 144.486L128.303 151.026C117.208 155.572 121.445 145.427 120.388 144.357C120.041 144.004 114.124 144.718 113.777 144.365C112.398 142.972 117.605 134.428 105.523 136.912L105.532 129.45C94.6187 131.893 99.3505 123.258 98.1036 121.997C97.7526 121.645 91.8441 122.362 91.4931 122.005C91.1999 121.711 91.5922 115.257 91.4972 113.718H91.5014Z" fill="#3A0888"/>
<path d="M157.528 74.7972C159.567 74.8221 162.255 72.9184 164.832 74.9258C165.204 77.3439 164.857 79.8159 164.956 82.2505C162.495 82.1427 159.989 82.3293 157.524 82.2547C157.449 79.7827 157.635 77.2692 157.528 74.7972Z" fill="#3A0888"/>
<path d="M128.641 82.2505C128.703 80.8445 128.377 75.0585 128.637 74.7931C130.305 73.1009 137.486 79.2974 135.24 67.3398H157.532C157.606 69.8118 157.42 72.3253 157.528 74.7972C150.389 74.706 143.204 74.8677 136.065 74.7931L136.074 82.2547C133.609 82.3293 131.102 82.1468 128.641 82.2505Z" fill="#3A0888"/>
<path d="M91.5014 74.7972C91.5798 73.2999 91.0183 67.7587 91.9845 67.3274L113.79 67.3398C113.864 69.8118 113.678 72.3253 113.785 74.7972C106.696 74.5152 98.5908 74.5152 91.5014 74.7972Z" fill="#3A0888"/>
<path d="M91.5014 82.2505C94.148 82.1966 104.396 80.9108 105.585 81.786C106.638 82.5657 106.721 88.9406 106.254 89.6001C105.755 90.301 100.189 90.2844 99.8336 90.608C98.7064 91.6366 100.792 100.123 92.3024 96.7547C89.0074 92.2919 91.4146 86.6967 91.5013 82.2422L91.5014 82.2505Z" fill="#3A0888"/>
</g>
<defs>
<filter id="filter0_dd_14_457" x="0" y="0" width="272" height="330" filterUnits="userSpaceOnUse" color-interpolation-filters="sRGB">
<feFlood flood-opacity="0" result="BackgroundImageFix"/>
<feColorMatrix in="SourceAlpha" type="matrix" values="0 0 0 0 0 0 0 0 0 0 0 0 0 0 0 0 0 0 127 0" result="hardAlpha"/>
<feOffset dx="1.5" dy="2"/>
<feGaussianBlur stdDeviation="6"/>
<feComposite in2="hardAlpha" operator="out"/>
<feColorMatrix type="matrix" values="0 0 0 0 0 0 0 0 0 0 0 0 0 0 0 0 0 0 0.24 0"/>
<feBlend mode="normal" in2="BackgroundImageFix" result="effect1_dropShadow_14_457"/>
<feColorMatrix in="SourceAlpha" type="matrix" values="0 0 0 0 0 0 0 0 0 0 0 0 0 0 0 0 0 0 127 0" result="hardAlpha"/>
<feOffset dx="0.75" dy="1"/>
<feGaussianBlur stdDeviation="2"/>
<feComposite in2="hardAlpha" operator="out"/>
<feColorMatrix type="matrix" values="0 0 0 0 0 0 0 0 0 0 0 0 0 0 0 0 0 0 0.48 0"/>
<feBlend mode="normal" in2="effect1_dropShadow_14_457" result="effect2_dropShadow_14_457"/>
<feBlend mode="normal" in="SourceGraphic" in2="effect2_dropShadow_14_457" result="shape"/>
</filter>
</defs>
</svg>
