<svg width="304" height="268" viewBox="0 0 304 268" fill="none" xmlns="http://www.w3.org/2000/svg">
<g filter="url(#filter0_dd_14_680)">
<path d="M279.592 85.2122C278.367 117.924 291.589 194.451 257.557 213.365C242.646 221.651 162.661 222.974 140.774 223.586C126.951 223.975 113.024 223.575 99.2334 222.774C88.3605 236.271 56.0722 261.569 38.2721 251.817C19.8478 241.725 46.278 221.599 42.5034 215.55C26.6919 210.085 17.2174 199.788 14.2146 183.289C9.16697 155.564 7.85529 65.8745 19.4179 41.8218C30.3775 19.0249 53.0776 16.9571 75.6174 14.2433C113.081 9.73041 215.732 6.03529 248.858 18.4723C268.612 25.8882 266.608 37.0098 278.358 49.934C282.461 54.4468 288.788 55.4048 290.124 63.364C291.993 74.5066 286.64 78.2578 279.592 85.2111V85.2122Z" fill="#FCC803"/>
<path d="M263.285 171.653C259.678 201.989 248.458 201.902 221.395 203.754C177.886 206.729 134.031 207.58 90.4323 206.336C86.8638 207.233 82.7601 216.45 79.6707 219.957C73.0233 227.502 62.6224 233.853 52.8024 236.191C55.5768 228.419 62.8332 214.501 60.1595 206.116C58.5445 201.053 39.3952 200.559 33.2866 190.702C27.2997 181.041 26.1473 127.853 26.2949 114.036C26.5396 90.9635 24.236 42.7003 50.7424 34.5378C86.8779 23.4092 179.755 25.373 218.905 29.2936C226.709 30.0752 234.746 30.5577 242.187 33.2364C246.746 34.8778 251.117 37.5659 254.053 41.4783C256.803 45.1419 258.378 49.5648 259.348 54.0006C260.387 58.7541 261.318 63.5591 261.885 68.3944C263.322 80.6328 263.497 93.1247 264.145 105.458C264.793 117.791 265.3 131.171 265.069 144.035C264.904 153.262 264.374 162.487 263.284 171.654L263.285 171.653Z" fill="#7670C5"/>
<path d="M241.205 116.656C241.784 114.882 241.903 112.988 242.42 111.194C243.812 106.367 247.994 102.556 248.701 97.5838C248.913 96.0943 248.796 94.5791 248.657 93.0803C248.504 91.4366 248.319 89.7707 247.701 88.2391C247.099 86.745 246.146 86.0557 245.053 84.9938C244.031 83.9996 243.458 82.8676 242.78 81.5323C241.864 79.7274 240.895 77.2391 238.948 76.5346C237.509 76.0148 235.101 75.6888 233.574 75.7776C228.547 76.0673 223.729 76.2169 220.813 71.3161C219.472 69.0626 218.804 66.4773 217.666 64.1163C214.867 58.3102 210.21 55.4562 204.256 53.7646C202.377 53.2307 200.417 52.9585 198.463 53.0041C196.857 53.0415 194.911 53.0041 193.347 53.2529C191.174 53.5999 188.933 53.5321 186.784 53.0543C185.424 52.7529 184.443 53.1688 183.148 53.1489C181.868 53.1291 180.578 52.844 179.274 52.8592C176.418 52.8931 173.578 53.3405 170.789 53.9223C168.76 54.3452 166.691 54.8791 164.83 55.809C163.836 56.3055 162.335 57.149 162.34 58.441C162.34 58.7459 166.075 61.4539 164.763 63.7098C164.065 64.4586 154.881 56.337 145.203 63.288C140.662 66.5486 136.793 72.3816 143.576 75.4797C140.53 77.5592 138.21 75.1806 134.038 76.5136C122.01 80.3547 130.538 93.8373 129.758 94.5453C129.535 94.7474 124.737 93.877 125.863 97.4179C126.262 98.6761 131.95 98.807 134.393 100.064C136.839 101.322 137.767 104.097 138.023 104.202C139.214 104.697 144.09 101.925 148.673 105.89C150.685 107.631 151.184 111.631 151.917 112.23C152.951 113.076 156.541 112.162 158.631 115.675C162.155 121.597 156.146 126.334 168.237 125.186C169.95 125.023 172.252 123.206 173.331 123.249C175.561 123.338 183.51 131.444 189.185 124.896C189.525 123.809 185.583 118.712 188.809 118.084C190.662 117.723 190.593 120.238 190.97 121.394C191.079 121.729 191.314 121.998 191.425 122.308C191.639 122.908 191.621 123.613 191.841 124.232C192.293 125.508 193.077 126.668 194.108 127.549C194.979 128.291 196.001 128.831 197.013 129.363C197.94 129.852 198.921 130.293 199.813 130.841C200.492 131.258 201.204 131.425 201.97 131.672C203.549 132.179 205.091 132.798 206.575 133.539C209.353 134.925 211.889 136.737 214.19 138.813C215.46 139.958 216.66 141.176 217.817 142.433C218.42 143.089 219.012 143.755 219.596 144.428C219.856 144.727 221.058 146.536 221.389 146.536C223.886 146.146 225.74 144.264 225.782 141.678C225.814 139.675 224.946 137.785 224.173 135.937C222.612 132.208 222.629 127.088 227.478 125.825C228.027 125.682 228.6 125.665 229.161 125.579C231.004 125.3 231.837 124.258 233.283 123.245C236.421 121.047 239.925 120.584 241.208 116.659L241.205 116.656Z" fill="#FCC803"/>
<path d="M268.957 52.4258C269.775 53.2716 270.316 54.4924 270.504 55.5964C270.694 56.7085 270.668 58.0462 271.596 58.6899C271.944 58.9305 272.369 59.0228 272.777 59.1338C277.338 60.3768 280.832 63.1525 280.458 68.1572C279.805 76.8652 267.894 74.2647 267.463 76.3769C270.839 106.835 273.056 142.383 268.988 172.825C265.206 201.12 256.024 206.657 228.726 208.982C183.672 212.819 137.877 213.051 92.6973 212.199C82.2378 227.853 62.8203 245.639 42.521 241.883C40.2923 239.3 47.6201 232.203 49.2761 228.981C52.6221 222.473 54.1281 215.933 54.7535 208.654C44.7544 204.777 33.1472 202.248 27.6464 191.815C20.2541 177.792 20.5996 111.681 21.4089 93.3011C24.2758 28.2586 35.4661 26.8964 97.5996 22.3497C135.642 19.5658 198.91 17.991 235.657 25.1336C241.351 26.2399 247.35 27.7037 252.178 31.0658C255.898 33.6546 260.19 37.8825 261.274 42.4152C261.646 43.9666 261.626 45.5881 261.976 47.1431C262.326 48.698 263.168 50.2833 264.645 50.8954C265.897 51.4153 267.322 51.1489 268.442 51.9725C268.625 52.1069 268.795 52.2587 268.957 52.4258ZM262.492 75.8839H243.762C245.192 87.1305 253.313 85.9085 250.719 99.4483C249.575 105.422 245.311 107.196 244.184 109.978C243.319 112.114 244.203 114.531 243.384 116.483C239.743 125.174 233.455 126.725 225.078 129.1C222.067 132.832 229.574 141.822 228.768 145.728C228.365 147.682 222.169 150.619 220.512 150.478C218.308 150.289 211.767 140.883 208.688 138.824C204.992 136.352 201.292 136.255 197.333 133.099C195.646 131.756 193.898 127.843 193.559 127.745C191.552 127.169 186.05 131.118 182.278 131.121C177.91 131.125 175.556 128.079 173.252 127.817C170.651 127.52 168.612 129.398 166.083 129.364C162.763 129.32 159.251 126.349 157.045 126.279C155.323 126.224 153.128 127.87 150.549 127.846C144.788 127.792 139.022 128.016 133.261 128.071C125.664 128.145 118.04 128.174 110.455 127.654C108.018 127.487 105.567 127.278 103.165 126.818C102.317 126.655 101.461 126.471 100.648 126.174C99.5929 125.788 97.9264 125.285 97.3912 124.197C96.8372 123.071 96.8677 120.904 96.7939 119.649C96.7353 118.649 96.7646 117.575 97.3432 116.756C98.1981 115.547 99.8763 115.349 101.347 115.166C102.818 114.983 104.521 114.521 105.05 113.139C105.426 112.158 105.086 110.945 105.695 110.089C106.019 109.633 106.551 109.378 107.068 109.162C109.723 108.052 112.263 107.633 115.102 108.294C116.99 108.744 116.462 108.627 116.198 106.923C115.977 105.489 116.152 103.679 117.284 102.649C118.166 101.847 119.428 101.667 120.567 101.308C121.347 101.063 122.095 100.718 122.788 100.287C123.004 100.153 123.221 100.003 123.347 99.7836C123.632 99.2871 123.339 98.6458 122.927 98.2486C122.514 97.8514 121.984 97.578 121.627 97.1306C120.605 95.849 121.489 94.2357 122.532 93.3326C123.543 92.4576 125.031 92.5745 125.913 91.5768C126.754 90.627 126.578 89.1574 126.146 87.9658C125.171 85.2788 124.406 83.0744 125.233 80.2192C125.919 77.8512 127.412 75.5358 129.59 74.2869C130.78 73.6047 132.187 73.3594 133.506 73.0393C134.645 72.7624 135.682 72.0556 136.849 71.9598C136.609 71.9797 136.948 69.7857 136.983 69.6152C135.794 69.614 134.698 70.1701 133.49 70.2016C132.589 70.225 131.682 70.2016 130.78 70.2016C129.003 70.2016 127.221 70.1619 125.445 70.2016C123.806 70.2378 122.208 69.8699 120.559 70.0696C119.618 70.1841 118.694 70.4213 117.75 70.4879C114.157 70.7379 109.757 68.232 108.932 64.5205C107.382 57.5555 114.004 57.9539 115.876 55.9749C117.603 54.1501 117.705 49.99 121.303 48.4001C124.546 46.9678 126.79 48.0858 129.171 47.3136C131.722 46.4865 133.036 42.3334 138.399 41.8626C146.061 41.1886 154.205 48.2248 152.547 56.4153C162.078 57.885 164.036 49.9293 174.967 49.1337C181.326 48.6711 186.132 51.6489 189.536 51.5263C192.419 51.4223 194.795 48.7774 200.166 49.1127C202.988 49.2891 208.214 51.976 209.799 51.594C210.162 51.5064 212.397 47.6279 214.695 46.5145C220.461 43.7225 223.303 46.469 226.119 45.9129C226.493 45.8393 229.293 41.5823 231.28 40.3217C235.884 37.4023 241.34 36.2119 246.451 38.5472C250.131 40.2283 253.591 43.4421 255.605 46.9456C256.054 47.7248 256.482 48.5882 257.273 49.0192C257.453 48.323 257.276 47.5882 257.058 46.9036C255.849 43.1045 253.038 39.2832 249.873 36.8451C247.558 35.0612 244.905 33.7551 242.159 32.7715C236.32 30.678 230.073 29.9455 223.934 29.3298C222.258 29.1616 220.582 29.0062 218.906 28.8392C179.756 24.9198 86.879 22.9548 50.7436 34.0834C24.2372 42.247 26.5408 90.509 26.2949 113.583C26.1473 127.399 27.3009 180.588 33.2866 190.249C39.3952 200.107 58.5457 200.6 60.1595 205.663C62.832 214.048 55.5768 227.966 52.8024 235.738C62.6224 233.399 73.0221 227.05 79.6707 219.504C82.7613 215.997 86.8626 206.779 90.4311 205.884C134.031 207.127 177.886 206.276 221.395 203.301C248.456 201.45 259.677 201.534 263.284 171.2C267.032 139.679 264.175 107.393 262.491 75.8827L262.492 75.8839ZM268.326 61.1408C267.534 60.0462 268.771 56.7635 265.219 54.1081C260.66 50.7027 257.115 54.4211 255.104 53.5543C252.888 52.5987 251.68 40.7038 240.219 41.0496C231.251 41.3206 229.607 49.2038 227.737 49.8382C224.961 50.7786 220.817 45.3744 215.053 50.6968C211.816 53.6863 212.37 60.0929 212.005 60.4703C211.273 61.2249 199.908 58.9445 201.323 68.1689C201.511 69.3944 203.787 70.9014 204.754 71.3301C209.851 73.5872 257.153 73.3524 265.325 72.6199C268.949 72.2951 276.301 72.2741 277.032 67.9703C278.049 61.9808 269.184 62.3254 268.326 61.1397V61.1408ZM136.847 46.0438C133.213 46.9246 132.248 51.0298 130.82 51.4573C128.291 52.2144 125.931 49.0076 121.998 52.344C118.875 54.9947 120.63 58.2728 119.22 59.3079C118.247 60.0217 109.508 59.2938 113.046 65.3418C114.268 67.4306 133.017 67.5813 135.833 66.9341C138.177 66.3955 142.283 61.1525 144.442 59.2833C147.156 56.9328 150.206 59.5006 149.109 52.9585C148.141 47.191 142.138 44.761 136.847 46.0438ZM230.641 76.107C229.37 75.6316 227.909 75.8839 226.166 75.8839H217.954C212.123 75.8839 204.228 76.3711 199.962 71.5077C198.247 69.5533 197.52 66.6946 198.378 64.2425C199.206 61.8733 201.053 60.2448 203.175 59.0193C204.375 58.3265 204.783 58.2635 206.212 58.3558C206.717 58.3885 210.339 58.3815 210.515 58.6805C209.265 56.5543 208.154 55.1384 205.835 54.2926C200.234 52.2506 193.642 52.6945 188.386 55.5905C186.621 56.5637 185.059 58.017 184.297 59.8791C183.857 60.9516 183.696 62.1151 183.349 63.2203C183.006 64.3161 182.313 65.0077 181.76 65.9645C181.355 66.6666 181.163 67.4329 180.642 68.0836C180.567 68.1771 180.472 68.274 180.352 68.2729C180.26 68.2729 180.18 68.2121 180.11 68.1525C178.63 66.9025 179.406 63.9095 181.124 63.2261C181.412 63.1116 181.744 63.0369 181.931 62.7915C182.104 62.5649 182.107 62.2541 182.095 61.9691C182.084 61.7062 182.068 61.4329 181.938 61.2039C181.704 60.7915 181.177 60.6467 180.701 60.6396C180.105 60.6315 179.518 60.8125 178.929 60.8698C178.289 60.9329 177.604 61.0836 177.025 61.371C176.447 61.6583 175.88 62.0065 175.484 62.5158C175.109 62.9983 174.909 63.5941 174.559 64.0941C174.077 64.7799 172.117 65.7951 171.888 64.3044C171.838 63.9796 171.999 63.6607 172.171 63.3803C173.035 61.9714 174.336 60.8347 175.849 60.1642C178.037 59.1957 180.631 59.1829 182.602 57.8301C183.464 57.2378 184.147 56.4258 184.793 55.6046C185.184 55.1081 185.571 54.3943 185.181 53.8978C184.998 53.6653 184.697 53.5683 184.413 53.4889C182.086 52.8452 179.815 52.8721 177.422 53.0123C174.974 53.1559 172.54 53.5134 170.155 54.08C168.456 54.4831 166.652 54.9223 165.083 55.6852C164.027 56.198 162.335 57.0497 162.341 58.4399C162.341 58.7448 166.076 61.4527 164.764 63.7086C164.066 64.4574 154.882 56.3359 145.204 63.2869C140.664 66.5474 136.794 72.3804 143.577 75.4785C140.531 77.558 138.211 75.1795 134.04 76.5124C122.011 80.3536 130.539 93.8361 129.759 94.5441C129.537 94.7462 124.738 93.8759 125.864 97.4168C126.263 98.675 131.951 98.8058 134.394 100.063C136.84 101.321 137.769 104.096 138.024 104.201C139.215 104.696 144.091 101.924 148.674 105.889C150.686 107.629 151.185 111.629 151.918 112.229C152.952 113.075 156.542 112.161 158.632 115.674C162.156 121.596 156.147 126.333 168.238 125.184C169.951 125.022 172.253 123.204 173.332 123.248C175.562 123.336 183.511 131.443 189.186 124.895C189.526 123.808 185.584 118.711 188.81 118.082C190.381 117.776 190.457 119.558 190.746 120.591C191.162 122.078 192.14 123.401 193.353 124.341C194.751 125.426 196.48 126.047 198.238 126.267C201.079 126.624 203.936 125.982 206.608 125.055C209.252 124.137 211.713 122.793 214.431 122.132C214.71 122.064 215.014 122.005 215.277 122.119C215.612 122.266 215.778 122.669 215.742 123.033C215.705 123.396 215.508 123.723 215.285 124.014C214.252 125.357 212.648 126.133 211.049 126.7C207.758 127.864 204.27 128.334 200.816 128.843C200.362 128.91 199.862 129.005 199.587 129.369C199.257 129.804 199.41 130.466 199.794 130.855C200.178 131.244 200.727 131.416 201.261 131.533C203.38 131.996 205.425 132.91 207.335 133.929C210.07 135.388 212.55 137.265 214.808 139.379C215.971 140.467 217.077 141.613 218.147 142.791C218.705 143.404 219.253 144.026 219.795 144.653C219.986 144.874 221.182 146.567 221.39 146.534C228.78 145.377 221.971 138.937 221.162 134.513C220.748 132.253 222.941 127.968 221.438 125.999C220.998 125.423 220.15 125.436 219.444 125.269C218.454 125.034 217.591 124.322 217.172 123.398C217.075 123.184 217.004 122.922 217.134 122.727C217.292 122.487 217.64 122.493 217.924 122.537C218.578 122.639 219.222 122.806 219.844 123.034C223.798 124.482 227.856 124.776 231.908 123.196C235.877 121.649 241.246 116.66 240.331 111.88C238.465 112.1 236.695 112.292 234.794 112.236C233.678 112.202 232.48 112.141 231.597 111.46C231.036 111.028 230.671 110.394 230.324 109.778C230.151 109.473 229.976 109.159 229.922 108.813C229.785 107.916 230.588 107.054 231.49 106.932C232.392 106.809 233.296 107.291 233.889 107.98C234.173 108.311 234.4 108.687 234.69 109.014C235.452 109.878 236.611 110.336 237.765 110.389C238.917 110.441 240.064 110.117 241.102 109.613C242.265 109.049 243.378 108.172 243.738 106.932C244.293 105.02 245.739 103.472 246.51 101.461C247.432 99.0558 247.804 96.3946 247.669 93.8268C247.557 91.6714 247.066 89.3139 245.53 87.6971C243.789 85.8641 239.343 86.5849 239.937 83.2613C240.423 80.5463 242.013 79.4681 240.103 76.6923L234.897 75.9832C235.036 76.0019 233.808 81.5206 233.191 82.1188C232.743 82.5522 232.012 82.752 231.482 82.426C230.722 81.9599 230.824 80.7998 231.266 80.0276C231.709 79.2554 232.4 78.5965 232.589 77.7262C231.988 76.8559 231.345 76.3711 230.643 76.1082L230.641 76.107ZM149.433 115.51C148.458 114.827 148.975 109.511 145.54 107.624C141.109 105.188 139.022 108.597 137.572 108.274C135.552 107.825 135.121 100.794 126.172 101.921C117.705 102.988 118.584 112.056 117.132 112.376C116.916 112.424 115.029 110.751 113.041 110.724C106.087 110.631 108.549 115.957 106.805 117.13C105.417 118.063 100.424 116.26 101.193 121.709C101.186 122.945 101.805 123.081 102.633 123.596C104.758 124.917 146.395 125.181 151.253 124.496C154.854 123.989 157.574 123.343 156.599 119.343C155.467 114.696 150.781 116.457 149.433 115.513V115.51Z" fill="#3A0888"/>
<path d="M50.3067 183.839C40.4036 175.986 43.5656 157.076 56.2409 154.779C60.7849 153.957 71.974 156.964 68.2966 162.731C66.5364 165.493 48.8522 157.543 52.5623 173.483C54.9128 183.579 64.5911 176.331 66.5129 176.643C75.3094 178.074 62.6716 193.645 50.3067 183.839ZM92.8764 186.479C86.7865 189.523 85.8683 173.253 81.3267 174.881C78.1786 176.012 82.8398 187.692 76.4571 187.074C75.5717 186.99 73.5597 185.537 73.5597 185.016C73.5597 179.588 72.474 161.048 73.5597 157.428C75.1536 152.104 96.7623 152.659 94.7034 166.283C94.2162 169.5 90.7848 170.949 90.793 172.694C90.807 175.343 98.4417 183.698 92.8764 186.479ZM100.773 184.678C98.0716 180.802 97.4087 158.469 102.255 155.999C104.79 154.707 117.099 153.587 118.786 156.185C121.418 167.628 104.457 156.027 106.944 167.575C121.408 165.135 122.614 176.158 107.507 174.033C105.917 174.561 105.917 179.24 107.507 179.771C136.656 179.997 106.865 193.421 100.772 184.678H100.773ZM143.303 186.123C141.259 185.295 141.184 179.899 139.501 178.552C138.185 177.499 131.645 177.476 130.695 178.254C129.382 179.326 129.832 190.664 122.78 186.28C120.596 183.311 129.285 157.161 132.542 155.347C138.216 152.185 140.412 160.191 142.342 164.355C143.847 167.604 153.963 190.436 143.303 186.122V186.123ZM163.138 163.109V185.017C151.282 192.815 157.541 163.595 155.813 161.887C152.354 162.927 143.588 161.24 147.584 156.535C149.227 154.601 171.486 154.812 172.147 156.755C174.499 163.671 163.139 161.046 163.139 163.108L163.138 163.109ZM190.422 186.234C188.082 186.234 177.586 186.673 176.577 186.234C171.058 183.83 179.953 178.867 180.256 177.726C180.501 176.803 180.529 163.159 180.278 162.435C179.769 160.978 173.609 161.893 175.479 156.761C176.621 153.63 190.921 153.134 191.673 157.452C192.481 162.078 188.666 160.437 187.555 161.47C186.661 162.3 186.827 178.248 187.507 179.212C188.382 180.451 194.856 181.007 190.423 186.234H190.422ZM207.513 187.135C206.444 187.315 205.878 186.766 205.089 186.218C203.317 184.99 193.127 159.712 196.041 156.132C203.239 150.397 204.649 171.035 208.732 173.249C211.746 168.3 212.4 152.361 220.6 156.165C223.089 159.56 212.889 187.282 207.513 187.135ZM232.356 161.887C232.155 162.09 232.155 167.373 232.356 167.575C233.069 168.298 244.423 165.602 243.538 171.082C242.724 176.131 235.983 173.305 232.493 174.186L232.921 179.771C237.704 180.058 246.434 177.536 244.198 185.449C239.543 187.847 227.671 188.728 225.4 183.024C223.976 179.444 223.998 160.307 225.91 157.492C227.924 154.521 243.479 154.825 244.459 156.323C249.153 163.511 232.921 161.311 232.356 161.886V161.887Z" fill="#7670C5"/>
<path d="M268.326 61.1408C269.183 62.3266 278.047 61.9819 277.032 67.9715C276.302 72.2752 268.949 72.2963 265.325 72.621C257.153 73.3535 209.851 73.5895 204.754 71.3313C203.787 70.9026 201.51 69.3955 201.323 68.1701C199.908 58.9445 211.273 61.2261 212.005 60.4714C212.37 60.0952 211.816 53.6875 215.053 50.698C220.817 45.3755 224.961 50.7798 227.737 49.8393C229.607 49.205 231.251 41.3218 240.219 41.0507C251.679 40.7049 252.888 52.5999 255.104 53.5555C257.115 54.4223 260.66 50.7038 265.219 54.1092C268.772 56.7635 267.534 60.0462 268.326 61.142V61.1408Z" fill="#F7F7F7"/>
<path d="M149.433 115.51C150.781 116.455 155.468 114.694 156.599 119.341C157.574 123.341 154.854 123.986 151.253 124.494C146.395 125.179 104.758 124.916 102.633 123.593C101.805 123.078 101.186 122.941 101.193 121.707C100.424 116.258 105.417 118.062 106.805 117.127C108.549 115.954 106.086 110.628 113.041 110.722C115.029 110.749 116.916 112.422 117.132 112.374C118.583 112.054 117.703 102.986 126.172 101.919C135.121 100.792 135.552 107.823 137.572 108.272C139.022 108.594 141.109 105.187 145.54 107.621C148.975 109.509 148.456 114.825 149.433 115.508V115.51Z" fill="#F7F7F7"/>
<path d="M136.847 46.0438C142.138 44.761 148.14 47.191 149.109 52.9585C150.207 59.5006 147.158 56.9328 144.442 59.2833C142.283 61.1525 138.177 66.3944 135.833 66.9341C133.017 67.5813 114.268 67.4306 113.046 65.3418C109.508 59.2938 118.247 60.0217 119.22 59.3079C120.63 58.2728 118.875 54.9947 121.998 52.344C125.929 49.0076 128.291 52.2144 130.82 51.4573C132.248 51.0298 133.213 46.9258 136.847 46.0438Z" fill="#F7F7F7"/>
<path d="M47.0908 101.037C46.2628 100.535 46.0531 99.8701 45.8423 98.9787C45.2345 96.4039 59.1676 50.2728 60.9641 48.3253C64.7644 45.9947 93.8532 44.8732 95.2058 46.6197C97.0949 50.7447 80.3066 77.2671 81.7026 78.308C83.8669 78.6573 86.2103 78.2437 88.3652 78.0066C91.115 77.704 93.8742 77.3407 96.644 77.3185C97.8175 77.3092 99.012 77.2788 100.166 77.5311C101.666 77.8594 102.241 78.6106 102.45 80.1141C102.483 80.3466 102.515 80.5872 102.442 80.8103C102.392 80.9669 102.292 81.1036 102.195 81.2368C100.368 83.7356 98.5436 86.2368 96.7189 88.738C94.3509 91.9833 91.984 95.2287 89.616 98.4752C86.8111 102.321 84.0051 106.167 81.2002 110.013C78.3379 113.937 75.4757 117.86 72.6134 121.784C70.0755 125.263 67.5389 128.741 65.001 132.22C63.1693 134.73 61.3377 137.242 59.506 139.752C58.7612 140.773 58.0175 141.793 57.2727 142.814L57.2668 142.822L54.0754 143.168C51.5025 141.653 64.3475 106.15 65.4144 101.037H47.0908ZM89.0269 50.7365L64.5033 52.0298L51.5575 95.7521C55.2993 97.8257 69.6129 93.5593 71.0089 97.5441C72.2562 101.104 62.8672 121.593 62.982 127.002C65.9742 120.923 94.3989 87.2064 94.7163 84.3735C95.2093 79.9716 76.5367 86.4716 75.3621 81.0522C74.732 78.1444 88.0982 55.6536 89.0281 50.7377L89.0269 50.7365Z" fill="#3A0888"/>
<path d="M73.5737 157.278C76.6339 151.666 94.1506 153.351 94.7877 163.761C95.0173 166.709 93.8485 168.705 92.025 170.711C91.4102 171.427 90.841 172.375 91.0366 173.241C91.9571 176.906 98.1993 184.201 92.4455 186.61C87.057 188.299 86.2267 176.034 82.2366 175.013C80.7961 174.809 80.2937 176.191 80.1719 177.532C79.7421 180.303 81.1229 186.769 77.0075 186.995C75.4593 186.972 73.6967 185.921 73.521 184.326C73.4531 177.235 72.3148 163.193 73.5667 157.299L73.5749 157.279L73.5737 157.278ZM80.152 168.262C80.3652 168.41 80.8711 168.254 81.7049 168.036C82.5411 167.814 83.4195 167.58 84.3423 167.334C85.2957 167.025 86.9153 166.838 87.4494 166.201C88.2422 165.213 88.1158 163.531 87.4178 162.499C86.0909 160.469 83.2907 159.934 80.8734 160.184C79.8698 160.406 79.9681 161.082 79.9447 162.209C79.9447 162.756 79.9447 163.394 79.9447 164.043C79.9447 165.005 79.9447 165.881 79.9447 166.732C79.9494 167.584 79.9236 168.1 80.1391 168.253L80.1508 168.261L80.152 168.262Z" fill="#F7F7F7"/>
<path d="M107.283 167.055C107.54 167.292 107.878 167.362 108.297 167.359C108.782 167.354 109.387 167.282 110.054 167.271C110.893 167.249 111.888 167.282 112.765 167.381C119.636 168.135 120.246 173.074 113.655 174.067C112.622 174.223 111.532 174.283 110.524 174.27C108.991 174.299 107.588 173.774 106.801 175.218C106.352 176.142 106.304 177.67 106.835 178.652C107.201 179.312 107.899 179.619 108.629 179.736C110.858 179.984 113.029 179.921 115.257 180.355C129.383 182.907 108.365 191.169 101.994 185.891C99.6023 184.152 99.4208 180.853 98.9312 177.221C98.1688 169.721 98.7286 159.24 101.597 156.514C102.596 155.624 103.683 155.499 105.104 155.199C108.286 154.677 115.369 153.916 118.178 155.733C119.157 156.629 119.084 158.21 118.802 159.417C117.51 164.128 108.092 159.45 106.958 164.449C106.772 165.267 106.657 166.407 107.262 167.039L107.28 167.056L107.283 167.055Z" fill="#F7F7F7"/>
<path d="M130.825 178.41C130.558 178.618 130.401 178.916 130.28 179.243C129.512 181.354 129.086 186.952 125.798 187.2C124.564 187.263 122.648 186.829 122.47 185.421C121.704 180.811 129.252 155.99 133.117 154.945C138.007 152.955 140.135 159.091 141.837 163.011C142.674 164.957 143.32 166.35 144.121 168.35C146.112 173.61 150.765 185.179 146.195 186.618C145.341 186.802 144.024 186.576 143.126 185.898C142.714 185.589 142.392 185.185 142.145 184.73C140.989 182.747 140.951 179.463 138.845 178.422C137.01 177.652 132.23 177.503 130.841 178.396L130.824 178.41H130.825ZM137.82 171.574C138.007 171.388 137.807 170.95 137.512 170.212C137.169 169.364 136.805 168.466 136.412 167.498C136.125 166.79 135.849 166.109 135.634 165.576C135.472 165.18 135.345 164.868 135.244 164.681C135.165 164.539 135.099 164.469 135.034 164.476C134.801 164.591 134.721 164.978 134.592 165.232C133.985 166.783 132.756 169.642 132.235 171.126C131.948 171.963 133.303 171.698 134.017 171.753C134.769 171.753 135.67 171.753 136.374 171.753C137.136 171.749 137.64 171.747 137.81 171.584L137.82 171.574Z" fill="#F7F7F7"/>
<path d="M244.685 156.727C247.745 162.275 236.936 161.737 233.494 161.776C232.709 161.779 232.331 161.934 232.263 162.939C232.186 163.776 232.19 165.053 232.226 165.923C232.263 166.812 232.332 167.677 233.325 167.654C235.379 167.85 243.071 166.39 243.45 170.484C243.433 175.097 238.029 174.061 234.672 174.053C234.091 174.073 233.377 174.034 232.955 174.441C232.661 174.729 232.586 175.274 232.618 176.013C232.661 176.746 232.716 177.702 232.832 178.388C233.022 179.948 234.288 179.795 235.487 179.754C239.417 179.615 244.117 179.149 244.494 182.803C244.569 183.505 244.486 184.255 244.154 184.884C243.629 185.901 242.582 186.181 241.422 186.496C240.703 186.686 239.977 186.838 239.238 186.958C234.023 187.701 227.802 187.483 225.474 183.283C224.638 181.403 224.676 179.596 224.463 177.444C224.215 171.189 223.889 160.025 226.141 157.243C229.238 154.956 236.013 155.117 240.479 155.352C241.221 155.415 241.933 155.498 242.651 155.63C243.61 155.812 244.21 155.973 244.669 156.702L244.685 156.728V156.727Z" fill="#F7F7F7"/>
<path d="M56.1753 154.784C59.3339 154.287 63.0874 155.09 65.8934 156.553C68.3551 157.832 69.8975 160.126 68.2509 162.582C65.528 165.293 52.4558 159.001 52.0986 169.633C52.1208 172.482 52.7029 175.722 55.0042 177.706C57.1719 179.478 60.1654 178.768 62.551 177.95C64.1238 177.447 65.0233 176.876 66.2986 176.777C74.2225 177.836 65.8021 189.38 55.8029 186.638C40.3649 182.77 40.9189 157.84 56.1378 154.79L56.1753 154.783V154.784Z" fill="#F7F7F7"/>
<path d="M208.684 172.74C209.657 172.29 210.508 168.408 211 166.937C212.152 163.307 213.508 156.584 217.541 155.667C218.793 155.455 220.651 155.72 220.919 157.036C221.717 161.97 213.747 186.211 207.457 187.2C206.267 187.13 205.072 186.572 204.492 185.577C201.983 181.572 194.525 162.46 195.639 157.098C195.919 155.814 197.456 155.049 198.71 155.18C202.474 155.73 204.432 164.909 205.812 168.182C206.361 169.563 207.558 172.986 208.669 172.746L208.686 172.74H208.684Z" fill="#F7F7F7"/>
<path d="M162.647 185.32C152.394 191.478 156.611 167.554 155.979 162.712C155.941 162.521 155.879 162.344 155.722 162.228C155.486 161.994 154.531 162.061 153.856 162.085C152.597 162.14 151.1 161.998 149.807 161.62C148.749 161.314 147.818 160.86 147.23 160.253C145.86 158.973 146.847 156.406 148.559 155.991C152.907 154.74 168.569 154.908 171.681 156.296C172.845 156.862 172.606 159.087 171.89 160.032C171.002 161.165 169.534 161.51 167.976 161.798C166.283 162.147 164.132 162.055 163.336 162.976C162.959 166.45 163.319 180.73 163.194 184.347C163.182 184.762 163.05 185.019 162.669 185.305L162.648 185.322L162.647 185.32Z" fill="#F7F7F7"/>
<path d="M176.094 186C171.597 183.042 179.858 179.382 180.173 177.249C180.446 173.86 180.37 166.444 180.256 163.482C180.229 162.862 180.124 162.335 179.534 162.007C177.886 161.144 175.212 160.82 175.087 158.392C174.419 153.02 188.786 153.678 191.048 156.214C192.115 157.191 192.194 159.102 191.179 160.149C190.265 161.227 188.138 160.73 187.55 161.979C186.78 165.351 186.96 175.08 187.495 178.587C187.85 179.95 189.786 180.174 190.891 181.173C192.818 182.452 191.895 185.913 189.698 186.208C186.231 186.442 180.117 186.5 177.467 186.378C176.989 186.339 176.557 186.246 176.121 186.013L176.094 185.998V186Z" fill="#F7F7F7"/>
<path d="M207.796 100.246C207.813 100.261 207.831 100.278 207.846 100.295C208.072 100.541 208.023 100.927 207.914 101.242C207.554 102.268 206.723 103.052 205.89 103.756C200.029 108.71 191.814 112.703 183.996 112.402C175.271 112.064 167.438 106.465 162.252 99.4577C161.99 99.1025 161.723 98.7217 161.675 98.2824C161.627 97.8432 161.88 97.3385 162.317 97.2672C162.567 97.2264 162.818 97.3315 163.043 97.4495C164.624 98.2813 165.785 99.8011 167.129 100.944C168.709 102.286 170.414 103.482 172.218 104.506C175.812 106.547 179.81 107.903 183.931 108.325C190.977 109.047 198.363 106.938 203.656 102.24C204.657 101.351 205.671 100.332 206.992 100.111C207.269 100.065 207.586 100.07 207.796 100.246Z" fill="#3A0888"/>
<path d="M194.408 87.7765C193.914 88.6398 193.361 89.3747 192.812 89.3863C191.1 89.4226 191.972 85.8314 192.231 84.9529C192.964 82.4739 194.4 80.1947 196.766 78.9821C199.24 77.7145 202.358 77.7951 204.764 79.1888C206.675 80.2963 208.188 82.2274 208.683 84.3898C208.895 85.3174 209.096 86.995 208.631 87.8758C208.059 88.9611 207.074 88.53 206.487 87.7158C205.864 86.8525 205.905 85.5417 205.661 84.5382C205.472 83.7648 205.156 82.5417 204.407 82.0849C203.337 81.4319 201.296 81.8851 200.17 82.1819C198.4 82.6491 196.848 83.7181 195.773 85.2041C195.458 85.6398 194.972 86.7917 194.408 87.7777V87.7765Z" fill="#3A0888"/>
<path d="M179.283 87.134C179.216 87.2053 179.137 87.2613 179.045 87.3022C178.699 87.4553 178.295 87.384 177.939 87.2578C176.749 86.8349 176.032 85.9634 175.576 84.8127C175.2 83.8629 174.917 82.8255 174.189 82.1083C173.08 81.0171 171.326 81.0125 169.772 81.1199C168.615 81.1994 167.341 81.3571 166.564 82.2169C165.2 83.7263 165.97 86.2473 164.486 87.7193C163.222 88.9728 162.551 87.0791 162.365 85.9681C162.074 84.2309 162.576 82.3664 163.65 80.9762C165.193 78.9774 167.743 77.9096 170.27 77.7776C172.665 77.6526 175.143 78.3384 176.964 79.8956C177.991 80.7753 178.782 81.9389 179.21 83.2216C179.513 84.1246 180.034 86.3431 179.284 87.1352L179.283 87.134Z" fill="#3A0888"/>
<path d="M157.435 73.4376C150.338 73.5042 152.889 81.5744 152.225 82.4249C151.22 83.7122 147.244 82.044 147.652 87.2438C146.866 87.2286 146.255 86.8127 146.004 86.0639C145.692 85.1328 145.796 84.3933 146.43 83.6386C146.929 83.0464 147.428 82.5452 148.059 82.0942C148.535 81.7543 149.054 81.4798 149.446 81.0382C149.832 80.6036 149.994 80.2064 149.982 79.6269C149.962 78.6363 149.849 77.6585 150.071 76.6771C150.253 75.8734 150.698 75.1094 151.074 74.3839C151.341 73.8675 151.654 73.44 152.036 73.0077C152.835 72.1082 153.875 71.1514 155.176 71.2285C155.665 71.2577 156.106 71.4703 156.459 71.8044C156.672 72.0065 156.848 72.246 156.999 72.4972C157.054 72.5883 157.412 73.4365 157.435 73.4365V73.4376Z" fill="#3A0888"/>
<path d="M143.432 99.5044C143.44 99.5196 143.45 99.5348 143.458 99.5488C143.703 100.002 143.627 100.677 143.158 100.896C142.694 101.112 142.171 100.784 141.766 100.472C139.62 98.8187 138.155 97.8292 137.184 95.1971C136.631 93.6983 136.579 91.9541 137.349 90.5546C137.581 90.1328 138.021 89.7029 138.477 89.8583C138.775 89.96 138.938 90.2765 139.032 90.5768C139.498 92.0768 138.813 93.7918 139.307 95.252C139.751 96.5628 141.235 97.7264 142.336 98.5067C142.742 98.7953 143.184 99.0768 143.433 99.5056L143.432 99.5044Z" fill="#3A0888"/>
<path d="M89.0269 50.7365C88.097 55.6525 74.7308 78.1421 75.3609 81.051C76.5355 86.4704 95.2082 79.9704 94.7151 84.3723C94.3977 87.2053 65.973 120.923 62.9808 127.001C62.866 121.592 72.2539 101.101 71.0078 97.5429C69.6118 93.5581 55.2981 97.8245 51.5563 95.7509L64.5021 52.0286L89.0257 50.7354L89.0269 50.7365Z" fill="#FCC803"/>
<path d="M221.518 113.457C223.109 111.946 224.97 108.832 223.956 106.681C223.615 105.958 222.955 105.143 222.191 105.385C221.507 105.601 221.359 106.475 221.257 107.184C221.077 108.432 220.671 109.666 219.931 110.688C219.191 111.71 218.098 112.506 216.858 112.746C214.896 113.126 212.81 112.117 210.905 112.715C210.925 115.333 211.273 115.182 213.686 115.641C214.605 115.816 215.44 115.927 216.393 115.807C218.264 115.572 220.143 114.762 221.517 113.458L221.518 113.457Z" fill="#3A0888"/>
<path d="M224.073 83.7987C222.846 83.8361 222.101 85.2508 223.046 86.1223C224.273 87.2543 224.824 88.4191 225.046 90.0779C225.242 91.5289 224.674 92.7181 224.029 93.9962C223.697 94.6516 223.259 95.3724 223.525 96.1189C223.794 96.8759 224.687 96.925 225.345 96.5686C226.515 95.9355 226.664 93.8104 227.937 93.3385C228.877 92.9892 229.508 94.578 229.778 95.1679C230.065 95.7941 230.384 96.3642 230.612 97.0196C230.839 97.675 231.038 98.425 231.387 99.0336C232.108 100.294 233.113 99.5582 233.458 98.4682C233.917 97.0184 233.605 95.5967 232.883 94.2766C231.839 92.3724 230.397 90.9798 228.164 90.9833C228.579 90.023 228.527 88.5733 228.138 87.6083C227.735 86.6083 227.153 85.7531 226.357 85.016C225.803 84.502 224.868 83.7742 224.074 83.7975L224.073 83.7987Z" fill="#3A0888"/>
</g>
<defs>
<filter id="filter0_dd_14_680" x="0" y="0" width="304" height="268" filterUnits="userSpaceOnUse" color-interpolation-filters="sRGB">
<feFlood flood-opacity="0" result="BackgroundImageFix"/>
<feColorMatrix in="SourceAlpha" type="matrix" values="0 0 0 0 0 0 0 0 0 0 0 0 0 0 0 0 0 0 127 0" result="hardAlpha"/>
<feOffset dx="1.5" dy="2"/>
<feGaussianBlur stdDeviation="6"/>
<feComposite in2="hardAlpha" operator="out"/>
<feColorMatrix type="matrix" values="0 0 0 0 0 0 0 0 0 0 0 0 0 0 0 0 0 0 0.24 0"/>
<feBlend mode="normal" in2="BackgroundImageFix" result="effect1_dropShadow_14_680"/>
<feColorMatrix in="SourceAlpha" type="matrix" values="0 0 0 0 0 0 0 0 0 0 0 0 0 0 0 0 0 0 127 0" result="hardAlpha"/>
<feOffset dx="0.75" dy="1"/>
<feGaussianBlur stdDeviation="2"/>
<feComposite in2="hardAlpha" operator="out"/>
<feColorMatrix type="matrix" values="0 0 0 0 0 0 0 0 0 0 0 0 0 0 0 0 0 0 0.48 0"/>
<feBlend mode="normal" in2="effect1_dropShadow_14_680" result="effect2_dropShadow_14_680"/>
<feBlend mode="normal" in="SourceGraphic" in2="effect2_dropShadow_14_680" result="shape"/>
</filter>
</defs>
</svg>
