<svg width="272" height="271" viewBox="0 0 272 271" fill="none" xmlns="http://www.w3.org/2000/svg">
<g filter="url(#filter0_dd_3_306)">
<path d="M206.048 256.995C203.132 256.995 200.144 256.964 197.182 256.903C189.126 256.741 180.982 256.364 173.114 256.003C162.746 255.525 152.033 255.031 141.599 255.031C139.029 255.031 136.514 255.062 134.132 255.123C106.842 255.799 80.1624 256.41 53.7779 256.456C52.2256 256.456 50.6733 256.471 49.1209 256.486C47.3701 256.501 45.6142 256.517 43.8583 256.517C43.4308 256.517 43.0032 256.517 42.5757 256.517C32.0912 256.476 23.9834 255.275 18.5019 249.541C12.7914 243.573 12.3232 234.98 12.6642 226.585C13.392 208.738 12.5471 190.462 11.7226 172.788C11.178 161.07 10.6131 148.952 10.5062 136.939C10.3026 114.853 15.1326 94.4973 24.8639 76.446C33.9998 59.4936 47.7264 44.1032 65.657 30.7021C80.483 19.621 97.7877 15.5966 115.698 12.1318C123.002 10.7174 130.275 10 137.313 10C169.902 10 199.564 25.0038 228 55.8661C244.862 74.1667 254.445 98.4098 257.296 129.984C258.787 146.469 258.899 163.492 257.601 177.987C257.596 183.752 257.474 189.165 257.352 194.405C257.092 205.858 256.868 215.749 257.911 225.507C258.853 234.293 257.016 241.498 252.445 246.916C247.737 252.502 240.612 255.631 231.272 256.222C223.114 256.741 214.629 257 206.048 257V256.995Z" fill="#FCC803"/>
<path d="M249.677 226.382C251.219 240.775 243.264 247.165 230.743 247.959C219.643 248.661 208.476 248.86 197.345 248.631C176.193 248.198 155.03 246.321 133.914 246.845C107.193 247.506 80.4781 248.127 53.7526 248.173C50.0372 248.178 46.3218 248.249 42.6115 248.234C24.6503 248.162 20.2173 244.398 20.9349 226.921C22.1666 196.837 19.0619 166.896 18.782 136.863C18.3901 94.2174 37.5473 62.0373 70.6144 37.3312C84.1833 27.1913 100.765 23.4468 117.271 20.2568C160.909 11.8162 194.103 31.2921 221.908 61.4726C239.421 80.4805 246.72 104.937 249.051 130.727C250.562 147.43 250.557 164.087 249.32 177.606C249.32 195.983 248.068 211.337 249.682 226.382H249.677Z" fill="#F7F7F7"/>
<path d="M249.315 177.601C250.552 164.077 250.557 147.425 249.045 130.722C246.714 104.932 239.416 80.4754 221.902 61.4676C194.098 31.282 160.904 11.806 117.265 20.2517C100.765 23.4468 84.1779 27.1863 70.609 37.3262C37.547 62.0323 18.3898 94.2123 18.7766 136.858C19.0565 166.896 22.1612 196.832 20.9295 226.916C20.2119 244.392 24.6449 248.157 42.6061 248.229C46.3215 248.244 50.0369 248.178 53.7472 248.168C80.4778 248.122 107.188 247.501 133.908 246.84C155.025 246.316 176.188 248.193 197.34 248.625C208.471 248.849 219.637 248.656 230.738 247.954C243.258 247.16 251.213 240.77 249.671 226.377C248.058 211.327 249.31 195.972 249.31 177.601H249.315ZM242.561 228.427C242.648 237.504 241.314 239.646 232.565 240.867C219.663 242.668 206.628 243.344 193.665 242.403C156.572 239.702 119.464 240.648 82.3507 241.197C68.2525 241.411 54.1391 241.452 40.0307 241.299C29.3426 241.187 27.6172 239.412 27.4136 229.038C27.2559 220.872 27.3831 212.706 27.3831 204.54C28.3349 181.528 25.8104 158.623 25.6068 135.606C25.2556 95.1942 42.6773 63.172 75.4187 42.6989C108.913 21.7526 145.966 16.8175 183.089 38.2624C218.996 59.0051 238.326 89.5519 242.24 130.605C243.798 146.937 244.088 163.146 242.53 179.468C240.983 195.769 242.408 212.111 242.556 228.427H242.561Z" fill="#3A0888"/>
<path d="M242.561 228.427C242.648 237.504 241.314 239.646 232.565 240.867C219.663 242.668 206.628 243.344 193.665 242.403C156.572 239.702 119.464 240.648 82.3507 241.197C68.2525 241.411 54.1391 241.452 40.0307 241.299C29.3426 241.187 27.6172 239.412 27.4136 229.038C27.2559 220.872 27.3831 212.706 27.3831 204.54C28.3349 181.528 25.8104 158.623 25.6068 135.606C25.2556 95.1942 42.6773 63.172 75.4187 42.6989C108.913 21.7526 145.966 16.8175 183.089 38.2624C218.996 59.0051 238.326 89.5519 242.24 130.605C243.798 146.937 244.088 163.146 242.53 179.468C240.983 195.769 242.408 212.111 242.556 228.427H242.561Z" fill="#7670C5"/>
<path d="M208.572 101.813C204.063 74.9044 191.181 52.9914 165.219 41.1523C149.716 34.0854 133.236 33.9989 117.168 38.1251C91.5063 44.7188 69.0866 55.9831 60.1137 83.8741C57.3347 92.508 56.1133 101.178 56.5968 109.364C53.543 167.863 106.348 203.121 152.378 189.943C174.319 183.665 192.184 171.048 201.716 149.766C208.455 134.731 211.31 118.135 208.572 101.808V101.813ZM202.465 114.457C201.411 125.929 200.205 137.397 195.217 147.934C180.187 179.666 138.096 194.812 105.951 180.384C76.1103 166.988 62.7806 143.523 63.3812 111.414C63.4779 104.006 63.4881 96.6901 65.4374 89.3739C73.0158 60.9741 95.2472 50.356 120.614 44.154C130.991 41.6102 141.842 41.9714 152.632 44.0065C183.796 49.8726 204.902 87.7764 202.459 114.462L202.465 114.457Z" fill="#3A0888"/>
<path d="M202.46 114.456C201.406 125.929 200.2 137.397 195.212 147.934C180.183 179.666 138.092 194.812 105.946 180.383C76.1056 166.987 62.7759 143.523 63.3765 111.414C63.4732 104.006 63.4834 96.69 65.4327 89.3738C73.0111 60.974 95.2425 50.3559 120.609 44.1539C130.987 41.61 141.838 41.9712 152.628 44.0063C183.791 49.8725 204.898 87.7763 202.455 114.462L202.46 114.456Z" fill="#FCC803"/>
<path d="M101.569 197.611C101.615 197.611 101.661 197.611 101.711 197.611C102.012 197.611 102.317 197.6 102.617 197.6C104.129 197.58 105.646 197.56 107.157 197.539C108.374 197.524 109.621 197.427 110.832 197.565C112.756 197.779 113.626 199.198 113.738 201.04C114.028 205.939 105.819 203.406 101.381 204.113C97.884 204.672 91.8274 203.416 91.8936 207.257C91.975 212.029 97.8077 209.094 101.06 209.796C104.358 210.508 110.14 207.634 110.394 212.467C110.7 218.18 104.434 215.906 100.861 216.802C97.6245 217.616 91.6035 214.553 91.6289 219.401C91.6594 225.313 97.9349 222.001 101.472 222.627C105.524 223.339 112.679 220.684 112.776 225.588C112.888 231.388 105.702 228.478 101.874 228.722C83.17 229.933 83.7349 229.679 83.796 209.501C83.796 208.356 83.7502 207.211 83.7095 206.072C83.6128 203.477 84.081 200.48 86.5546 199.091C88.2494 198.14 90.0053 198.338 91.8579 198.267C93.2067 198.216 94.5605 198.241 95.9143 198.099C97.3547 197.951 98.7849 197.733 100.23 197.661C100.673 197.641 101.116 197.631 101.564 197.626L101.569 197.611Z" fill="#F7F7F7"/>
<path d="M216.792 199.829C214.523 198.638 212.044 197.677 209.555 197.107C200.312 195.005 191.197 200.694 189.166 209.628C187.298 217.87 192.266 224.291 202.374 226.626C204.527 227.124 206.72 227.435 207.784 227.633C217.938 227.984 223.938 224.133 226.061 216.669C227.995 209.872 224.88 204.051 216.792 199.824V199.829ZM207.199 220.765C199.498 220.281 195.238 217.015 195.605 211.871C195.956 206.946 200.826 203.304 206.746 203.553C213.337 203.823 219.683 208.636 219.587 213.291C219.475 218.521 214.95 221.248 207.194 220.765H207.199Z" fill="#F7F7F7"/>
<path d="M75.943 213.902C75.9684 215.041 75.999 216.186 76.0295 217.331C76.0906 219.875 76.4265 222.393 76.5385 224.937C76.6454 227.272 75.8056 229.633 73.047 229.602C70.8839 229.582 70.0034 227.409 70.1612 225.542C70.8076 217.829 66.1964 216.405 59.9057 216.191C50.5765 215.876 50.1489 216.094 48.8562 226.097C48.5813 228.229 48.8562 231.078 45.777 230.966C42.9064 230.859 43.054 228.035 42.6621 225.914C41.0284 217.025 42.7232 208.193 43.1253 199.345C43.1965 197.834 43.8735 196.44 45.6294 196.181C48.0469 195.825 48.79 197.539 49.3041 199.391C52.2306 209.948 52.2255 209.719 62.878 209.77C67.479 209.791 70.0034 208.681 69.6777 203.695C69.581 202.225 69.6014 200.724 69.7642 199.259C69.9322 197.768 70.431 196.298 72.2378 196.11C74.6502 195.865 75.6682 197.687 75.7598 199.498C75.9074 202.5 75.9023 205.502 75.8768 208.503C75.8616 210.304 75.8921 212.1 75.9328 213.896L75.943 213.902Z" fill="#F7F7F7"/>
<path d="M155.488 213.978C155.666 209.511 155.849 205.059 157.168 200.77C157.422 199.941 158.644 199.005 159.534 198.862C161.178 198.598 162.456 199.717 162.496 201.355C162.603 205.787 162.715 210.243 162.354 214.654C161.952 219.595 164.11 221.269 168.767 221.085C172.085 220.953 175.429 221.243 178.747 221.503C180.325 221.625 181.552 222.627 181.806 224.225C182.071 225.898 180.956 227.216 179.491 227.455C172.869 228.544 166.171 228.341 159.555 227.582C156.598 227.242 155.549 224.586 155.503 221.747C155.463 219.157 155.493 216.562 155.493 213.973L155.488 213.978Z" fill="#F7F7F7"/>
<path d="M121.138 212.818C121.286 210.874 121.459 207.201 121.881 203.558C122.105 201.63 123.301 199.798 125.246 199.727C127.353 199.651 128.157 201.569 128.315 203.543C128.371 204.276 128.294 205.013 128.35 205.746C128.722 210.427 125.923 215.708 129.154 219.671C132.488 223.756 138.168 221.253 142.688 222.347C144.474 222.78 146.566 222.948 146.551 225.324C146.535 227.608 144.617 228.244 142.713 228.381C140.153 228.559 137.573 228.59 135.002 228.59C120.996 228.6 120.792 228.386 121.128 212.818H121.138Z" fill="#F7F7F7"/>
<path d="M135.379 167.669C118.222 166.514 102.623 160.144 92.1229 144.317C89.8936 140.959 88.0257 137.229 86.7432 133.414C85.4962 129.715 83.2924 123.584 87.2979 122.439C92.642 120.908 91.7819 127.608 92.8354 131.058C98.0726 148.214 116.533 160.816 136.713 160.806C156.756 160.791 170.574 150.325 176.162 131.48C177.155 128.137 175.923 121.177 181.618 122.627C187.217 124.057 183.104 129.654 182.29 133.129C177.374 154.054 159.132 167.664 135.384 167.669H135.379Z" fill="#3A0888"/>
<path d="M115.617 89.5368C115.276 91.7601 115.123 94.7467 114.288 97.5348C113.545 100.028 111.922 102.394 108.812 102.042C105.748 101.702 104.572 99.1018 104.252 96.507C103.89 93.6121 103.921 90.6052 104.252 87.7052C104.756 83.345 106.766 79.1425 111.652 79.7429C116.676 80.3585 115.042 85.3852 115.617 89.5368Z" fill="#3A0888"/>
<path d="M152.332 89.379C152.577 87.7763 152.597 85.497 153.325 83.4772C154.114 81.2844 156.104 80.0124 158.501 79.9514C161.046 79.8852 162.613 81.5286 163.402 83.7265C164.817 87.6542 164.695 91.7549 163.677 95.7081C162.949 98.5369 161.728 101.742 158.104 101.615C154.582 101.493 153.366 98.5216 152.826 95.4741C152.511 93.673 152.516 91.8109 152.332 89.379Z" fill="#3A0888"/>
</g>
<defs>
<filter id="filter0_dd_3_306" x="0" y="0" width="272" height="271" filterUnits="userSpaceOnUse" color-interpolation-filters="sRGB">
<feFlood flood-opacity="0" result="BackgroundImageFix"/>
<feColorMatrix in="SourceAlpha" type="matrix" values="0 0 0 0 0 0 0 0 0 0 0 0 0 0 0 0 0 0 127 0" result="hardAlpha"/>
<feOffset dx="1.5" dy="2"/>
<feGaussianBlur stdDeviation="6"/>
<feComposite in2="hardAlpha" operator="out"/>
<feColorMatrix type="matrix" values="0 0 0 0 0 0 0 0 0 0 0 0 0 0 0 0 0 0 0.24 0"/>
<feBlend mode="normal" in2="BackgroundImageFix" result="effect1_dropShadow_3_306"/>
<feColorMatrix in="SourceAlpha" type="matrix" values="0 0 0 0 0 0 0 0 0 0 0 0 0 0 0 0 0 0 127 0" result="hardAlpha"/>
<feOffset dx="0.75" dy="1"/>
<feGaussianBlur stdDeviation="2"/>
<feComposite in2="hardAlpha" operator="out"/>
<feColorMatrix type="matrix" values="0 0 0 0 0 0 0 0 0 0 0 0 0 0 0 0 0 0 0.48 0"/>
<feBlend mode="normal" in2="effect1_dropShadow_3_306" result="effect2_dropShadow_3_306"/>
<feBlend mode="normal" in="SourceGraphic" in2="effect2_dropShadow_3_306" result="shape"/>
</filter>
</defs>
</svg>
