<svg width="153" height="210" viewBox="0 0 153 210" fill="none" xmlns="http://www.w3.org/2000/svg">
<path d="M141.372 11.221C133.613 3.74035 122.859 0 109.089 0C95.319 0 84.5216 3.78359 76.653 11.3724C76.6093 11.3075 76.5437 11.2643 76.5 11.221C68.7407 3.74035 57.9651 0 44.217 0C30.4689 0 19.6496 3.78359 11.781 11.3724C3.93429 18.9396 0 30.0093 0 44.5815V165.116C0 179.883 3.93429 191.06 11.781 198.628C19.6277 206.195 30.447 210 44.217 210C57.987 210 68.5003 206.216 76.347 198.628C76.3907 198.584 76.4563 198.52 76.5 198.476C76.5437 198.541 76.6093 198.584 76.653 198.628C84.4997 206.195 95.319 210 109.089 210C122.859 210 133.372 206.216 141.219 198.628C149.066 191.06 153 179.883 153 165.116V44.5815C153 29.8147 149.131 18.7017 141.372 11.221ZM49.1567 170.586C49.1567 173.656 48.7196 175.861 47.8453 177.202C46.971 178.542 45.6596 179.212 43.911 179.212C42.1624 179.212 40.8947 178.542 40.1297 177.202C39.3429 175.861 38.9713 173.656 38.9713 170.586V39.1331C38.9713 36.063 39.3647 33.901 40.1297 32.6686C40.8947 31.4146 42.1624 30.8092 43.911 30.8092C45.6596 30.8092 46.971 31.4362 47.8453 32.6686C48.7196 33.9226 49.1567 36.0846 49.1567 39.1331V170.607V170.586ZM114.029 170.586C114.029 173.656 113.592 175.861 112.717 177.202C111.843 178.542 110.532 179.212 108.783 179.212C107.034 179.212 105.767 178.542 105.002 177.202C104.237 175.861 103.843 173.656 103.843 170.586V39.1331C103.843 36.063 104.237 33.901 105.002 32.6686C105.767 31.4146 107.034 30.8092 108.783 30.8092C110.532 30.8092 111.843 31.4362 112.717 32.6686C113.592 33.9226 114.029 36.0846 114.029 39.1331V170.607V170.586Z" fill="#F7F7F7"/>
</svg>
