<svg width="1269" height="393" viewBox="0 0 1269 393" fill="none" xmlns="http://www.w3.org/2000/svg">
<path d="M261.365 22.9049C247.019 9.00123 227.138 2.04939 201.681 2.04939C176.223 2.04939 156.261 9.0816 141.714 23.1862C141.633 23.0656 141.512 22.9853 141.431 22.9049C127.086 9.00123 107.164 2.04939 81.7471 2.04939C56.33 2.04939 36.3276 9.0816 21.7804 23.1862C7.2736 37.2506 0 57.8248 0 84.9089V308.935C0 336.381 7.2736 357.156 21.7804 371.22C36.2872 385.285 56.2895 392.357 81.7471 392.357C107.205 392.357 126.641 385.325 141.148 371.22C141.229 371.14 141.35 371.019 141.431 370.939C141.512 371.06 141.633 371.14 141.714 371.22C156.221 385.285 176.223 392.357 201.681 392.357C227.138 392.357 246.575 385.325 261.082 371.22C275.588 357.156 282.862 336.381 282.862 308.935V84.9089C282.862 57.4632 275.71 36.8086 261.365 22.9049ZM90.8795 319.102C90.8795 324.808 90.0714 328.906 88.455 331.398C86.8386 333.889 84.4141 335.135 81.1814 335.135C77.9487 335.135 75.605 333.889 74.1907 331.398C72.736 328.906 72.049 324.808 72.049 319.102V74.7825C72.049 69.0764 72.7764 65.058 74.1907 62.7675C75.605 60.4368 77.9487 59.3117 81.1814 59.3117C84.4141 59.3117 86.8386 60.477 88.455 62.7675C90.0714 65.0982 90.8795 69.1166 90.8795 74.7825V319.142V319.102ZM210.813 319.102C210.813 324.808 210.005 328.906 208.389 331.398C206.772 333.889 204.348 335.135 201.115 335.135C197.882 335.135 195.538 333.889 194.124 331.398C192.71 328.906 191.983 324.808 191.983 319.102V74.7825C191.983 69.0764 192.71 65.058 194.124 62.7675C195.538 60.4368 197.882 59.3117 201.115 59.3117C204.348 59.3117 206.772 60.477 208.389 62.7675C210.005 65.0982 210.813 69.1166 210.813 74.7825V319.142V319.102Z" fill="#F7F7F7"/>
<path d="M534.65 61.361C533.033 58.8696 530.609 57.5837 527.336 57.5837C524.426 57.5837 522.204 58.8295 520.587 61.361C518.971 63.8926 518.163 67.8307 518.163 73.2153V319.222C518.163 324.968 518.971 329.107 520.587 331.599C522.204 334.13 524.467 335.376 527.336 335.376C530.568 335.376 533.033 334.13 534.65 331.599C536.266 329.107 537.074 324.968 537.074 319.222V243.877H609.608V309.015C609.608 337.385 602.011 358.442 586.858 372.265C571.705 386.088 552.026 393 527.861 393C503.697 393 483.937 386.088 468.581 372.265C453.226 358.442 445.589 337.385 445.589 309.015V83.4221C445.589 54.7307 453.185 33.634 468.339 20.1724C483.492 6.71074 503.171 0 527.336 0C551.5 0 571.745 6.71074 586.898 20.1724C602.052 33.634 609.649 54.7307 609.649 83.4221V148.56H537.115V73.2153C537.115 67.8307 536.306 63.8926 534.69 61.361H534.65Z" fill="#F7F7F7"/>
<path d="M787.69 309.015C787.69 336.662 780.376 357.558 765.788 371.743C751.16 385.928 731.239 393 705.983 393C680.728 393 660.24 385.928 645.612 371.743C630.984 357.558 623.67 336.662 623.67 309.015V83.4221C623.67 56.1371 630.984 35.4423 645.612 21.2574C660.24 7.07239 680.324 0 705.983 0C731.643 0 751.645 6.99202 766.071 20.9761C780.497 34.9601 787.73 55.7755 787.73 83.4221V308.975L787.69 309.015ZM712.732 61.1199C711.115 58.7893 708.691 57.6239 705.418 57.6239C702.144 57.6239 699.801 58.7893 698.386 61.1199C696.932 63.4506 696.204 67.5092 696.204 73.2153V319.222C696.204 324.968 696.932 329.107 698.386 331.599C699.841 334.13 702.185 335.376 705.418 335.376C708.65 335.376 711.115 334.13 712.732 331.599C714.348 329.107 715.156 324.968 715.156 319.222V73.2153C715.156 67.469 714.348 63.4506 712.732 61.1199Z" fill="#F7F7F7"/>
<path d="M965.812 309.015C965.812 336.662 958.498 357.558 943.911 371.743C929.283 385.928 909.361 393 884.106 393C858.85 393 838.363 385.928 823.735 371.743C809.107 357.558 801.793 336.662 801.793 309.015V83.4221C801.793 56.1371 809.107 35.4423 823.735 21.2574C838.363 7.07239 858.446 0 884.106 0C909.765 0 929.768 6.99202 944.194 20.9761C958.619 34.9601 965.853 55.7755 965.853 83.4221V308.975L965.812 309.015ZM890.813 61.1199C889.197 58.7893 886.773 57.6239 883.499 57.6239C880.226 57.6239 877.883 58.7893 876.468 61.1199C875.014 63.4506 874.286 67.5092 874.286 73.2153V319.222C874.286 324.968 875.014 329.107 876.468 331.599C877.923 334.13 880.267 335.376 883.499 335.376C886.732 335.376 889.197 334.13 890.813 331.599C892.43 329.107 893.238 324.968 893.238 319.222V73.2153C893.238 67.469 892.43 63.4506 890.813 61.1199Z" fill="#F7F7F7"/>
<path xmlns="http://www.w3.org/2000/svg" d="M1052.41 8.07699V327.299H1097.34V384.883H980.4V8.07699H1052.41Z" fill="#F7F7F7"/>
  <path d="M1052.41 8.07699V327.299H1097.34V384.883H980.4V8.07699H1052.41Z" fill="color"/>
<path d="M1268.96 309.015C1268.96 336.662 1261.65 357.558 1247.06 371.743C1232.43 385.928 1212.51 393 1187.25 393C1162 393 1141.51 385.928 1126.88 371.743C1112.25 357.558 1104.94 336.662 1104.94 309.015V83.4221C1104.94 56.1371 1112.25 35.4423 1126.88 21.2574C1141.51 7.07239 1161.59 0 1187.25 0C1212.91 0 1232.91 6.99202 1247.34 20.9761C1261.77 34.9601 1269 55.7755 1269 83.4221V308.975L1268.96 309.015ZM1193.96 61.1199C1192.34 58.7893 1189.92 57.6239 1186.65 57.6239C1183.37 57.6239 1181.03 58.7893 1179.62 61.1199C1178.16 63.4506 1177.43 67.5092 1177.43 73.2153V319.222C1177.43 324.968 1178.16 329.107 1179.62 331.599C1181.07 334.13 1183.41 335.376 1186.65 335.376C1189.88 335.376 1192.34 334.13 1193.96 331.599C1195.58 329.107 1196.39 324.968 1196.39 319.222V73.2153C1196.39 67.469 1195.58 63.4506 1193.96 61.1199Z" fill="#F7F7F7"/>
</svg>
