<svg width="239" height="74" viewBox="0 0 239 74" fill="none" xmlns="http://www.w3.org/2000/svg">
<path d="M49.2247 4.31288C46.523 1.69489 42.7786 0.38589 37.984 0.38589C33.1894 0.38589 29.4298 1.71002 26.69 4.36585C26.6748 4.34315 26.652 4.32802 26.6367 4.31288C23.935 1.69489 20.183 0.38589 15.396 0.38589C10.609 0.38589 6.84184 1.71002 4.10206 4.36585C1.36989 7.01411 0 10.8881 0 15.9879V58.171C0 63.3389 1.36989 67.2507 4.10206 69.899C6.83422 72.5472 10.6014 73.8789 15.396 73.8789C20.1906 73.8789 23.8513 72.5548 26.5835 69.899C26.5987 69.8838 26.6215 69.8611 26.6367 69.846C26.652 69.8687 26.6748 69.8838 26.69 69.899C29.4222 72.5472 33.1894 73.8789 37.984 73.8789C42.7786 73.8789 46.4392 72.5548 49.1714 69.899C51.9036 67.2507 53.2735 63.3389 53.2735 58.171V15.9879C53.2735 10.82 51.9264 6.93088 49.2247 4.31288ZM17.116 60.0853C17.116 61.1597 16.9638 61.9315 16.6594 62.4006C16.355 62.8697 15.8983 63.1043 15.2895 63.1043C14.6806 63.1043 14.2392 62.8697 13.9729 62.4006C13.6989 61.9315 13.5695 61.1597 13.5695 60.0853V14.0812C13.5695 13.0067 13.7065 12.2501 13.9729 11.8188C14.2392 11.38 14.6806 11.1681 15.2895 11.1681C15.8983 11.1681 16.355 11.3875 16.6594 11.8188C16.9638 12.2577 17.116 13.0143 17.116 14.0812V60.0928V60.0853ZM39.704 60.0853C39.704 61.1597 39.5517 61.9315 39.2473 62.4006C38.9429 62.8697 38.4863 63.1043 37.8774 63.1043C37.2686 63.1043 36.8272 62.8697 36.5608 62.4006C36.2945 61.9315 36.1575 61.1597 36.1575 60.0853V14.0812C36.1575 13.0067 36.2945 12.2501 36.5608 11.8188C36.8272 11.38 37.2686 11.1681 37.8774 11.1681C38.4863 11.1681 38.9429 11.3875 39.2473 11.8188C39.5517 12.2577 39.704 13.0143 39.704 14.0812V60.0928V60.0853Z" fill="#0F0328"/>
<path d="M100.694 11.554C100.39 11.0849 99.9334 10.8427 99.317 10.8427C98.769 10.8427 98.3504 11.0773 98.046 11.554C97.7416 12.0307 97.5894 12.7722 97.5894 13.7861V60.108C97.5894 61.19 97.7416 61.9693 98.046 62.4384C98.3504 62.9151 98.7766 63.1497 99.317 63.1497C99.9258 63.1497 100.39 62.9151 100.694 62.4384C100.999 61.9693 101.151 61.19 101.151 60.108V45.9209H114.812V58.1861C114.812 63.528 113.381 67.4928 110.527 70.0957C107.673 72.6986 103.967 74 99.4159 74C94.8648 74 91.1433 72.6986 88.2513 70.0957C85.3593 67.4928 83.9209 63.528 83.9209 58.1861V15.708C83.9209 10.3055 85.3517 6.33313 88.2056 3.79836C91.0596 1.2636 94.7659 0 99.317 0C103.868 0 107.681 1.2636 110.535 3.79836C113.389 6.33313 114.82 10.3055 114.82 15.708V27.9732H101.159V13.7861C101.159 12.7722 101.006 12.0307 100.702 11.554H100.694Z" fill="#0F0328"/>
<path d="M148.351 58.1861C148.351 63.3918 146.974 67.3264 144.226 69.9973C141.471 72.6683 137.72 74 132.963 74C128.206 74 124.348 72.6683 121.593 69.9973C118.838 67.3264 117.46 63.3918 117.46 58.1861V15.708C117.46 10.5703 118.838 6.67362 121.593 4.00266C124.348 1.3317 128.13 0 132.963 0C137.796 0 141.563 1.31656 144.28 3.94969C146.997 6.58282 148.359 10.5022 148.359 15.708V58.1785L148.351 58.1861ZM134.234 11.5086C133.929 11.0697 133.473 10.8503 132.856 10.8503C132.24 10.8503 131.799 11.0697 131.532 11.5086C131.258 11.9474 131.121 12.7117 131.121 13.7861V60.108C131.121 61.19 131.258 61.9693 131.532 62.4384C131.806 62.9151 132.248 63.1497 132.856 63.1497C133.465 63.1497 133.929 62.9151 134.234 62.4384C134.538 61.9693 134.691 61.19 134.691 60.108V13.7861C134.691 12.7041 134.538 11.9474 134.234 11.5086Z" fill="#0F0328"/>
<path d="M181.898 58.1861C181.898 63.3918 180.521 67.3264 177.774 69.9973C175.019 72.6683 171.267 74 166.51 74C161.753 74 157.895 72.6683 155.14 69.9973C152.385 67.3264 151.007 63.3918 151.007 58.1861V15.708C151.007 10.5703 152.385 6.67362 155.14 4.00266C157.895 1.3317 161.677 0 166.51 0C171.343 0 175.11 1.31656 177.827 3.94969C180.544 6.58282 181.906 10.5022 181.906 15.708V58.1785L181.898 58.1861ZM167.773 11.5086C167.469 11.0697 167.012 10.8503 166.396 10.8503C165.779 10.8503 165.338 11.0697 165.072 11.5086C164.798 11.9474 164.661 12.7117 164.661 13.7861V60.108C164.661 61.19 164.798 61.9693 165.072 62.4384C165.346 62.9151 165.787 63.1497 166.396 63.1497C167.005 63.1497 167.469 62.9151 167.773 62.4384C168.078 61.9693 168.23 61.19 168.23 60.108V13.7861C168.23 12.7041 168.078 11.9474 167.773 11.5086Z" fill="#0F0328"/>
<path d="M198.208 1.52086V61.6288H206.671V72.4716H184.646V1.52086H198.208Z" fill="#0F0328"/>
<path d="M238.992 58.1861C238.992 63.3918 237.615 67.3264 234.867 69.9973C232.112 72.6683 228.361 74 223.604 74C218.847 74 214.989 72.6683 212.234 69.9973C209.479 67.3264 208.101 63.3918 208.101 58.1861V15.708C208.101 10.5703 209.479 6.67362 212.234 4.00266C214.989 1.3317 218.771 0 223.604 0C228.437 0 232.204 1.31656 234.921 3.94969C237.638 6.58282 239 10.5022 239 15.708V58.1785L238.992 58.1861ZM224.867 11.5086C224.563 11.0697 224.106 10.8503 223.49 10.8503C222.873 10.8503 222.432 11.0697 222.166 11.5086C221.892 11.9474 221.755 12.7117 221.755 13.7861V60.108C221.755 61.19 221.892 61.9693 222.166 62.4384C222.44 62.9151 222.881 63.1497 223.49 63.1497C224.099 63.1497 224.563 62.9151 224.867 62.4384C225.172 61.9693 225.324 61.19 225.324 60.108V13.7861C225.324 12.7041 225.172 11.9474 224.867 11.5086Z" fill="#0F0328"/>
</svg>
