<svg viewBox="0 0 400 100" fill="none" xmlns="http://www.w3.org/2000/svg">
  <path fill-rule="evenodd" clip-rule="evenodd" d="M50.5 20C33.655 20 20 33.655 20 50.5C20 67.345 33.655 81 50.5 81C60.5 81 69.5 76 75 68V78C69 84 60 88 50.5 88C29.79 88 13 71.21 13 50.5C13 29.79 29.79 13 50.5 13C60 13 69 17 75 23V33C69.5 25 60.5 20 50.5 20ZM120 20C103.155 20 89.5 33.655 89.5 50.5C89.5 67.345 103.155 81 120 81C136.845 81 150.5 67.345 150.5 50.5C150.5 33.655 136.845 20 120 20ZM120 13C140.71 13 157.5 29.79 157.5 50.5C157.5 71.21 140.71 88 120 88C99.29 88 82.5 71.21 82.5 50.5C82.5 29.79 99.29 13 120 13ZM200 20C183.155 20 169.5 33.655 169.5 50.5C169.5 67.345 183.155 81 200 81C216.845 81 230.5 67.345 230.5 50.5C230.5 33.655 216.845 20 200 20ZM200 13C220.71 13 237.5 29.79 237.5 50.5C237.5 71.21 220.71 88 200 88C179.29 88 162.5 71.21 162.5 50.5C162.5 29.79 179.29 13 200 13ZM280 20C263.155 20 249.5 33.655 249.5 50.5C249.5 67.345 263.155 81 280 81C290 81 299 76 304.5 68V78C298.5 84 289.5 88 280 88C259.29 88 242.5 71.21 242.5 50.5C242.5 29.79 259.29 13 280 13C289.5 13 298.5 17 304.5 23V88H311.5V13H280ZM360 20C343.155 20 329.5 33.655 329.5 50.5C329.5 67.345 343.155 81 360 81C376.845 81 390.5 67.345 390.5 50.5C390.5 33.655 376.845 20 360 20ZM360 13C380.71 13 397.5 29.79 397.5 50.5C397.5 71.21 380.71 88 360 88C339.29 88 322.5 71.21 322.5 50.5C322.5 29.79 339.29 13 360 13Z" fill="#0F0328"/>
  <circle cx="395" cy="82" r="6" fill="#7670C5"/>
</svg>